<svg width="43" height="43" viewBox="0 0 43 43" fill="none" xmlns="http://www.w3.org/2000/svg">
<path d="M38.7001 7.74004C38.6973 7.56322 38.6401 7.39155 38.5362 7.24843C38.4323 7.10531 38.2868 6.99769 38.1196 6.94024L21.7796 1.35024C21.5989 1.2856 21.4013 1.2856 21.2206 1.35024L4.8806 6.94024C4.71334 6.99769 4.56787 7.10531 4.46399 7.24843C4.36011 7.39155 4.30288 7.56322 4.3001 7.74004L4.25709 10.277C4.12809 18.0901 4.7602 23.6973 6.19639 27.4254C7.27325 30.2325 8.89712 32.7977 10.9737 34.9719C13.4578 37.4983 16.4016 39.527 19.6468 40.9489L21.1432 41.6326C21.2552 41.6837 21.3769 41.7102 21.5001 41.7102C21.6232 41.7102 21.745 41.6837 21.857 41.6326L23.3534 40.9489C26.5986 39.527 29.5424 37.4983 32.0265 34.9719C34.1051 32.7968 35.7305 30.2301 36.8081 27.4211C38.2443 23.693 38.8764 18.0858 38.7474 10.2727L38.7001 7.74004ZM35.2042 26.8019C34.2092 29.4002 32.7064 31.7741 30.7838 33.7851C28.4489 36.147 25.6866 38.0439 22.6439 39.3751L21.5001 39.904L20.3563 39.3837C17.3136 38.0525 14.5513 36.1556 12.2164 33.7937C10.2928 31.7802 8.79002 29.4032 7.79599 26.8019C6.45009 23.2845 5.8438 17.888 5.9728 10.32L6.00289 8.38504L21.5001 3.05734L36.9801 8.36784L37.0102 10.3028C37.1564 17.888 36.5501 23.2845 35.2042 26.8019Z" fill="#91AD37"/>
<path d="M34.4 10.7501C34.3981 10.5725 34.3413 10.3999 34.2373 10.2559C34.1334 10.1119 33.9875 10.0037 33.8195 9.94596L21.7795 5.81796C21.5981 5.75762 21.402 5.75762 21.2205 5.81796L9.18051 9.94596C9.01258 10.0037 8.86662 10.1119 8.76268 10.2559C8.65874 10.3999 8.60192 10.5725 8.60001 10.7501V10.8318C8.48391 17.6516 9.03001 22.846 10.1953 25.856C11.0475 28.0867 12.337 30.1247 13.9879 31.8502C16.0233 33.919 18.4341 35.5812 21.0915 36.7479L21.1431 36.7694C21.2541 36.8241 21.3763 36.8521 21.5 36.851C21.6231 36.8511 21.7449 36.8247 21.8569 36.7737L21.9085 36.7479C24.5676 35.5873 26.9813 33.931 29.0207 31.8674C30.6716 30.1419 31.9611 28.1039 32.8133 25.8732C33.97 22.8632 34.5333 17.6688 34.4086 10.8533L34.4 10.7501ZM31.1965 25.2411C30.4217 27.2579 29.2522 29.0999 27.7565 30.6591C25.9577 32.4914 23.8368 33.9767 21.5 35.0408C19.1569 33.9841 17.0287 32.5046 15.222 30.6763C13.7263 29.1171 12.5568 27.2751 11.782 25.2583C10.75 22.5235 10.2254 17.7419 10.32 11.3951L21.5 7.55946L32.68 11.3951C32.7746 17.7376 32.25 22.5235 31.2051 25.2583L31.1965 25.2411Z" fill="#91AD37"/>
<path d="M25.5377 17.3419L19.4059 23.4737L17.4623 21.5301C17.3824 21.4502 17.2876 21.3868 17.1832 21.3435C17.0788 21.3003 16.9669 21.278 16.8539 21.278C16.7409 21.278 16.629 21.3003 16.5246 21.3435C16.4202 21.3868 16.3253 21.4502 16.2454 21.5301C16.1655 21.61 16.1022 21.7048 16.0589 21.8092C16.0157 21.9136 15.9934 22.0255 15.9934 22.1385C15.9934 22.2515 16.0157 22.3634 16.0589 22.4678C16.1022 22.5722 16.1655 22.6671 16.2454 22.747L18.7953 25.2969C18.8753 25.3774 18.9705 25.4412 19.0753 25.4847C19.1801 25.5283 19.2925 25.5507 19.4059 25.5506C19.6337 25.5496 19.8517 25.4584 20.0122 25.2969L26.7546 18.5588C26.8345 18.4789 26.8979 18.384 26.9412 18.2796C26.9844 18.1752 27.0067 18.0633 27.0067 17.9503C27.0067 17.8373 26.9844 17.7254 26.9412 17.621C26.8979 17.5166 26.8345 17.4218 26.7546 17.3419C26.6747 17.262 26.5799 17.1986 26.4755 17.1553C26.3711 17.1121 26.2592 17.0898 26.1462 17.0898C26.0332 17.0898 25.9213 17.1121 25.8169 17.1553C25.7125 17.1986 25.6176 17.262 25.5377 17.3419Z" fill="#FF7F57"/>
</svg>
