<svg width="43" height="43" viewBox="0 0 43 43" fill="none" xmlns="http://www.w3.org/2000/svg">
<path d="M32.9219 22.8438C30.2505 22.8438 27.5469 23.7669 27.5469 25.5312V29.0707C26.5115 28.5077 25.0085 28.2187 23.5156 28.2187C20.8442 28.2187 18.1406 29.1419 18.1406 30.9062V37.625C18.1406 41.1927 28.8906 41.2061 28.8906 37.625V37.4335C31.8234 39.0467 38.2969 38.358 38.2969 35.6094V25.5312C38.2969 23.7669 35.5933 22.8438 32.9219 22.8438ZM36.9531 32.25C36.9531 32.7237 35.4226 33.5937 32.9219 33.5937C31.0655 33.5937 30.1464 33.1308 29.7909 33.0274C29.1688 32.7472 28.8906 32.4348 28.8906 32.25C28.8906 32.1768 28.8906 30.6147 28.8906 30.7141C31.0433 31.8986 34.922 31.8301 36.9531 30.7262V32.25ZM19.4844 32.7418C21.5726 33.8759 25.458 33.8766 27.5469 32.7418V34.2656C27.5469 34.7393 26.0163 35.6094 23.5156 35.6094C21.0149 35.6094 19.4844 34.7393 19.4844 34.2656V32.7418ZM36.9531 28.8906C36.9531 29.8373 32.6632 30.9089 29.8501 29.6935C29.1869 29.408 28.8906 29.0841 28.8906 28.8906V27.3668C30.9788 28.5009 34.8643 28.5016 36.9531 27.3668V28.8906ZM32.9219 24.1875C35.4226 24.1875 36.9531 25.0576 36.9531 25.5312C36.9531 26.0049 35.4226 26.875 32.9219 26.875C30.4212 26.875 28.8906 26.0049 28.8906 25.5312C28.8906 25.0576 30.4212 24.1875 32.9219 24.1875ZM23.5156 29.5625C26.0163 29.5625 27.5469 30.4326 27.5469 30.9062C27.5469 31.3799 26.0163 32.25 23.5156 32.25C21.0149 32.25 19.4844 31.3799 19.4844 30.9062C19.4844 30.4326 21.0149 29.5625 23.5156 29.5625ZM23.5156 38.9687C21.0149 38.9687 19.4844 38.0987 19.4844 37.625V36.1012C21.5726 37.2353 25.458 37.236 27.5469 36.1012V37.625C27.5469 38.0987 26.0163 38.9687 23.5156 38.9687ZM29.8601 36.417C29.1943 36.1314 28.8906 35.7982 28.8906 35.6094V34.0715C31.0339 35.2546 34.9147 35.1935 36.9531 34.0856V35.6094C36.9531 36.5487 32.6955 37.631 29.8601 36.417Z" fill="#91AD37"/>
<path d="M33.5938 14.1094C35.0759 14.1094 36.2812 12.904 36.2812 11.4219C36.2812 9.93972 35.0759 8.73438 33.5938 8.73438C32.1116 8.73438 30.9062 9.93972 30.9062 11.4219C30.9062 12.904 32.1116 14.1094 33.5938 14.1094ZM33.5938 10.0781C34.3342 10.0781 34.9375 10.6808 34.9375 11.4219C34.9375 12.163 34.3342 12.7656 33.5938 12.7656C32.8527 12.7656 32.25 12.163 32.25 11.4219C32.25 10.6808 32.8527 10.0781 33.5938 10.0781Z" fill="#FF7F57"/>
<path d="M38.2969 16.125C36.8147 16.125 35.6094 17.3303 35.6094 18.8125C35.6094 20.2947 36.8147 21.5 38.2969 21.5C39.779 21.5 40.9844 20.2947 40.9844 18.8125C40.9844 17.3303 39.779 16.125 38.2969 16.125ZM38.2969 20.1562C37.5558 20.1562 36.9531 19.5536 36.9531 18.8125C36.9531 18.0714 37.5558 17.4688 38.2969 17.4688C39.0373 17.4688 39.6406 18.0714 39.6406 18.8125C39.6406 19.5536 39.0373 20.1562 38.2969 20.1562Z" fill="#FF7F57"/>
<path d="M32.0529 19.9595L40.1154 11.897C40.7443 11.2681 39.7936 10.3181 39.1654 10.947L31.1029 19.0095C30.466 19.6464 31.4335 20.579 32.0529 19.9595Z" fill="#FF7F57"/>
<path d="M16.1256 34.9375H10.7499C8.89756 34.9375 7.39054 33.4305 7.39054 31.5781V7.39062C7.39054 6.07577 6.84834 4.8852 5.97558 4.03125H24.8593C26.7117 4.03125 28.2187 5.53827 28.2187 7.39062V21.1244C28.2187 22.0126 29.5624 22.014 29.5624 21.1244V7.39062C29.5624 4.79719 27.4521 2.6875 24.8593 2.6875H2.68742C1.79786 2.6875 1.7992 4.03125 2.68742 4.03125C4.53978 4.03125 6.04679 5.53827 6.04679 7.39062V31.5781C6.04679 34.1716 8.15715 36.2812 10.7499 36.2812H16.1256C17.0152 36.2812 17.0138 34.9375 16.1256 34.9375Z" fill="#91AD37"/>
<path d="M10.7499 7.39062H21.4999C22.3895 7.39062 22.3881 6.04688 21.4999 6.04688H10.7499C9.86036 6.04688 9.8617 7.39062 10.7499 7.39062Z" fill="#91AD37"/>
<path d="M24.8593 14.1094H20.1562C19.2666 14.1094 19.268 15.4531 20.1562 15.4531H24.8593C25.7489 15.4531 25.7475 14.1094 24.8593 14.1094Z" fill="#91AD37"/>
<path d="M10.7499 15.4531H17.4687C18.3582 15.4531 18.3569 14.1094 17.4687 14.1094H10.7499C9.86036 14.1094 9.8617 15.4531 10.7499 15.4531Z" fill="#91AD37"/>
<path d="M15.453 24.1875H10.7499C9.86036 24.1875 9.8617 25.5312 10.7499 25.5312H15.453C16.3426 25.5312 16.3413 24.1875 15.453 24.1875Z" fill="#91AD37"/>
<path d="M21.4999 25.5312C22.3895 25.5312 22.3881 24.1875 21.4999 24.1875H18.1405C17.251 24.1875 17.2523 25.5312 18.1405 25.5312H21.4999Z" fill="#91AD37"/>
<path d="M10.7499 18.8125H13.4374C14.327 18.8125 14.3256 17.4688 13.4374 17.4688H10.7499C9.86036 17.4688 9.8617 18.8125 10.7499 18.8125Z" fill="#91AD37"/>
<path d="M10.7499 27.5469C9.86036 27.5469 9.8617 28.8906 10.7499 28.8906H14.7812C15.6707 28.8906 15.6694 27.5469 14.7812 27.5469H10.7499Z" fill="#91AD37"/>
<path d="M10.7499 22.1719H11.4218C12.3114 22.1719 12.31 20.8281 11.4218 20.8281H10.7499C9.86036 20.8281 9.8617 22.1719 10.7499 22.1719Z" fill="#91AD37"/>
<path d="M18.1413 20.8281H14.11C13.2218 20.8281 13.2205 22.1719 14.11 22.1719H18.1413C19.0308 22.1719 19.0295 20.8281 18.1413 20.8281Z" fill="#91AD37"/>
<path d="M20.828 17.4688H16.1249C15.2354 17.4688 15.2367 18.8125 16.1249 18.8125H20.828C21.7176 18.8125 21.7163 17.4688 20.828 17.4688Z" fill="#91AD37"/>
<path d="M24.8593 17.4688H23.5155C22.626 17.4688 22.6273 18.8125 23.5155 18.8125H24.8593C25.7489 18.8125 25.7475 17.4688 24.8593 17.4688Z" fill="#91AD37"/>
<path d="M24.8593 24.1875H24.1874C23.2979 24.1875 23.2992 25.5312 24.1874 25.5312H24.8593C25.7489 25.5312 25.7475 24.1875 24.8593 24.1875Z" fill="#91AD37"/>
<path d="M10.7499 10.0781H14.7818C15.6714 10.0781 15.6701 8.73438 14.7818 8.73438H10.7499C9.86036 8.73438 9.8617 10.0781 10.7499 10.0781Z" fill="#91AD37"/>
<path d="M24.8593 20.8281H20.828C19.9385 20.8281 19.9398 22.1719 20.828 22.1719H24.8593C25.7489 22.1719 25.7475 20.8281 24.8593 20.8281Z" fill="#91AD37"/>
</svg>
