<svg width="43" height="43" viewBox="0 0 43 43" fill="none" xmlns="http://www.w3.org/2000/svg">
<g clip-path="url(#clip0_30_794)">
<path d="M14.5207 27.8242C15.1141 26.7728 15.4529 25.5575 15.4529 24.2627C15.4529 20.2689 12.2296 17.0312 8.25363 17.0312C4.74737 17.0312 1.82799 19.5495 1.18677 22.8834" stroke="#91AD37" stroke-width="1.3" stroke-miterlimit="10" stroke-linecap="round" stroke-linejoin="round"/>
<path d="M1.19141 25.6685C1.84296 28.9893 4.75654 31.4942 8.25357 31.4942C8.92536 31.4942 9.57557 31.4018 10.1924 31.2289" stroke="#91AD37" stroke-width="1.3" stroke-miterlimit="10" stroke-linecap="round" stroke-linejoin="round"/>
<path d="M10.2612 28.7951C9.64783 29.0697 8.96848 29.2223 8.2536 29.2223C5.52671 29.2223 3.31616 27.0018 3.31616 24.2628C3.31616 21.5237 5.52671 19.3032 8.2536 19.3032C10.9805 19.3032 13.191 21.5237 13.191 24.2628C13.191 25.6865 12.5938 26.9701 11.6373 27.8746" stroke="#91AD37" stroke-width="1.3" stroke-miterlimit="10" stroke-linecap="round" stroke-linejoin="round"/>
<path d="M8.25073 26.0688V26.924" stroke="#91AD37" stroke-width="1.3" stroke-miterlimit="10" stroke-linecap="round" stroke-linejoin="round"/>
<path d="M9.58641 22.4565L7.62118 22.4591C7.23191 22.4596 6.91605 22.7723 6.91554 23.1576L6.91504 23.5661C6.91454 23.9513 7.22965 24.2632 7.61891 24.2627H8.88263C9.27189 24.2622 9.587 24.5741 9.5865 24.9594L9.586 25.3679C9.58549 25.7531 9.26954 26.0659 8.88036 26.0664L6.91512 26.0689" stroke="#91AD37" stroke-width="1.3" stroke-miterlimit="10" stroke-linecap="round" stroke-linejoin="round"/>
<path d="M8.25073 21.6013V22.4564" stroke="#91AD37" stroke-width="1.3" stroke-miterlimit="10" stroke-linecap="round" stroke-linejoin="round"/>
<path d="M41.8131 38.7719L39.0288 31.727C35.9358 23.9234 30.0777 23.5071 29.4702 23.3242" stroke="#91AD37" stroke-width="1.3" stroke-miterlimit="10" stroke-linecap="round" stroke-linejoin="round"/>
<path d="M37.2026 6.67017C37.8115 7.99376 38.1516 9.46769 38.1516 11.0222V15.6758C38.1516 18.9688 35.4943 21.6387 32.2156 21.6387H30.7744" stroke="#91AD37" stroke-width="1.3" stroke-miterlimit="10" stroke-linecap="round" stroke-linejoin="round"/>
<path d="M24.8385 21.6386H23.3973C20.1186 21.6386 17.4604 18.9688 17.4604 15.6757V11.1347C17.4604 5.39102 22.0519 0.650101 27.7695 0.629945C30.9576 0.619027 33.8114 2.05684 35.717 4.32526" stroke="#91AD37" stroke-width="1.3" stroke-miterlimit="10" stroke-linecap="round" stroke-linejoin="round"/>
<path d="M29.9127 31.6104H29.906" stroke="#91AD37" stroke-width="1.3" stroke-miterlimit="10" stroke-linecap="round" stroke-linejoin="round"/>
<path d="M29.9127 34.8533H29.906" stroke="#91AD37" stroke-width="1.3" stroke-miterlimit="10" stroke-linecap="round" stroke-linejoin="round"/>
<path d="M26.1419 23.3245C25.6548 23.4713 21.7894 23.7677 18.6826 27.907" stroke="#91AD37" stroke-width="1.3" stroke-miterlimit="10" stroke-linecap="round" stroke-linejoin="round"/>
<path d="M29.4705 22.2429V24.2627" stroke="#91AD37" stroke-width="1.3" stroke-miterlimit="10" stroke-linecap="round" stroke-linejoin="round"/>
<path d="M26.1421 24.2627V22.2429" stroke="#91AD37" stroke-width="1.3" stroke-miterlimit="10" stroke-linecap="round" stroke-linejoin="round"/>
<path d="M34.2764 12.7822V15.8884C34.2764 19.4618 31.3795 22.3586 27.8062 22.3586C24.2327 22.3586 21.3359 19.4618 21.3359 15.8884V12.6143" stroke="#91AD37" stroke-width="1.3" stroke-miterlimit="10" stroke-linecap="round" stroke-linejoin="round"/>
<path d="M27.8062 15.7654V16.6555" stroke="#91AD37" stroke-width="1.3" stroke-miterlimit="10" stroke-linecap="round" stroke-linejoin="round"/>
<path d="M29.4706 18.5813C28.5514 19.5045 27.0612 19.5045 26.1421 18.5813" stroke="#91AD37" stroke-width="1.3" stroke-miterlimit="10" stroke-linecap="round" stroke-linejoin="round"/>
<path d="M24.7463 15.0374L24.74 15.2061" stroke="#91AD37" stroke-width="1.3" stroke-miterlimit="10" stroke-linecap="round" stroke-linejoin="round"/>
<path d="M30.8725 15.2061L30.8662 15.0374" stroke="#91AD37" stroke-width="1.3" stroke-miterlimit="10" stroke-linecap="round" stroke-linejoin="round"/>
<path d="M22.7796 24.625L27.8125 28.5109L23.0348 29.2372C22.8489 29.2654 22.6773 29.1317 22.6583 28.9439L22.2518 24.9203C22.2227 24.632 22.5508 24.4483 22.7796 24.625Z" stroke="#91AD37" stroke-width="1.3" stroke-miterlimit="10" stroke-linecap="round" stroke-linejoin="round"/>
<path d="M32.8315 24.625L27.7986 28.5109L32.5763 29.2372C32.7621 29.2654 32.9338 29.1317 32.9528 28.9439L33.3593 24.9203C33.3883 24.632 33.0602 24.4483 32.8315 24.625Z" stroke="#91AD37" stroke-width="1.3" stroke-miterlimit="10" stroke-linecap="round" stroke-linejoin="round"/>
<path d="M27.7986 28.511V38.7719" stroke="#91AD37" stroke-width="1.3" stroke-miterlimit="10" stroke-linecap="round" stroke-linejoin="round"/>
<path d="M34.9855 12.5182C31.3088 13.7766 29.0639 10.8035 29.0639 10.8035C26.2773 13.8382 20.6267 12.3558 20.6267 12.3558" stroke="#91AD37" stroke-width="1.3" stroke-miterlimit="10" stroke-linecap="round" stroke-linejoin="round"/>
<path d="M16.8596 42.37H19.7536C20.217 42.37 20.5928 41.9926 20.5928 41.527V28.7503C20.5928 28.2849 20.2171 27.9075 19.7536 27.9075H11.1519C10.6885 27.9075 10.3127 28.2849 10.3127 28.7503V41.527C10.3127 41.9926 10.6884 42.37 11.1519 42.37H14.0744" stroke="#FF7F57" stroke-width="1.3" stroke-miterlimit="10" stroke-linecap="round" stroke-linejoin="round"/>
<path d="M17.942 33.0818H12.9635C12.7313 33.0818 12.543 32.8935 12.543 32.6613V30.7589C12.543 30.5267 12.7313 30.3384 12.9635 30.3384H17.942C18.1742 30.3384 18.3625 30.5267 18.3625 30.7589V32.6613C18.3625 32.8935 18.1742 33.0818 17.942 33.0818Z" stroke="#FF7F57" stroke-width="1.3" stroke-miterlimit="10" stroke-linecap="round" stroke-linejoin="round"/>
<path d="M12.543 35.2544H13.0347" stroke="#FF7F57" stroke-width="1.3" stroke-miterlimit="10" stroke-linecap="round" stroke-linejoin="round"/>
<path d="M15.2068 35.2544H15.6985" stroke="#FF7F57" stroke-width="1.3" stroke-miterlimit="10" stroke-linecap="round" stroke-linejoin="round"/>
<path d="M17.8708 35.2544H18.3626" stroke="#FF7F57" stroke-width="1.3" stroke-miterlimit="10" stroke-linecap="round" stroke-linejoin="round"/>
<path d="M12.543 37.5134H13.0347" stroke="#FF7F57" stroke-width="1.3" stroke-miterlimit="10" stroke-linecap="round" stroke-linejoin="round"/>
<path d="M15.2068 37.5134H15.6985" stroke="#FF7F57" stroke-width="1.3" stroke-miterlimit="10" stroke-linecap="round" stroke-linejoin="round"/>
<path d="M17.8708 37.5134H18.3626" stroke="#FF7F57" stroke-width="1.3" stroke-miterlimit="10" stroke-linecap="round" stroke-linejoin="round"/>
<path d="M12.543 39.7725H13.0347" stroke="#FF7F57" stroke-width="1.3" stroke-miterlimit="10" stroke-linecap="round" stroke-linejoin="round"/>
<path d="M15.2068 39.7725H15.6985" stroke="#FF7F57" stroke-width="1.3" stroke-miterlimit="10" stroke-linecap="round" stroke-linejoin="round"/>
<path d="M17.8708 39.7725H18.3626" stroke="#FF7F57" stroke-width="1.3" stroke-miterlimit="10" stroke-linecap="round" stroke-linejoin="round"/>
</g>
<defs>
<clipPath id="clip0_30_794">
<rect width="43" height="43" fill="white"/>
</clipPath>
</defs>
</svg>
