<svg width="59" height="58" viewBox="0 0 59 58" fill="none" xmlns="http://www.w3.org/2000/svg">
<g clip-path="url(#clip0_2_4018)">
<path d="M29.5 0C13.2076 0 0 12.9837 0 29C0 45.0163 13.2076 58 29.5 58C45.7924 58 59 45.0163 59 29C59 12.9837 45.7924 0 29.5 0ZM44.9486 42.5301C44.9486 44.8176 43.0622 46.6719 40.7354 46.6719H18.2646C15.9377 46.6719 14.0514 44.8175 14.0514 42.5301V15.4699C14.0514 13.1824 15.9378 11.3281 18.2646 11.3281H29.5C31.8269 11.3281 33.7132 13.1825 33.7132 15.4699V18.2311C33.7132 20.5186 35.5996 22.3729 37.9264 22.3729H40.7354C43.0623 22.3729 44.9486 24.2273 44.9486 26.5147V42.5301Z" fill="#72B52A"/>
<path d="M37.2241 28.7239H21.7755C20.6121 28.7239 19.6689 29.6511 19.6689 30.7948C19.6689 31.9385 20.6121 32.8657 21.7755 32.8657H37.2241C38.3875 32.8657 39.3307 31.9385 39.3307 30.7948C39.3307 29.6511 38.3876 28.7239 37.2241 28.7239Z" fill="#72B52A"/>
<path d="M37.2241 37.0076H21.7755C20.6121 37.0076 19.6689 37.9348 19.6689 39.0785C19.6689 40.2222 20.6121 41.1494 21.7755 41.1494H37.2241C38.3875 41.1494 39.3307 40.2222 39.3307 39.0785C39.3307 37.9348 38.3876 37.0076 37.2241 37.0076Z" fill="#72B52A"/>
</g>
<defs>
<clipPath id="clip0_2_4018">
<rect width="59" height="58" fill="white"/>
</clipPath>
</defs>
</svg>
