<svg width="20" height="20" viewBox="0 0 20 20" fill="none" xmlns="http://www.w3.org/2000/svg">
<g clip-path="url(#clip0_30_533)">
<path d="M9.99799 1.6C10.2313 1.76668 10.4313 1.8 11.0313 1.83332C12.798 1.93332 13.898 2.33332 15.1313 3.23332C16.6646 4.33332 17.6313 5.9 17.9646 7.83332C18.0646 8.33332 18.098 8.76664 18.1313 9.4C18.1646 9.86668 18.1646 10.0333 18.2646 10.2C18.4313 10.4667 18.698 10.6333 18.998 10.6667C19.0313 10.6667 19.0646 10.6667 19.098 10.6667C19.3646 10.6667 19.6313 10.5334 19.7646 10.3C19.998 10.0333 19.998 9.8 19.9646 9.26668C19.898 7.63336 19.5646 6.13336 18.898 4.86668C18.4313 3.96668 17.998 3.36668 17.198 2.6C16.3646 1.8 15.7313 1.33332 14.7313 0.86668C13.698 0.36668 12.9646 0.2 11.8646 0.0666797C11.6647 0.0333203 11.2647 0 10.9647 0C10.4314 0 10.198 0 9.96467 0.23332C9.76467 0.4 9.66467 0.666641 9.66467 0.93332C9.66467 1.2 9.79799 1.43332 9.99799 1.6ZM10.398 0.73332C10.4313 0.7 10.4647 0.666641 10.698 0.666641C10.7647 0.666641 10.8313 0.666641 10.9313 0.666641C11.198 0.666641 11.598 0.699961 11.798 0.73332C12.8313 0.866641 13.498 1 14.4647 1.46664C15.398 1.93332 15.9647 2.33332 16.7647 3.09996C17.498 3.83328 17.898 4.36664 18.3314 5.19996C18.9314 6.39996 19.2647 7.76664 19.3314 9.33328C19.3314 9.83328 19.3314 9.8666 19.2647 9.89996C19.2314 9.96664 19.1314 9.96664 19.0647 9.96664C18.998 9.96664 18.898 9.93332 18.8647 9.86664C18.8314 9.83332 18.8314 9.76664 18.798 9.36664C18.7647 8.69996 18.7313 8.23332 18.6313 7.69996C18.2313 5.56664 17.198 3.86664 15.5313 2.66664C14.198 1.69996 12.9646 1.26664 11.0646 1.16664C10.498 1.13332 10.4646 1.09996 10.398 1.06664C10.3646 1.03332 10.3313 0.966641 10.3313 0.899961C10.3313 0.833281 10.3647 0.76668 10.398 0.73332Z" fill="#71B32A"/>
<path d="M15.4646 8.76667C15.4646 9.23335 15.498 9.66667 15.9646 9.89999C16.098 9.96667 16.2646 9.99999 16.4313 9.99999C16.5646 9.99999 16.7313 9.96667 16.8313 9.89999C16.998 9.83331 17.198 9.59999 17.2646 9.43331C17.3646 9.19999 17.3313 8.33331 17.298 8.09999C17.1646 7.03331 16.798 6.03331 16.2313 5.19999C15.1646 3.66667 13.598 2.76667 11.5646 2.46667C10.8646 2.36667 10.3646 2.33335 10.0646 2.79999C9.83128 3.13331 9.8646 3.59999 10.1313 3.89999C10.3646 4.16667 10.6646 4.19999 10.9646 4.23331C11.7646 4.29999 12.6646 4.56663 13.2646 4.89999C13.9646 5.29999 14.5313 5.89999 14.9313 6.59999C15.2646 7.23331 15.4646 7.99999 15.4646 8.76667ZM13.6313 4.33331C12.9313 3.93331 11.9313 3.66663 10.9646 3.59999C10.6979 3.59999 10.6313 3.53331 10.5979 3.49999C10.5312 3.39999 10.5312 3.29999 10.5979 3.19999C10.6646 3.13331 10.6979 3.06667 11.4646 3.16667C13.3313 3.43335 14.7313 4.23335 15.6646 5.59999C16.1979 6.33331 16.5313 7.23331 16.6313 8.19999C16.698 8.53331 16.6646 9.09999 16.6646 9.19999C16.6313 9.23331 16.5646 9.29999 16.5313 9.33331C16.498 9.33331 16.3313 9.33331 16.298 9.29999C16.2313 9.26667 16.1646 9.23331 16.1646 8.76667C16.1646 7.89999 15.9313 6.96667 15.5313 6.26667C15.098 5.46667 14.4313 4.79999 13.6313 4.33331Z" fill="#71B32A"/>
<path d="M13.6313 5.93333C13.198 5.50001 12.6647 5.23333 11.9647 5.1C11.798 5.06668 11.5313 5.03333 11.3647 5.03333C11.098 5.03333 10.9647 5.03333 10.7647 5.13333C10.5313 5.26665 10.3647 5.50001 10.298 5.76665C10.2313 6.03333 10.3313 6.33333 10.498 6.53333C10.7313 6.76665 10.9313 6.8 11.3647 6.86665C12.098 6.93333 12.498 7.19997 12.7313 7.66665C12.8647 7.89997 12.9313 8.16665 12.9647 8.56665C12.998 8.89997 13.0647 9.13333 13.3313 9.33333C13.498 9.43333 13.698 9.50001 13.898 9.50001C14.1313 9.50001 14.3313 9.43333 14.4313 9.33333C14.7647 9.03333 14.798 8.63333 14.698 8.06665C14.5313 7.13333 14.2313 6.46669 13.6313 5.93333ZM14.0313 8.80001C13.9647 8.86668 13.798 8.86668 13.698 8.80001C13.6647 8.76669 13.6313 8.76669 13.598 8.50001C13.5647 8.06669 13.498 7.73333 13.3313 7.40001C12.998 6.70001 12.398 6.30001 11.4647 6.20001C11.098 6.13333 11.0647 6.13333 11.0313 6.06669C10.998 6.00001 10.998 5.93336 10.998 5.86668C11.0313 5.8 11.0647 5.73336 11.1313 5.7C11.1647 5.66668 11.1647 5.66668 11.2313 5.66668C11.2647 5.66668 11.3313 5.66668 11.3647 5.66668C11.5313 5.70001 11.7647 5.70001 11.8647 5.73336C12.4313 5.86668 12.8647 6.06668 13.2313 6.40004C13.698 6.83336 13.9647 7.36672 14.0647 8.13336C14.1647 8.66669 14.098 8.73333 14.0313 8.80001Z" fill="#71B32A"/>
<path d="M19.6332 15.093C19.3999 14.8223 17.9662 13.6717 17.3328 13.2318C16.8327 12.8934 16.0325 12.4196 15.6658 12.2166C15.1323 11.9458 14.5655 11.912 14.0321 12.0812C13.9321 12.115 13.8321 12.1489 13.7654 12.1827C13.4986 12.3181 13.2986 12.555 12.8985 13.0287C12.4984 13.5363 12.3984 13.6379 12.3984 13.6379C12.3651 13.6717 12.2984 13.7056 12.2317 13.7394H12.1984C11.8983 13.9086 11.3982 13.7732 10.5647 13.3671C9.86458 13.0287 9.23113 12.5888 8.53099 11.9458C7.93087 11.4044 7.33074 10.6937 6.99735 10.1522C6.53058 9.37388 6.23052 8.49404 6.23052 8.08795C6.23052 7.91874 6.29721 7.68186 6.36387 7.58034L6.39719 7.54651C6.39719 7.54651 6.43052 7.51269 6.46389 7.47882C6.59723 7.3773 6.76395 7.24195 6.93066 7.10656C7.6975 6.49742 7.93087 6.26055 8.06421 5.78676C8.19756 5.34685 8.09754 4.83923 7.73082 4.12857C7.1974 3.07952 5.46368 0.846024 4.76354 0.372239C4.66352 0.270717 4.46348 0.169194 4.33013 0.135366C4.03007 1.61492e-05 3.62999 -0.0338511 3.36326 0.0338438C2.9965 0.101539 2.59642 0.338411 1.7296 1.01524C1.2295 1.35364 0.496032 2.06429 0.295992 2.40273C-0.170783 3.21491 -0.0373963 3.89174 0.362685 5.07614C0.762766 6.19289 1.2962 7.30964 1.92968 8.42639L1.96301 8.49408C2.09636 8.69713 2.22974 8.934 2.36309 9.13705L2.39642 9.20474C2.52977 9.40779 2.66315 9.64466 2.7965 9.8477L3.02987 10.1861C3.12989 10.3214 3.19658 10.423 3.2966 10.5584C3.46332 10.7952 3.66336 11.0321 3.83003 11.269C5.76374 13.8071 7.99756 15.8714 10.6314 17.5296L10.7314 17.5973C11.0982 17.8342 11.4983 18.0711 11.9317 18.3079L12.0984 18.4095C12.5318 18.6463 12.9319 18.8494 13.3653 19.0524L13.4987 19.1201C13.9988 19.357 14.4322 19.56 14.8656 19.7293C15.3991 19.9323 15.6325 20 15.9992 20C16.0659 20 16.1325 20 16.1992 20C16.4326 20 16.666 19.9662 16.866 19.8985C17.1661 19.797 17.4328 19.6616 17.7662 19.4247C17.7996 19.3909 17.8662 19.3232 17.9329 19.2893C17.9996 19.2216 18.0997 19.154 18.1663 19.0863C18.5331 18.7817 18.9665 18.3079 19.2999 17.8342C19.4666 17.5973 19.6999 17.2251 19.8333 16.9205C19.9666 16.6498 20 16.3452 20 16.0745C20 15.7021 19.8667 15.3637 19.6332 15.093ZM19.2332 16.6835C19.1665 16.8865 18.9998 17.1573 18.7664 17.4619C18.4663 17.9018 18.0662 18.3079 17.7329 18.6124C17.6662 18.6801 17.5995 18.7478 17.5328 18.7817C17.4661 18.8155 17.4328 18.8493 17.3661 18.8832C17.0994 19.0862 16.866 19.1877 16.666 19.2554C16.4993 19.2893 16.3326 19.3231 16.1659 19.3231C15.7991 19.3231 15.6658 19.3231 15.1323 19.1201C14.7322 18.917 14.2988 18.7478 13.7987 18.511L13.6654 18.4433C13.2653 18.2402 12.8319 18.0372 12.4318 17.8003L12.2651 17.6988C11.865 17.4957 11.4649 17.2589 11.0982 17.0219L10.9982 16.9542C8.39764 15.3299 6.23052 13.3333 4.3635 10.8629C4.19679 10.626 4.03011 10.3891 3.8634 10.1522C3.76338 10.0169 3.66336 9.91536 3.59666 9.77997L3.39662 9.4754C3.22991 9.27236 3.09656 9.06931 2.96321 8.83244L2.92989 8.79861C2.79654 8.59557 2.69652 8.35869 2.56313 8.15565L2.52981 8.08795C1.89636 7.0389 1.39625 5.92215 0.996173 4.83923C0.529399 3.62096 0.596092 3.21487 0.862826 2.74109C0.996173 2.53804 1.62966 1.89508 2.12976 1.55664C2.86319 0.981374 3.26327 0.744462 3.49664 0.710634C3.62999 0.676807 3.93005 0.710634 4.09677 0.778329C4.16346 0.812157 4.29681 0.879852 4.39683 0.947547C4.89693 1.28594 6.56395 3.35026 7.1307 4.43314C7.39744 4.94075 7.49746 5.34684 7.43076 5.58372C7.36407 5.82059 7.29742 5.95598 6.53058 6.56512C6.33054 6.70047 6.16383 6.86968 6.03048 6.97121C5.99715 7.00503 5.96379 7.0389 5.93046 7.07273L5.89713 7.10656C5.8638 7.14038 5.83044 7.14038 5.83044 7.17425L5.79711 7.20808C5.6304 7.41112 5.53038 7.81721 5.53038 8.12178C5.5637 8.73092 5.89713 9.71231 6.39723 10.5245C6.76399 11.0998 7.43076 11.8781 8.06425 12.4534C8.79772 13.1303 9.46454 13.604 10.2314 13.9763C11.2316 14.45 11.865 14.5854 12.3985 14.3824H12.4318L12.4985 14.3485C12.5652 14.3147 12.6652 14.2808 12.6986 14.247C12.7319 14.2132 12.7652 14.2132 12.7986 14.1793C12.8319 14.1455 12.8653 14.1116 13.3987 13.4686C13.7988 12.9949 13.9321 12.8595 14.0655 12.7918C14.0988 12.758 14.1655 12.758 14.2322 12.7241C14.599 12.5888 14.9657 12.6226 15.3658 12.8256C15.6992 13.0287 16.466 13.4686 16.9328 13.807C17.6329 14.2808 18.9665 15.3637 19.0999 15.5329C19.2666 15.7021 19.3333 15.8713 19.3333 16.1082C19.3332 16.2774 19.2999 16.4805 19.2332 16.6835Z" fill="#71B32A"/>
</g>
<defs>
<clipPath id="clip0_30_533">
<rect width="20" height="20" fill="white"/>
</clipPath>
</defs>
</svg>
