<svg width="66" height="65" viewBox="0 0 66 65" fill="none" xmlns="http://www.w3.org/2000/svg">
<g clip-path="url(#clip0_30_1273)">
<mask id="mask0_30_1273" style="mask-type:luminance" maskUnits="userSpaceOnUse" x="0" y="0" width="66" height="65">
<path d="M0.0789795 7.62939e-06H65.079V65H0.0789795V7.62939e-06Z" fill="white"/>
</mask>
<g mask="url(#mask0_30_1273)">
<path d="M50.7967 52.6221C50.7967 50.5186 49.0915 48.8135 46.9882 48.8135H36.8944" stroke="#91AD37" stroke-width="2" stroke-miterlimit="10" stroke-linecap="round" stroke-linejoin="round"/>
<path d="M60.3182 56.4307C60.3182 54.3272 58.613 52.6221 56.5096 52.6221H39.1254" stroke="#91AD37" stroke-width="2" stroke-miterlimit="10" stroke-linecap="round" stroke-linejoin="round"/>
<path d="M4.83972 34.4043V52.4951C4.83972 54.5985 3.13449 56.3037 1.03113 56.3037V34.4043H19.3301C21.4335 34.4043 23.3378 35.2569 24.7163 36.6354L38.0099 49.929C39.4973 51.4163 39.4973 53.8279 38.0099 55.3151C36.5225 56.8025 34.111 56.8025 32.6239 55.3151L19.3301 42.0215" stroke="#91AD37" stroke-width="2" stroke-miterlimit="10" stroke-linecap="round" stroke-linejoin="round"/>
<path d="M4.83972 52.4951L10.5526 50.5908L28.5384 62.7424C29.7978 63.5932 31.2829 64.0479 32.8028 64.0479H60.239C62.3143 64.0479 64.0684 62.4208 64.1253 60.3463C64.1843 58.1939 62.4573 56.4307 60.3182 56.4307H35.3168" stroke="#91AD37" stroke-width="2" stroke-miterlimit="10" stroke-linecap="round" stroke-linejoin="round"/>
<path d="M54.6053 4.76074C54.6053 2.65738 52.9001 0.952148 50.7967 0.952148C48.6934 0.952148 46.9882 2.65738 46.9882 4.76074" stroke="#FF7F57" stroke-width="2" stroke-miterlimit="10" stroke-linecap="round" stroke-linejoin="round"/>
<path d="M47.9403 27.6123V30.4688L48.8925 31.4209V43.1006L50.7967 45.0049L52.701 43.1006V31.4209L53.6532 30.4688V23.8037" stroke="#FF7F57" stroke-width="2" stroke-miterlimit="10" stroke-linecap="round" stroke-linejoin="round"/>
<path d="M54.7323 4.76074H46.8612C44.0567 4.76074 41.7831 7.03435 41.7831 9.83887C41.7831 10.0238 41.7936 10.2063 41.8128 10.386L42.7649 19.2728C43.038 21.8199 45.1937 23.8037 47.8134 23.8037H53.7801C56.3998 23.8037 58.5555 21.8199 58.8286 19.2728L59.7807 10.386C59.7999 10.2063 59.8104 10.0238 59.8104 9.83887C59.8104 7.03435 57.5369 4.76074 54.7323 4.76074Z" stroke="#FF7F57" stroke-width="2" stroke-miterlimit="10" stroke-linecap="round" stroke-linejoin="round"/>
<path d="M50.7967 19.9951V14.2822" stroke="#FF7F57" stroke-width="2" stroke-miterlimit="10" stroke-linecap="round" stroke-linejoin="round"/>
<path d="M55.5328 14.2822H46.0607" stroke="#FF7F57" stroke-width="2" stroke-miterlimit="10" stroke-linecap="round" stroke-linejoin="round"/>
<path d="M47.8134 19.9951C47.1631 19.9951 46.6208 19.5102 46.5518 18.8669L45.5997 9.98029C45.5943 9.93053 45.5917 9.88254 45.5917 9.83887C45.5917 9.13885 46.1612 8.56934 46.8612 8.56934H54.7323C55.4323 8.56934 56.0018 9.13885 56.0018 9.83887C56.0018 9.88292 55.9992 9.93015 55.994 9.97902L55.0417 18.867C54.9727 19.5102 54.4304 19.9951 53.7802 19.9951H47.8134Z" stroke="#FF7F57" stroke-width="2" stroke-miterlimit="10" stroke-linecap="round" stroke-linejoin="round"/>
</g>
</g>
<defs>
<clipPath id="clip0_30_1273">
<rect width="65" height="65" fill="white" transform="translate(0.0789795)"/>
</clipPath>
</defs>
</svg>
