<svg width="65" height="65" viewBox="0 0 65 65" fill="none" xmlns="http://www.w3.org/2000/svg">
<path d="M44.5667 21.0567L41.3663 17.8563C41.1663 17.6563 40.895 17.5439 40.6121 17.5439C40.3292 17.5439 40.0579 17.6563 39.8579 17.8563L27.8105 29.9037L24.2975 26.3907C24.0975 26.1907 23.8262 26.0783 23.5433 26.0783C23.2604 26.0783 22.9891 26.1907 22.7891 26.3907L19.5886 29.5911C19.3887 29.7911 19.2763 30.0624 19.2763 30.3453C19.2763 30.6282 19.3887 30.8995 19.5886 31.0995L27.0563 38.5671C27.2563 38.7671 27.5276 38.8795 27.8105 38.8795C28.0934 38.8795 28.3647 38.7671 28.5647 38.5671L44.5667 22.5651C44.7667 22.3651 44.8791 22.0938 44.8791 21.8109C44.8791 21.528 44.7667 21.2567 44.5667 21.0567ZM27.8105 36.3045L21.8513 30.3453L23.5433 28.6534L27.0563 32.1663C27.2563 32.3663 27.5276 32.4787 27.8105 32.4787C28.0934 32.4787 28.3647 32.3663 28.5647 32.1663L40.6121 20.119L42.304 21.8109L27.8105 36.3045Z" fill="#FF7F57"/>
<path d="M12.0016 43.4787C10.4699 39.6588 9.6803 35.5821 9.67486 31.4665V9.62702C17.6232 9.43013 25.3679 7.07243 32.0777 2.80696C38.7874 7.07243 46.5321 9.43013 54.4805 9.62702V31.4665C54.471 37.2805 52.9031 42.9857 49.9402 47.9881L52.1719 48.3316C55.0706 43.1823 56.6 37.3756 56.6141 31.4665V8.57302C56.6141 8.29008 56.5017 8.01874 56.3016 7.81868C56.1015 7.61861 55.8302 7.50622 55.5473 7.50622C47.6135 7.50377 39.8457 5.23452 33.1583 0.965666L32.6505 0.645626C32.4793 0.536647 32.2806 0.47876 32.0777 0.47876C31.8747 0.47876 31.676 0.536647 31.5048 0.645626L30.997 0.965666C24.3098 5.2349 16.5418 7.50418 8.60806 7.50622C8.32513 7.50622 8.05378 7.61861 7.85372 7.81868C7.65365 8.01874 7.54126 8.29008 7.54126 8.57302V31.4665C7.54866 35.9521 8.43178 40.3931 10.1411 44.5402L12.0016 43.4787Z" fill="#91AD37"/>
<path d="M50.2133 31.4667V14.5568C50.2131 14.298 50.1189 14.0481 49.9482 13.8536C49.7774 13.6591 49.5418 13.5333 49.2851 13.4996C43.4314 12.7312 37.7703 10.8867 32.5876 8.05896C32.4311 7.97381 32.2558 7.9292 32.0777 7.9292C31.8995 7.9292 31.7242 7.97381 31.5677 8.05896C26.3848 10.8871 20.7233 12.7317 14.8691 13.4996C14.6127 13.5335 14.3773 13.6594 14.2068 13.8539C14.0362 14.0484 13.9422 14.2982 13.9421 14.5568V31.4667C13.9462 34.8443 14.5576 38.1936 15.7471 41.3549C16.396 41.059 17.0729 40.8289 17.7676 40.6678C16.6523 37.7282 16.079 34.6108 16.0757 31.4667V15.4807C21.6699 14.6398 27.0808 12.8553 32.0777 10.2032C37.0746 12.8553 42.4854 14.6398 48.0797 15.4807V31.4667C48.0676 36.5533 46.5724 41.5259 43.7773 45.7757L45.6474 46.7955C48.6132 42.232 50.1986 36.9093 50.2133 31.4667Z" fill="#91AD37"/>
<path d="M63.8246 56.2322L62.9775 53.4947C62.9606 53.4394 62.9392 53.3855 62.9135 53.3337C62.5944 52.8443 62.1618 52.4393 61.6525 52.1531C61.1432 51.8669 60.5723 51.7079 59.9883 51.6897L46.4123 49.6041C46.3458 49.5938 46.2815 49.5722 46.2224 49.5401L36.2883 44.1186C32.9507 42.6772 29.3388 41.9814 25.7046 42.08C18.5016 42.08 16.6528 43.2353 15.8634 43.7293L9.93196 47.1249C9.60144 47.3145 9.227 47.4142 8.84596 47.414H5.44607C3.2634 47.414 1.71227 48.8926 1.21194 51.423L0.134473 55.735C0.0431871 56.2306 0.0647403 56.7404 0.197531 57.2265C0.330323 57.7126 0.570939 58.1625 0.901503 58.5428C1.32644 59.0558 1.85721 59.4708 2.45747 59.7595C3.05773 60.0482 3.71329 60.2038 4.37927 60.2156H7.68635C7.93425 61.418 8.58932 62.498 9.54102 63.2735C10.4927 64.049 11.6828 64.4725 12.9105 64.4725C14.1381 64.4725 15.3282 64.049 16.2799 63.2735C17.2316 62.498 17.8867 61.418 18.1346 60.2156H45.0051C45.253 61.418 45.9081 62.498 46.8598 63.2735C47.8115 64.049 49.0016 64.4725 50.2293 64.4725C51.4569 64.4725 52.647 64.049 53.5987 63.2735C54.5504 62.498 55.2055 61.418 55.4534 60.2156H61.2674C61.7389 60.2159 62.2029 60.0978 62.6168 59.872C63.0307 59.6463 63.3812 59.3201 63.6361 58.9235C63.891 58.5269 64.0421 58.0726 64.0756 57.6023C64.1091 57.132 64.0239 56.6609 63.8278 56.2322H63.8246ZM41.6789 49.4932C37.8725 49.4324 32.4382 49.299 26.7671 49.0163V44.2339C29.6868 44.2562 32.5734 44.8536 35.2621 45.9919L41.6789 49.4932ZM16.9942 45.5385C17.5404 45.1972 18.9475 44.3213 24.6378 44.2232V48.9075C20.5573 48.6781 16.4448 48.3677 12.8049 47.9474L16.9942 45.5385ZM12.9094 62.3492C12.2764 62.3492 11.6577 62.1615 11.1314 61.8098C10.6051 61.4582 10.1948 60.9583 9.95262 60.3735C9.71039 59.7887 9.64701 59.1452 9.7705 58.5244C9.89399 57.9036 10.1988 57.3333 10.6464 56.8858C11.094 56.4382 11.6642 56.1334 12.285 56.0099C12.9059 55.8864 13.5493 55.9498 14.1341 56.192C14.7189 56.4342 15.2188 56.8444 15.5704 57.3707C15.9221 57.897 16.1098 58.5158 16.1098 59.1488C16.1098 59.9976 15.7726 60.8116 15.1724 61.4118C14.5722 62.012 13.7582 62.3492 12.9094 62.3492ZM50.2293 62.3492C49.5963 62.3492 48.9775 62.1615 48.4512 61.8098C47.9249 61.4582 47.5147 60.9583 47.2725 60.3735C47.0303 59.7887 46.9669 59.1452 47.0904 58.5244C47.2138 57.9036 47.5187 57.3333 47.9662 56.8858C48.4138 56.4382 48.9841 56.1334 49.6049 56.0099C50.2257 55.8864 50.8692 55.9498 51.454 56.192C52.0388 56.4342 52.5386 56.8444 52.8903 57.3707C53.242 57.897 53.4297 58.5158 53.4297 59.1488C53.4297 59.9976 53.0925 60.8116 52.4923 61.4118C51.8921 62.012 51.0781 62.3492 50.2293 62.3492ZM61.8414 57.7619C61.7811 57.8606 61.6962 57.942 61.595 57.9981C61.4939 58.0542 61.3799 58.0831 61.2642 58.082H55.4502C55.2023 56.8796 54.5472 55.7996 53.5955 55.0241C52.6438 54.2486 51.4537 53.8251 50.2261 53.8251C48.9984 53.8251 47.8083 54.2486 46.8566 55.0241C45.9049 55.7996 45.2499 56.8796 45.0019 58.082H18.1335C17.8856 56.8796 17.2306 55.7996 16.2789 55.0241C15.3271 54.2486 14.1371 53.8251 12.9094 53.8251C11.6817 53.8251 10.4917 54.2486 9.53996 55.0241C8.58825 55.7996 7.93319 56.8796 7.68528 58.082H4.3782C4.02834 58.0701 3.68488 57.9849 3.37007 57.8318C3.05525 57.6788 2.77613 57.4612 2.55078 57.1933C2.42777 57.0622 2.33416 56.9064 2.27621 56.7362C2.21826 56.5661 2.1973 56.3855 2.21473 56.2065L3.2922 51.8945C3.60371 50.3402 4.32806 49.5476 5.44607 49.5476H8.70514C20.553 51.4059 41.0559 51.646 45.9365 51.6812C45.9855 51.6908 59.6608 53.8062 59.6608 53.8062C60.1335 53.8318 60.5894 53.99 60.9762 54.2628L61.8062 56.9416C61.8231 56.9971 61.8449 57.051 61.8713 57.1027C61.9234 57.2058 61.948 57.3207 61.9428 57.4362C61.9376 57.5517 61.9026 57.6639 61.8414 57.7619Z" fill="#91AD37"/>
</svg>
