<svg width="65" height="65" viewBox="0 0 65 65" fill="none" xmlns="http://www.w3.org/2000/svg">
<g clip-path="url(#clip0_30_1332)">
<path d="M52.0175 56.2206L49.6279 49.0506C48.7928 46.5473 46.6622 44.6996 44.065 44.2268L37.1665 42.9716V42.4369C38.367 41.7401 39.4116 40.808 40.2436 39.7045H42.3277C44.0351 39.7045 45.4245 38.3151 45.4245 36.6077V24.2206C45.4245 16.8214 39.4044 10.8013 32.0052 10.8013C24.6059 10.8013 18.5858 16.8214 18.5858 24.2206V31.4464C18.5858 33.4366 20.001 35.1017 21.8777 35.4898C22.4568 38.4565 24.3107 40.9669 26.8439 42.4369V42.9716L19.9443 44.2268C17.3481 44.6996 15.2165 46.5473 14.3825 49.0506L13.9696 50.2903L10.4537 46.7744C10.0511 46.3718 10.0511 45.7164 10.4537 45.3138L14.5311 41.2374L6.87794 33.5842L2.26994 38.1922C0.905292 39.5569 0.153809 41.3716 0.153809 43.3019C0.153809 45.2322 0.905292 47.0459 2.26994 48.4106L16.2209 62.3615C17.5856 63.7262 19.4003 64.4787 21.3306 64.4787C23.2609 64.4787 25.0746 63.7262 26.4072 62.3925L31.4354 57.7855L29.8674 56.2206H52.0175ZM43.36 36.6077C43.36 37.1775 42.8965 37.64 42.3277 37.64H41.4596C41.759 36.9577 41.9861 36.2382 42.1326 35.4898C42.5745 35.3979 42.9812 35.2224 43.36 35.0015V36.6077ZM42.3277 33.224V29.6689C42.9419 30.0271 43.36 30.6857 43.36 31.4464C43.36 32.2072 42.9419 32.8658 42.3277 33.224ZM21.6826 33.224C21.0684 32.8658 20.6503 32.2072 20.6503 31.4464C20.6503 30.6857 21.0684 30.0271 21.6826 29.6689V33.224ZM21.6826 26.2851V27.464C21.3151 27.56 20.9703 27.7045 20.6503 27.8913V24.2206C20.6503 17.96 25.7445 12.8658 32.0052 12.8658C38.2658 12.8658 43.36 17.96 43.36 24.2206V27.8913C43.04 27.7045 42.6952 27.5589 42.3277 27.464V26.2851H41.2955C38.2431 26.2851 35.3734 25.096 33.2139 22.9375L32.0052 21.7288L30.7964 22.9375C28.6369 25.096 25.7672 26.2851 22.7148 26.2851H21.6826ZM23.7471 33.5109V28.3104C26.847 28.0771 29.7373 26.7982 32.0052 24.6418C34.273 26.7982 37.1634 28.0782 40.2632 28.3104V33.5109C40.2632 35.016 39.8524 36.424 39.1463 37.64H32.0052V39.7045H37.4493C35.9938 40.9855 34.0914 41.769 32.0052 41.769C27.4519 41.769 23.7471 38.0642 23.7471 33.5109ZM35.1019 43.3577V43.4062L32.0052 46.5029L28.9084 43.4062V43.3577C29.887 43.6653 30.9265 43.8335 32.0052 43.8335C33.0839 43.8335 34.1234 43.6653 35.1019 43.3577ZM16.3396 49.7029C16.9352 47.9151 18.4578 46.5948 20.3128 46.2562L27.5283 44.9453L32.0052 49.4222L36.481 44.9463L43.6955 46.2573C45.5505 46.5958 47.073 47.9151 47.6686 49.704L49.1541 54.1561H27.8028L23.7822 50.1355L19.3146 54.1768C18.9254 54.568 18.2452 54.568 17.855 54.1768L15.6005 51.9223L16.3396 49.7029ZM6.8769 36.5035L11.6108 41.2374L10.4898 42.3584L5.75587 37.6245L6.8769 36.5035ZM24.9776 60.904C24.0031 61.8764 22.7066 62.4142 21.3285 62.4142C19.9505 62.4142 18.6539 61.8764 17.6785 60.9019L3.72749 46.952C2.75303 45.9775 2.21626 44.681 2.21626 43.3029C2.21626 41.9238 2.75303 40.6273 3.72749 39.6529L4.29523 39.0851L9.02916 43.8191L8.992 43.8562C7.78529 45.064 7.78529 47.0284 8.992 48.2361L16.3943 55.6384C16.9796 56.2227 17.7569 56.5458 18.5848 56.5458C19.4126 56.5458 20.1899 56.2237 20.737 55.6746L20.8145 55.6054L25.5701 60.361L24.9776 60.904ZM27.0937 58.9633L22.3484 54.218L23.712 52.9855L28.449 57.7226L27.0937 58.9633Z" fill="#91AD37"/>
<path d="M60.9084 0.47876H46.4568C44.7494 0.47876 43.36 1.86818 43.36 3.57553V11.8336C43.36 13.541 44.7494 14.9304 46.4568 14.9304H49.2139L48.1466 21.1559L58.1079 14.9304H60.9084C62.6158 14.9304 64.0052 13.541 64.0052 11.8336V3.57553C64.0052 1.86818 62.6158 0.47876 60.9084 0.47876ZM61.9407 11.8336C61.9407 12.4024 61.4772 12.8659 60.9084 12.8659H57.5154L50.9595 16.9629L51.6625 12.8659H46.4568C45.888 12.8659 45.4245 12.4024 45.4245 11.8336V3.57553C45.4245 3.00676 45.888 2.54328 46.4568 2.54328H60.9084C61.4772 2.54328 61.9407 3.00676 61.9407 3.57553V11.8336Z" fill="#FF7F57"/>
<path d="M59.8761 4.60791H47.489V6.67243H59.8761V4.60791Z" fill="#FF7F57"/>
<path d="M55.7471 8.73682H47.489V10.8013H55.7471V8.73682Z" fill="#FF7F57"/>
<path d="M59.8761 8.73682H57.8116V10.8013H59.8761V8.73682Z" fill="#FF7F57"/>
<path d="M32.0052 3.57544C18.5177 3.57544 6.89961 12.905 3.87922 25.9187L1.92309 22.6578L0.152771 23.72L3.78116 29.7659L9.82709 26.1375L8.7649 24.3672L5.96748 26.0456C8.8929 14.1406 19.5984 5.63996 32.0052 5.63996C34.7169 5.63996 37.3925 6.04254 39.9577 6.83737L40.5688 4.86576C37.8054 4.00899 34.9244 3.57544 32.0052 3.57544Z" fill="#FF7F57"/>
<path d="M63.5035 23.3349L57.4576 19.7065L53.8302 25.7535L55.6005 26.8157L57.407 23.8046C58.3577 26.5865 58.8439 29.4965 58.8439 32.4787C58.8439 38.6175 56.7174 44.6191 52.8578 49.3767L54.4609 50.6774C58.6188 45.5533 60.9084 39.0893 60.9084 32.4787C60.9084 29.321 60.3995 26.2376 59.4075 23.2854L62.4413 25.1053L63.5035 23.3349Z" fill="#FF7F57"/>
</g>
<defs>
<clipPath id="clip0_30_1332">
<rect width="64" height="64" fill="white" transform="translate(0.0789795 0.47876)"/>
</clipPath>
</defs>
</svg>
