<svg width="66" height="66" viewBox="0 0 66 66" fill="none" xmlns="http://www.w3.org/2000/svg">
<path d="M41.7196 19.7756C42.8414 19.7756 43.7509 18.8662 43.7509 17.7444C43.7509 16.6226 42.8414 15.7131 41.7196 15.7131C40.5978 15.7131 39.6884 16.6226 39.6884 17.7444C39.6884 18.8662 40.5978 19.7756 41.7196 19.7756Z" fill="#91AD37"/>
<path d="M56.3964 41.442L47.8134 39.2959V38.0376C49.5083 36.766 50.7647 34.9977 51.4077 32.9788H51.8759C52.9533 32.9788 53.9866 32.5507 54.7485 31.7889C55.5103 31.027 55.9384 29.9937 55.9384 28.9163C55.9384 27.8388 55.5103 26.8055 54.7485 26.0436C53.9866 25.2818 52.9533 24.8538 51.8759 24.8538V18.76C51.8772 17.3635 51.4384 16.0022 50.6217 14.8694C49.8051 13.7366 48.6522 12.89 47.3269 12.4499C45.7405 11.9199 44.0788 11.65 42.4062 11.6506H41.033C39.3605 11.6502 37.6989 11.9197 36.1123 12.4489C34.787 12.8893 33.6342 13.7361 32.8176 14.8691C32.001 16.002 31.5621 17.3634 31.5634 18.76V24.8538C30.4859 24.8538 29.4526 25.2818 28.6907 26.0436C27.9289 26.8055 27.5009 27.8388 27.5009 28.9163C27.5009 29.9937 27.9289 31.027 28.6907 31.7889C29.4526 32.5507 30.4859 32.9788 31.5634 32.9788H32.0316C32.6745 34.9977 33.9309 36.766 35.6259 38.0376V39.2959L33.1244 39.9216L32.9964 37.9553C32.8522 36.3251 32.1049 34.8073 30.9006 33.699C29.6964 32.5907 28.1218 31.9717 26.4852 31.9631H12.2665C10.627 31.9728 9.05018 32.5945 7.84528 33.7064C6.64039 34.8183 5.89429 36.3401 5.75328 37.9736L5.55015 41.0855H4.14148C3.34662 41.079 2.58087 41.3842 2.00831 41.9356C1.43576 42.487 1.10196 43.2407 1.07845 44.0352C1.05494 44.8298 1.34359 45.6019 1.88254 46.1862C2.42149 46.7705 3.16787 47.1204 3.96172 47.1609C3.41488 48.0899 3.1263 49.1481 3.12586 50.2261V54.4765C2.53182 54.6831 2.01685 55.0695 1.65242 55.5821C1.28799 56.0947 1.09219 56.7081 1.09219 57.337C1.09219 57.9659 1.28799 58.5793 1.65242 59.0919C2.01685 59.6045 2.53182 59.9909 3.12586 60.1975V61.4C3.12586 62.2081 3.44687 62.9831 4.01827 63.5545C4.58967 64.1259 5.36465 64.4469 6.17273 64.4469H8.20398C9.01206 64.4469 9.78705 64.1259 10.3584 63.5545C10.9298 62.9831 11.2509 62.2081 11.2509 61.4V60.3844H19.3759V63.4475C19.3759 63.7169 19.4829 63.9752 19.6733 64.1657C19.8638 64.3561 20.1221 64.4631 20.3915 64.4631H63.0477C63.3171 64.4631 63.5754 64.3561 63.7659 64.1657C63.9564 63.9752 64.0634 63.7169 64.0634 63.4475V51.26C64.0664 49.0021 63.3129 46.8082 61.9232 45.0286C60.5335 43.249 58.5877 41.9863 56.3964 41.442ZM54.9227 56.4011V62.4319H28.5165V56.4011L30.2248 42.7389L32.579 42.1509V52.2756C32.579 52.545 32.686 52.8033 32.8764 52.9938C33.0669 53.1843 33.3252 53.2913 33.5946 53.2913H49.8446C50.114 53.2913 50.3723 53.1843 50.5628 52.9938C50.7532 52.8033 50.8602 52.545 50.8602 52.2756V42.1509L53.2145 42.7389L54.9227 56.4011ZM16.329 50.2261C15.5294 50.2235 14.7451 50.445 14.0649 50.8654C13.3848 51.2858 12.836 51.8883 12.4808 52.6047L11.6388 54.2886H5.15711V52.2574H8.39898C9.05617 52.2584 9.69353 52.0324 10.2032 51.6175C10.7129 51.2027 11.0636 50.6245 11.196 49.9807C11.3284 49.337 11.2343 48.6673 10.9297 48.085C10.625 47.5027 10.1286 47.0435 9.52429 46.7852L8.32484 46.2713C8.61812 46.202 8.91826 46.1658 9.21961 46.1636H20.7561C20.0311 47.408 19.5809 48.7932 19.4358 50.2261H16.329ZM19.3759 52.2574V54.2886H13.9098L14.2977 53.5137C14.485 53.1353 14.7746 52.817 15.1336 52.5949C15.4927 52.3729 15.9068 52.2559 16.329 52.2574H19.3759ZM6.17781 47.5611L8.72195 48.6519C8.89523 48.7266 9.03747 48.8587 9.12473 49.026C9.21198 49.1933 9.23892 49.3856 9.201 49.5704C9.16307 49.7552 9.06261 49.9214 8.91653 50.0408C8.77045 50.1602 8.58767 50.2257 8.39898 50.2261H5.15711C5.16061 49.243 5.52366 48.2951 6.17781 47.5611ZM37.6571 17.7444C37.6598 16.835 37.9763 15.9544 38.553 15.2512C39.1298 14.5481 39.9315 14.0655 40.8228 13.885L41.7196 13.7022L42.6164 13.8809C43.5084 14.0616 44.3106 14.5448 44.8875 15.2487C45.4643 15.9527 45.7803 16.8343 45.7821 17.7444V22.1197C44.6182 21.9121 43.4382 21.8074 42.2559 21.8069H41.1834C40.001 21.8074 38.8211 21.9121 37.6571 22.1197V17.7444ZM41.1834 23.8381H42.2559C44.6947 23.8425 47.1082 24.3331 49.3551 25.2813L48.8473 26.04C48.6132 26.383 48.2745 26.6411 47.8816 26.7756C47.4888 26.9102 47.0629 26.914 46.6677 26.7865L45.9974 26.5651C43.2191 25.6429 40.2171 25.6429 37.4387 26.5651L36.7654 26.7885C36.3703 26.9144 35.9452 26.9097 35.553 26.7751C35.1608 26.6404 34.8224 26.383 34.5879 26.041L34.0801 25.2824C36.3282 24.3332 38.7431 23.8422 41.1834 23.8381ZM53.9071 28.9163C53.9071 29.455 53.6931 29.9716 53.3122 30.3526C52.9312 30.7335 52.4146 30.9475 51.8759 30.9475H51.8241C51.8583 30.61 51.8755 30.2711 51.8759 29.9319V26.885C52.4146 26.885 52.9312 27.099 53.3122 27.48C53.6931 27.8609 53.9071 28.3775 53.9071 28.9163ZM49.8446 18.76V23.2917C49.1804 23.0228 48.5024 22.7896 47.8134 22.593V17.7444C47.8069 16.5538 47.4424 15.3927 46.7673 14.4121C47.6672 14.7292 48.4465 15.3177 48.9977 16.0965C49.5489 16.8753 49.8448 17.8059 49.8446 18.76ZM36.673 14.4111C35.9969 15.3917 35.632 16.5533 35.6259 17.7444V22.593C34.9368 22.7896 34.2588 23.0228 33.5946 23.2917V18.76C33.5943 17.8056 33.8903 16.8746 34.4417 16.0956C34.9931 15.3166 35.7727 14.728 36.673 14.4111ZM31.5634 30.9475C31.0246 30.9475 30.508 30.7335 30.127 30.3526C29.7461 29.9716 29.5321 29.455 29.5321 28.9163C29.5321 28.3775 29.7461 27.8609 30.127 27.48C30.508 27.099 31.0246 26.885 31.5634 26.885V29.9319C31.5637 30.2711 31.581 30.61 31.6152 30.9475H31.5634ZM33.5946 29.9319V27.9301C34.111 28.3753 34.7326 28.6812 35.4004 28.8186C36.0682 28.956 36.7601 28.9204 37.4103 28.7152L38.0827 28.4907C40.4442 27.7066 42.996 27.7066 45.3576 28.4907L46.0269 28.7131C46.6745 28.9298 47.3675 28.9734 48.0372 28.8396C48.7069 28.7058 49.3299 28.3993 49.8446 27.9504V29.9319C49.8446 32.0868 48.9886 34.1534 47.4648 35.6771C45.9411 37.2009 43.8745 38.0569 41.7196 38.0569C39.5647 38.0569 37.4981 37.2009 35.9744 35.6771C34.4506 34.1534 33.5946 32.0868 33.5946 29.9319ZM41.7196 40.0881C43.1184 40.0883 44.5018 39.7974 45.7821 39.234V39.9632C45.5565 40.87 45.0339 41.6752 44.2977 42.2506C43.5616 42.826 42.654 43.1386 41.7196 43.1386C40.7852 43.1386 39.8777 42.826 39.1415 42.2506C38.4053 41.6752 37.8828 40.87 37.6571 39.9632V39.235C38.9375 39.798 40.3209 40.0886 41.7196 40.0881ZM35.9752 41.3008C36.4399 42.4432 37.2346 43.421 38.2579 44.1095C39.2811 44.7979 40.4863 45.1656 41.7196 45.1656C42.9529 45.1656 44.1581 44.7979 45.1814 44.1095C46.2046 43.421 46.9993 42.4432 47.464 41.3008L48.829 41.642V51.26H34.6102V41.642L35.9752 41.3008ZM28.2016 41.1525C27.4606 40.4592 26.4844 40.0724 25.4696 40.0699C24.3922 40.0699 23.3589 40.4979 22.597 41.2597C21.8351 42.0216 21.4071 43.0549 21.4071 44.1324H9.21961C8.59185 44.1324 7.96791 44.23 7.37015 44.4218L7.7764 38.1249C7.7764 38.1026 7.78656 38.0813 7.78859 38.0589H30.9621C30.9621 38.0752 30.9702 38.0904 30.9712 38.1067L31.1216 40.4243L28.2016 41.1525ZM25.1334 42.1356C24.7292 42.3254 24.338 42.5419 23.9624 42.7836C24.268 42.4411 24.6809 42.2126 25.1334 42.1356ZM12.2665 33.9944H26.4852C27.2275 33.9997 27.9569 34.1878 28.6092 34.5421C29.2614 34.8964 29.8163 35.4059 30.2248 36.0256H8.53C8.9378 35.406 9.49212 34.8964 10.1439 34.5421C10.7956 34.1878 11.5247 33.9997 12.2665 33.9944ZM3.12586 44.1324C3.12586 43.863 3.23286 43.6047 3.42333 43.4142C3.61379 43.2237 3.87212 43.1167 4.14148 43.1167H5.41914L5.28711 45.148H4.14148C3.87212 45.148 3.61379 45.041 3.42333 44.8505C3.23286 44.66 3.12586 44.4017 3.12586 44.1324ZM9.21961 61.398C9.21961 61.6673 9.1126 61.9257 8.92214 62.1161C8.73167 62.3066 8.47334 62.4136 8.20398 62.4136H6.17273C5.90337 62.4136 5.64504 62.3066 5.45458 62.1161C5.26411 61.9257 5.15711 61.6673 5.15711 61.398V60.3824H9.21961V61.398ZM4.14148 58.3511C3.87212 58.3511 3.61379 58.2441 3.42333 58.0536C3.23286 57.8632 3.12586 57.6048 3.12586 57.3355C3.12586 57.0661 3.23286 56.8078 3.42333 56.6173C3.61379 56.4269 3.87212 56.3199 4.14148 56.3199H19.3759V58.3511H4.14148ZM21.4071 51.26C21.405 49.4553 22.0072 47.7019 23.1177 46.2794C24.2282 44.8568 25.7831 43.8471 27.5344 43.4113L28.1112 43.267L26.4934 56.2122C26.4881 56.254 26.4854 56.296 26.4852 56.3381V62.4319H21.4071V51.26ZM62.0321 62.4319H56.954V56.3381C56.9538 56.296 56.9511 56.254 56.9459 56.2122L55.329 43.267L55.9059 43.4113C57.6569 43.8473 59.2116 44.8571 60.3219 46.2796C61.4322 47.7021 62.0343 49.4555 62.0321 51.26V62.4319Z" fill="#91AD37"/>
<path d="M50.8602 58.3694H32.579V60.4006H50.8602V58.3694Z" fill="#91AD37"/>
<path d="M28.3459 3.07368C28.4479 2.92073 28.5065 2.74294 28.5154 2.55928C28.5244 2.37563 28.4833 2.193 28.3965 2.03087C28.3098 1.86875 28.1806 1.73322 28.0229 1.63873C27.8652 1.54425 27.6847 1.49436 27.5009 1.49438H25.4696C24.1233 1.496 22.8326 2.03153 21.8806 2.98351C20.9286 3.9355 20.3931 5.2262 20.3915 6.57251V9.19892L11.846 17.7444H9.2196C7.8733 17.746 6.58259 18.2815 5.63061 19.2335C4.67863 20.1855 4.14309 21.4762 4.14148 22.8225V24.8538C4.14145 25.0376 4.19134 25.2181 4.28583 25.3758C4.38031 25.5335 4.51584 25.6627 4.67797 25.7494C4.84009 25.8362 5.02272 25.8773 5.20638 25.8683C5.39003 25.8594 5.56782 25.8008 5.72078 25.6988L8.17859 24.0606C8.39619 23.9143 8.65273 23.8368 8.91492 23.8381C9.0883 23.8381 9.25999 23.8723 9.42018 23.9386C9.58037 24.005 9.72592 24.1022 9.84852 24.2248C9.97112 24.3474 10.0684 24.493 10.1347 24.6532C10.2011 24.8134 10.2352 24.9851 10.2352 25.1584C10.2359 25.4196 10.1585 25.675 10.0128 25.8917L8.3746 28.3495C8.27173 28.5025 8.21244 28.6806 8.20309 28.8647C8.19374 29.0489 8.23468 29.2321 8.32152 29.3947C8.40837 29.5573 8.53784 29.6932 8.69605 29.7879C8.85426 29.8825 9.03525 29.9323 9.2196 29.9319H11.2509C12.5972 29.9303 13.8879 29.3947 14.8398 28.4428C15.7918 27.4908 16.3274 26.2001 16.329 24.8538V22.2274L24.8744 13.6819H27.5009C28.8472 13.6803 30.1379 13.1447 31.0899 12.1928C32.0418 11.2408 32.5774 9.95007 32.579 8.60376V6.57251C32.579 6.38864 32.5291 6.20821 32.4346 6.05047C32.3401 5.89273 32.2046 5.7636 32.0425 5.67686C31.8804 5.59011 31.6977 5.54901 31.5141 5.55793C31.3304 5.56685 31.1526 5.62546 30.9997 5.72751L28.5419 7.36571C28.3243 7.51197 28.0677 7.58946 27.8055 7.58813C27.4554 7.58813 27.1195 7.44903 26.8719 7.20142C26.6243 6.95382 26.4852 6.61799 26.4852 6.26782C26.4845 6.00667 26.562 5.75129 26.7077 5.53454L28.3459 3.07368ZM27.8055 9.61938C28.468 9.62049 29.1157 9.42426 29.6662 9.05571L30.5477 8.4697V8.60376C30.5477 9.41184 30.2267 10.1868 29.6553 10.7582C29.0839 11.3296 28.3089 11.6506 27.5009 11.6506H24.454C24.1846 11.6507 23.9264 11.7577 23.7359 11.9482L14.5953 21.0888C14.4048 21.2793 14.2978 21.5375 14.2977 21.8069V24.8538C14.2977 25.6618 13.9767 26.4368 13.4053 27.0082C12.8339 27.5796 12.0589 27.9006 11.2509 27.9006H11.1168L11.7028 27.0221C12.1366 26.3773 12.3327 25.6017 12.2577 24.8282C12.1827 24.0546 11.8413 23.3312 11.2917 22.7816C10.7422 22.2321 10.0187 21.8906 9.2452 21.8156C8.47167 21.7406 7.69611 21.9368 7.05124 22.3706L6.17273 22.9566V22.8225C6.17273 22.0144 6.49374 21.2394 7.06514 20.668C7.63654 20.0966 8.41152 19.7756 9.2196 19.7756H12.2665C12.5358 19.7756 12.7941 19.6685 12.9845 19.4781L22.1252 10.3374C22.3156 10.147 22.4227 9.88872 22.4227 9.61938V6.57251C22.4227 5.76443 22.7437 4.98944 23.3151 4.41804C23.8865 3.84664 24.6615 3.52563 25.4696 3.52563H25.6037L25.0177 4.40415C24.68 4.90889 24.4858 5.4959 24.4558 6.10245C24.4258 6.709 24.5612 7.3123 24.8475 7.84787C25.1338 8.38344 25.5603 8.83115 26.0813 9.14317C26.6023 9.4552 27.1983 9.6198 27.8055 9.61938Z" fill="#FF7F57"/>
</svg>
