<svg width="71" height="71" viewBox="0 0 71 71" fill="none" xmlns="http://www.w3.org/2000/svg">
<path d="M64.2467 14.5467L65.92 16.22L70.6533 11.4866C70.8751 11.2647 70.9997 10.9638 70.9997 10.65C70.9997 10.3362 70.8751 10.0353 70.6533 9.81341L65.92 5.08008L64.2467 6.75331L66.9601 9.46669H53.25V11.8334H66.9601L64.2467 14.5467Z" fill="#71B32A"/>
<path d="M57.1467 25.6868L58.82 24.0135L56.1066 21.3002H69.8167V18.9335H56.1066L58.82 16.2201L57.1467 14.5469L52.4134 19.2802C52.1915 19.5021 52.0669 19.803 52.0669 20.1168C52.0669 20.4306 52.1915 20.7315 52.4134 20.9534L57.1467 25.6868Z" fill="#71B32A"/>
<path d="M69.6155 34.5178C68.7767 33.6763 67.6507 33.183 66.4634 33.1369C65.276 33.0908 64.1152 33.4953 63.2137 34.2693C62.7998 33.5635 62.2086 32.9781 61.4987 32.5713C60.7888 32.1644 59.9849 31.9503 59.1667 31.95C58.6374 31.9425 58.1115 32.0349 57.6165 32.2222C57.068 32.4159 56.5619 32.7132 56.1255 33.0978C55.7091 32.3908 55.116 31.8041 54.4044 31.3954C53.6928 30.9868 52.8872 30.7701 52.0667 30.7667C51.2339 30.7691 50.4169 30.9938 49.7 31.4175V11.8333C49.7 10.578 49.2013 9.37403 48.3136 8.48636C47.426 7.59869 46.222 7.1 44.9667 7.1C44.1339 7.10241 43.3169 7.32709 42.6 7.75083V3.55C42.5972 2.60935 42.2223 1.70802 41.5571 1.04287C40.892 0.377728 39.9907 0.00280934 39.05 0H10.65C9.70934 0.00280934 8.80802 0.377728 8.14287 1.04287C7.47773 1.70802 7.10281 2.60935 7.1 3.55V27.2167H5.91667C4.34747 27.2167 2.84254 27.84 1.73295 28.9496C0.623361 30.0592 0 31.5641 0 33.1333V37.9732L2.36667 62.7758V69.8167C2.36667 70.1305 2.49134 70.4315 2.71326 70.6534C2.93518 70.8753 3.23616 71 3.55 71H29.5833C29.8972 71 30.1982 70.8753 30.4201 70.6534C30.642 70.4315 30.7667 70.1305 30.7667 69.8167V63.0953L35.1687 56.8H37.7128L39.05 60.5512V69.8167C39.05 70.1305 39.1747 70.4315 39.3966 70.6534C39.6185 70.8753 39.9195 71 40.2333 71H63.9C64.2138 71 64.5148 70.8753 64.7367 70.6534C64.9587 70.4315 65.0833 70.1305 65.0833 69.8167V60.5512L70.5148 45.3335C70.8345 44.4411 70.9986 43.5005 71 42.5527V37.8667C71.0005 37.2449 70.8785 36.6291 70.6409 36.0545C70.4034 35.4799 70.0549 34.9577 69.6155 34.5178ZM28.4 68.6333H4.73333V63.9H28.4V68.6333ZM28.968 61.5333H4.62683L2.36667 37.8667V33.1333C2.36948 32.1927 2.74439 31.2914 3.40954 30.6262C4.07469 29.9611 4.97601 29.5861 5.91667 29.5833H14.2C15.1415 29.5833 16.0445 29.9573 16.7102 30.6231C17.376 31.2889 17.75 32.1918 17.75 33.1333C17.75 34.0749 17.376 34.9778 16.7102 35.6436C16.0445 36.3093 15.1415 36.6833 14.2 36.6833H8.28333C7.96949 36.6833 7.66851 36.808 7.44659 37.0299C7.22467 37.2518 7.1 37.5528 7.1 37.8667V53.25C7.10281 54.1907 7.47773 55.092 8.14287 55.7571C8.80802 56.4223 9.70934 56.7972 10.65 56.8H32.2813L28.968 61.5333ZM10.65 54.4333C10.3362 54.4333 10.0352 54.3087 9.81326 54.0867C9.59134 53.8648 9.46667 53.5638 9.46667 53.25V49.7H30.7667V47.3333H9.46667V39.05H14.2C15.7692 39.05 17.2741 38.4266 18.3837 37.317C19.4933 36.2075 20.1167 34.7025 20.1167 33.1333C20.1167 31.5641 19.4933 30.0592 18.3837 28.9496C17.2741 27.84 15.7692 27.2167 14.2 27.2167H9.46667V3.55C9.46667 3.23616 9.59134 2.93518 9.81326 2.71326C10.0352 2.49134 10.3362 2.36667 10.65 2.36667H39.05C39.3638 2.36667 39.6648 2.49134 39.8867 2.71326C40.1087 2.93518 40.2333 3.23616 40.2333 3.55V27.8793C39.5148 27.448 38.6929 27.219 37.8548 27.2167C36.6036 27.2198 35.4045 27.7182 34.5197 28.603C33.6349 29.4878 33.1365 30.6869 33.1333 31.9382V42.5527C33.1357 43.5043 33.2998 44.4486 33.6185 45.3453L36.8608 54.4333H10.65ZM44.9667 68.6333H41.4167V61.5333H44.9667V68.6333ZM50.8833 68.6333H47.3333V61.5333H50.8833V68.6333ZM56.8 68.6333H53.25V61.5333H56.8V68.6333ZM62.7167 68.6333H59.1667V61.5333H62.7167V68.6333ZM68.6333 42.5527C68.6319 43.2299 68.5159 43.9021 68.2902 44.5407L63.0717 59.1667H41.0617L35.8432 44.5525C35.6184 43.9096 35.5024 43.2337 35.5 42.5527V31.9382C35.5016 31.3105 35.7524 30.7091 36.1974 30.2664C36.6423 29.8237 37.2449 29.5758 37.8726 29.5774C38.5003 29.579 39.1016 29.8298 39.5443 30.2748C39.9871 30.7197 40.2349 31.3223 40.2333 31.95V41.4167H42.6V11.8333C42.6046 11.2071 42.8555 10.6078 43.2983 10.165C43.7411 9.72215 44.3404 9.47131 44.9667 9.46667C45.5938 9.46854 46.1946 9.71848 46.6381 10.1619C47.0815 10.6053 47.3315 11.2062 47.3333 11.8333V41.4167H49.7V35.5C49.7046 34.8738 49.9555 34.2745 50.3983 33.8316C50.8411 33.3888 51.4404 33.138 52.0667 33.1333C52.6938 33.1352 53.2947 33.3852 53.7381 33.8286C54.1815 34.272 54.4315 34.8729 54.4333 35.5V41.4167H56.8V36.6833C56.8002 36.3729 56.862 36.0655 56.9819 35.7791C57.1017 35.4927 57.2772 35.2329 57.4982 35.0148C57.7484 34.7508 58.0621 34.5553 58.4093 34.4468C58.6522 34.3596 58.9086 34.3155 59.1667 34.3167C59.7938 34.3185 60.3946 34.5685 60.8381 35.0119C61.2815 35.4553 61.5315 36.0562 61.5333 36.6833V42.6H63.9V37.8667C63.9019 37.2396 64.1518 36.6387 64.5952 36.1952C65.0387 35.7518 65.6396 35.5019 66.2667 35.5C66.8929 35.5046 67.4922 35.7555 67.935 36.1983C68.3778 36.6411 68.6287 37.2404 68.6333 37.8667V42.5527Z" fill="#71B32A"/>
<path d="M24.85 4.7334C22.5096 4.7334 20.2217 5.42741 18.2758 6.72767C16.3298 8.02794 14.8131 9.87605 13.9174 12.0383C13.0218 14.2006 12.7875 16.5799 13.244 18.8753C13.7006 21.1707 14.8276 23.2792 16.4826 24.9342C18.1375 26.5891 20.246 27.7161 22.5414 28.1727C24.8369 28.6293 27.2162 28.3949 29.3784 27.4993C31.5407 26.6037 33.3888 25.087 34.6891 23.141C35.9893 21.195 36.6833 18.9071 36.6833 16.5667C36.6783 13.4299 35.43 10.4229 33.2119 8.20483C30.9938 5.98674 27.9869 4.73841 24.85 4.7334ZM24.85 26.0334C22.9777 26.0334 21.1474 25.4782 19.5906 24.438C18.0338 23.3978 16.8205 21.9193 16.1039 20.1895C15.3874 18.4597 15.2 16.5562 15.5652 14.7199C15.9305 12.8835 16.8321 11.1967 18.1561 9.87279C19.48 8.54885 21.1668 7.64724 23.0031 7.28196C24.8395 6.91669 26.7429 7.10416 28.4727 7.82067C30.2025 8.53718 31.681 9.75055 32.7212 11.3073C33.7615 12.8641 34.3167 14.6944 34.3167 16.5667C34.3132 19.0764 33.3147 21.4823 31.5401 23.2569C29.7655 25.0315 27.3597 26.03 24.85 26.0334Z" fill="#FF7F57"/>
<path d="M28.4 18.9332C28.3962 19.6652 28.167 20.3783 27.7435 20.9754C27.3201 21.5725 26.7229 22.0246 26.0333 22.2702V23.6666H23.6667V22.2702C22.9771 22.0246 22.3799 21.5725 21.9565 20.9754C21.533 20.3783 21.3038 19.6652 21.3 18.9332H23.6667C23.6667 19.1673 23.7361 19.396 23.8661 19.5906C23.9961 19.7852 24.1809 19.9369 24.3972 20.0265C24.6134 20.116 24.8513 20.1395 25.0809 20.0938C25.3104 20.0482 25.5213 19.9355 25.6867 19.77C25.8522 19.6045 25.9649 19.3936 26.0106 19.1641C26.0563 18.9345 26.0328 18.6966 25.9433 18.4804C25.8537 18.2642 25.702 18.0793 25.5074 17.9493C25.3128 17.8193 25.084 17.7499 24.85 17.7499C24.0175 17.7434 23.2137 17.4446 22.5792 16.9056C21.9447 16.3665 21.5198 15.6217 21.3788 14.8011C21.2378 13.9806 21.3897 13.1366 21.8079 12.4168C22.2261 11.6969 22.884 11.1469 23.6667 10.8629V9.46655H26.0333V10.8629C26.7229 11.1085 27.3201 11.5606 27.7435 12.1577C28.167 12.7548 28.3962 13.4679 28.4 14.1999H26.0333C26.0333 13.9658 25.9639 13.7371 25.8339 13.5425C25.7039 13.3479 25.5191 13.1962 25.3028 13.1066C25.0866 13.0171 24.8487 12.9936 24.6191 13.0393C24.3896 13.0849 24.1788 13.1977 24.0133 13.3631C23.8478 13.5286 23.7351 13.7395 23.6894 13.969C23.6437 14.1986 23.6672 14.4365 23.7567 14.6527C23.8463 14.869 23.998 15.0538 24.1926 15.1838C24.3872 15.3138 24.616 15.3832 24.85 15.3832C25.7907 15.386 26.692 15.7609 27.3571 16.4261C28.0223 17.0912 28.3972 17.9926 28.4 18.9332Z" fill="#FF7F57"/>
</svg>
