<svg width="79" height="79" viewBox="0 0 79 79" fill="none" xmlns="http://www.w3.org/2000/svg">
<g clip-path="url(#clip0_1_51)">
<path d="M18.0087 44.5691C15.4849 44.1982 12.9436 43.957 10.3951 43.8466C9.27756 43.7775 7.80454 44.3601 7.54943 47.1778C7.50184 47.8863 7.57021 48.5979 7.75187 49.2844C7.92115 50.0013 8.30278 50.6505 8.84689 51.147C9.39099 51.6435 10.0722 51.9644 10.8016 52.0675L21.6954 53.6014C21.7498 53.6104 21.8048 53.6148 21.86 53.6146C22.0727 53.6148 22.282 53.56 22.4673 53.4555C22.6527 53.351 22.8079 53.2003 22.9178 53.0181C23.0278 52.836 23.0888 52.6285 23.0949 52.4158C23.1011 52.2031 23.0521 51.9924 22.9528 51.8042C19.3698 44.9888 18.4514 44.7057 18.0087 44.5691ZM11.1456 49.6235C10.9063 49.5869 10.6835 49.4793 10.5059 49.3147C10.3284 49.1501 10.2044 48.936 10.1499 48.7002C10.035 48.2774 9.98726 47.8392 10.0083 47.4016C10.0122 47.0269 10.097 46.6575 10.2568 46.3186H10.2914C13.1058 46.4947 16.2707 46.7498 17.1282 46.9013C18.0548 48.1412 18.8835 49.4514 19.6068 50.82L11.1456 49.6235Z" fill="#71B32A"/>
<path d="M68.6033 43.8466C66.0547 43.9571 63.5135 44.1982 60.9897 44.5691C60.5469 44.7057 59.6269 44.9888 56.039 51.8108C55.9397 51.999 55.8907 52.2097 55.8968 52.4224C55.903 52.6351 55.964 52.8426 56.0739 53.0247C56.1839 53.2069 56.3391 53.3576 56.5245 53.4621C56.7098 53.5666 56.919 53.6214 57.1318 53.6212C57.187 53.6214 57.242 53.617 57.2964 53.608L68.1902 52.0741C68.9195 51.971 69.6008 51.6501 70.1449 51.1536C70.689 50.6571 71.0706 50.0079 71.2399 49.291C71.421 48.6044 71.4894 47.8929 71.4423 47.1844C71.1922 44.3601 69.7109 43.7791 68.6033 43.8466ZM68.8485 48.7002C68.794 48.936 68.6699 49.1501 68.4924 49.3147C68.3149 49.4793 68.0921 49.5869 67.8528 49.6235L59.3915 50.8151C60.1153 49.4471 60.9434 48.137 61.8685 46.8963C62.7408 46.7433 65.909 46.4882 68.7218 46.3137C68.9012 46.648 68.9935 47.0222 68.99 47.4016C69.0112 47.8392 68.9634 48.2774 68.8485 48.7002Z" fill="#71B32A"/>
<path d="M56.587 45.7181C56.4627 45.5404 56.2938 45.3986 56.0974 45.3068C55.901 45.2149 55.6839 45.1763 55.4679 45.1947C55.3543 45.2046 44.0162 46.1822 39.5033 46.1822C34.9904 46.1822 23.6506 45.1947 23.5387 45.1947C23.3226 45.1757 23.1052 45.214 22.9087 45.3058C22.7121 45.3977 22.5432 45.5398 22.4192 45.7178C22.2951 45.8958 22.2202 46.1034 22.2021 46.3196C22.1839 46.5358 22.2232 46.753 22.3158 46.9492L25.5664 53.8468C25.6614 54.0473 25.8085 54.2186 25.9924 54.3428C26.1762 54.467 26.39 54.5395 26.6115 54.5529L39.4967 55.2902L52.4017 54.5529C52.6232 54.5399 52.8372 54.4674 53.0211 54.3432C53.205 54.219 53.352 54.0475 53.4468 53.8468L56.6973 46.9492C56.7893 46.7525 56.8275 46.535 56.8081 46.3188C56.7887 46.1025 56.7125 45.8953 56.587 45.7181ZM51.5212 52.1368L39.5 52.8314L27.4854 52.1368L25.4594 47.8379C29.0127 48.1276 36.0569 48.6608 39.5049 48.6608C42.9529 48.6608 49.9988 48.1276 53.5538 47.8379L51.5212 52.1368Z" fill="#71B32A"/>
<path d="M46.5952 8.21928L48.4155 8.90065C49.0106 9.12315 49.5512 9.4707 50.0006 9.91985C50.4501 10.369 50.7979 10.9093 51.0208 11.5044L51.7022 13.3312C51.7911 13.5648 51.9489 13.7658 52.1546 13.9076C52.3604 14.0495 52.6044 14.1254 52.8543 14.1254C53.1042 14.1254 53.3482 14.0495 53.5539 13.9076C53.7597 13.7658 53.9175 13.5648 54.0064 13.3312L54.6877 11.5109C54.9109 10.9163 55.2587 10.3764 55.7078 9.92729C56.1569 9.4782 56.6969 9.1304 57.2915 8.90723L59.1117 8.22586C59.3453 8.13696 59.5463 7.97917 59.6881 7.77342C59.83 7.56767 59.9059 7.32367 59.9059 7.07377C59.9059 6.82388 59.83 6.57988 59.6881 6.37413C59.5463 6.16838 59.3453 6.01059 59.1117 5.92169L57.2915 5.24032C56.6964 5.01744 56.1561 4.66955 55.7069 4.22011C55.2578 3.77067 54.9102 3.23014 54.6877 2.63496L54.0129 0.801504C53.924 0.567954 53.7663 0.366939 53.5605 0.225107C53.3548 0.0832746 53.1108 0.00732422 52.8609 0.00732422C52.611 0.00732422 52.367 0.0832746 52.1612 0.225107C51.9555 0.366939 51.7977 0.567954 51.7088 0.801504L51.0208 2.6218C50.7983 3.21697 50.4508 3.75751 50.0016 4.20695C49.5525 4.65639 49.0121 5.00428 48.4171 5.22715L46.5968 5.90853C46.3633 5.99743 46.1623 6.15521 46.0204 6.36096C45.8786 6.56671 45.8026 6.81071 45.8026 7.06061C45.8026 7.31051 45.8786 7.5545 46.0204 7.76025C46.1623 7.966 46.3633 8.12379 46.5968 8.21269L46.5952 8.21928ZM52.8576 4.49805C53.4681 5.56674 54.3535 6.45265 55.4218 7.0639C54.3531 7.6747 53.4677 8.56071 52.8576 9.62975C52.246 8.56124 51.3602 7.67543 50.2917 7.0639C51.3602 6.45237 52.246 5.56656 52.8576 4.49805Z" fill="#FF7F57"/>
<path d="M60.4729 15.8807L61.8521 16.3975C62.2631 16.5518 62.6363 16.7923 62.9466 17.1029C63.2569 17.4135 63.4971 17.7869 63.651 18.198L64.1678 19.5773C64.2558 19.8128 64.4137 20.0158 64.6204 20.1592C64.827 20.3025 65.0725 20.3793 65.3239 20.3793C65.5754 20.3793 65.8209 20.3025 66.0275 20.1592C66.2342 20.0158 66.3921 19.8128 66.4802 19.5773L66.9953 18.198C67.1495 17.7868 67.3899 17.4133 67.7005 17.1027C68.0111 16.7921 68.3846 16.5517 68.7958 16.3975L70.175 15.8807C70.4079 15.7911 70.6082 15.6331 70.7494 15.4274C70.8907 15.2218 70.9663 14.9781 70.9663 14.7286C70.9663 14.4791 70.8907 14.2355 70.7494 14.0298C70.6082 13.8242 70.4079 13.6661 70.175 13.5765L68.7958 13.0532C68.3849 12.9001 68.0116 12.6603 67.7015 12.3502C67.3914 12.0401 67.1517 11.6669 66.9986 11.2559L66.4802 9.87507C66.3921 9.63952 66.2342 9.43649 66.0275 9.29315C65.8209 9.14981 65.5754 9.073 65.3239 9.073C65.0725 9.073 64.827 9.14981 64.6204 9.29315C64.4137 9.43649 64.2558 9.63952 64.1678 9.87507L63.651 11.2559C63.497 11.6669 63.2568 12.0401 62.9465 12.3504C62.6362 12.6607 62.263 12.9009 61.8521 13.0548L60.4712 13.5716C60.2377 13.6605 60.0366 13.8183 59.8948 14.024C59.753 14.2298 59.677 14.4738 59.677 14.7237C59.677 14.9736 59.753 15.2176 59.8948 15.4233C60.0366 15.6291 60.2377 15.7869 60.4712 15.8758L60.4729 15.8807ZM65.3231 13.3313C65.6988 13.8732 66.1687 14.3431 66.7106 14.7188C66.1699 15.0951 65.7001 15.5643 65.3231 16.1045C64.9471 15.564 64.4779 15.0947 63.9373 14.7188C64.4787 14.3431 64.9481 13.8731 65.3231 13.3313Z" fill="#FF7F57"/>
<path d="M68.1836 8.21922L69.5628 8.73601C69.9736 8.88975 70.3467 9.1297 70.657 9.43971C70.9673 9.74972 71.2076 10.1226 71.3617 10.5333L71.8785 11.9125C71.9666 12.148 72.1245 12.351 72.3311 12.4944C72.5377 12.6377 72.7832 12.7145 73.0347 12.7145C73.2862 12.7145 73.5316 12.6377 73.7383 12.4944C73.9449 12.351 74.1028 12.148 74.1909 11.9125L74.7077 10.5333C74.8612 10.1224 75.1011 9.74915 75.4111 9.43883C75.7212 9.12851 76.0942 8.88829 76.5049 8.73436L77.8858 8.21757C78.1193 8.12867 78.3203 7.97089 78.4622 7.76514C78.604 7.55939 78.6799 7.31539 78.6799 7.06549C78.6799 6.81559 78.604 6.57159 78.4622 6.36584C78.3203 6.16009 78.1193 6.00231 77.8858 5.91341L76.5066 5.39497C76.0959 5.24132 75.723 5.00138 75.4129 4.69134C75.1029 4.3813 74.863 4.00838 74.7093 3.59772L74.1925 2.21686C74.1044 1.98131 73.9465 1.77828 73.7399 1.63494C73.5333 1.4916 73.2878 1.41479 73.0363 1.41479C72.7848 1.41479 72.5394 1.4916 72.3327 1.63494C72.1261 1.77828 71.9682 1.98131 71.8801 2.21686L71.3633 3.59772C71.2094 4.00848 70.9692 4.38146 70.6589 4.6915C70.3485 5.00154 69.9753 5.24142 69.5644 5.39497L68.1836 5.91341C67.95 6.00231 67.749 6.16009 67.6072 6.36584C67.4654 6.57159 67.3894 6.81559 67.3894 7.06549C67.3894 7.31539 67.4654 7.55939 67.6072 7.76514C67.749 7.97089 67.95 8.12867 68.1836 8.21757V8.21922ZM73.0339 5.67805C73.4107 6.21791 73.8798 6.68703 74.4196 7.06384C73.8798 7.44066 73.4107 7.90978 73.0339 8.44964C72.6579 7.90909 72.1886 7.43983 71.6481 7.06384C72.1883 6.68743 72.6574 6.21824 73.0339 5.67805Z" fill="#FF7F57"/>
<path d="M75.3973 69.7356C75.0699 69.7356 74.7559 69.8657 74.5244 70.0972C74.2929 70.3286 74.1629 70.6426 74.1629 70.97V76.0951C74.1629 76.2108 74.1169 76.3217 74.0351 76.4035C73.9533 76.4853 73.8424 76.5313 73.7267 76.5313H67.3146C67.1989 76.5313 67.088 76.4853 67.0062 76.4035C66.9244 76.3217 66.8784 76.2108 66.8784 76.0951V73.9819C66.8784 73.6545 66.7484 73.3405 66.5169 73.109C66.2854 72.8775 65.9714 72.7475 65.644 72.7475C65.3167 72.7475 65.0027 72.8775 64.7712 73.109C64.5397 73.3405 64.4097 73.6545 64.4097 73.9819V76.0951C64.4105 76.8653 64.7169 77.6036 65.2615 78.1482C65.806 78.6928 66.5444 78.9991 67.3146 79H73.7333C74.5035 78.9991 75.2418 78.6928 75.7864 78.1482C76.331 77.6036 76.6373 76.8653 76.6382 76.0951V70.97C76.6382 70.8073 76.6061 70.6463 76.5436 70.4961C76.4812 70.3459 76.3897 70.2095 76.2743 70.0948C76.159 69.9801 76.0222 69.8893 75.8716 69.8277C75.7211 69.766 75.5599 69.7347 75.3973 69.7356Z" fill="#71B32A"/>
<path d="M13.2687 72.7458C12.9413 72.7458 12.6274 72.8759 12.3959 73.1074C12.1644 73.3389 12.0343 73.6528 12.0343 73.9802V76.0935C12.0343 76.2088 11.9886 76.3195 11.9072 76.4013C11.8257 76.483 11.7152 76.5292 11.5998 76.5296H5.18108C5.06569 76.5292 4.95518 76.483 4.87374 76.4013C4.79231 76.3195 4.74658 76.2088 4.74658 76.0935V70.97C4.74658 70.6426 4.61653 70.3286 4.38504 70.0971C4.15355 69.8657 3.83958 69.7356 3.51221 69.7356C3.18483 69.7356 2.87086 69.8657 2.63937 70.0971C2.40788 70.3286 2.27783 70.6426 2.27783 70.97V76.0951C2.27827 76.8645 2.58378 77.6024 3.12739 78.1469C3.671 78.6915 4.40835 78.9983 5.17779 79H11.5965C12.3665 78.9991 13.1047 78.6927 13.6491 78.1481C14.1934 77.6035 14.4994 76.8651 14.4998 76.0951V73.9818C14.5002 73.6548 14.3708 73.3409 14.14 73.1091C13.9092 72.8774 13.5958 72.7467 13.2687 72.7458Z" fill="#71B32A"/>
<path d="M76.4144 31.0323L72.2998 30.3213C71.6987 30.2104 71.0776 30.3076 70.5391 30.5969C70.0006 30.8862 69.5767 31.3503 69.3373 31.9128L69.1151 32.4066L66.1987 25.527C65.5395 23.9495 64.4873 22.5672 63.1424 21.5116C61.7976 20.456 60.2049 19.7623 58.516 19.4966C52.2229 18.5413 45.8651 18.0758 39.5 18.1043C33.1348 18.0763 26.7771 18.5424 20.4841 19.4983C18.7954 19.7638 17.2027 20.4572 15.8579 21.5125C14.5131 22.5678 13.4608 23.9499 12.8013 25.527L9.87501 32.4131L9.66764 31.9293C9.43011 31.3644 9.00731 30.8972 8.46884 30.6046C7.93038 30.312 7.30834 30.2115 6.70514 30.3196L2.59056 31.0323C1.92283 31.143 1.31609 31.4872 0.878444 32.0035C0.440795 32.5198 0.200654 33.1747 0.200806 33.8516V34.6597C0.201422 35.3112 0.423688 35.9432 0.83107 36.4517C1.23845 36.9602 1.80671 37.3149 2.44243 37.4576L6.34964 38.3398L4.61822 40.9813C3.11798 43.2638 2.31976 45.936 2.32228 48.6674V62.7063C2.32228 68.0043 6.01224 71.4293 11.7266 71.4293H67.2735C72.9878 71.4293 76.6777 68.0059 76.6777 62.7063V48.6608C76.6803 45.9294 75.882 43.2572 74.3818 40.9748L72.6504 38.3414L76.5444 37.4626C77.182 37.3216 77.7525 36.9676 78.1621 36.4591C78.5716 35.9505 78.7958 35.3176 78.7976 34.6646V33.8565C78.7995 33.1797 78.5609 32.5242 78.1244 32.0069C77.688 31.4897 77.0819 31.1442 76.4144 31.0323ZM2.97404 35.0415C2.8874 35.022 2.81001 34.9736 2.75464 34.9042C2.69928 34.8347 2.66927 34.7485 2.66956 34.6597V33.8516C2.66822 33.7584 2.7009 33.6678 2.76148 33.5969C2.82207 33.526 2.90641 33.4797 2.99872 33.4665L7.13141 32.7522C7.18938 32.7417 7.24917 32.7527 7.2997 32.7829C7.35024 32.8132 7.38809 32.8607 7.40626 32.9168L8.41516 35.1979L7.79962 36.136L2.97404 35.0415ZM74.209 58.8716H7.91976C7.59239 58.8716 7.27842 59.0016 7.04693 59.2331C6.81544 59.4646 6.68539 59.7785 6.68539 60.1059C6.68539 60.4333 6.81544 60.7473 7.04693 60.9788C7.27842 61.2103 7.59239 61.3403 7.91976 61.3403H74.209V62.7063C74.209 66.6201 71.6168 68.9605 67.2735 68.9605H11.7266C7.38322 68.9605 4.79104 66.6218 4.79104 62.7063V48.6608C4.78931 46.4104 5.44672 44.2087 6.6821 42.3276L10.5728 36.3928H64.4262C64.7535 36.3928 65.0675 36.2627 65.299 36.0312C65.5305 35.7997 65.6605 35.4858 65.6605 35.1584C65.6605 34.831 65.5305 34.517 65.299 34.2856C65.0675 34.0541 64.7535 33.924 64.4262 33.924H11.9208L15.0742 26.498C15.5705 25.3066 16.3639 24.2622 17.3787 23.4647C18.3935 22.6671 19.5958 22.143 20.8708 21.9423C27.0356 21.0033 33.2642 20.5455 39.5 20.573C45.7357 20.5438 51.9643 21 58.1292 21.9374C59.4047 22.1385 60.6074 22.6634 61.6222 23.4618C62.6371 24.2603 63.4302 25.3056 63.9258 26.498L67.5335 35.002C67.5615 35.0701 67.5962 35.1351 67.6372 35.1962L72.3179 42.3342C73.5533 44.2153 74.2107 46.4169 74.209 48.6674V58.8716ZM76.3288 34.6597C76.3288 34.7503 76.2975 34.838 76.2402 34.9082C76.1829 34.9784 76.1032 35.0266 76.0145 35.0448L71.2053 36.1311L70.5898 35.1929L71.6053 32.8888C71.6281 32.8389 71.6668 32.7979 71.7153 32.7723C71.7639 32.7467 71.8195 32.7379 71.8736 32.7472L75.998 33.4615C76.0903 33.4747 76.1747 33.5211 76.2353 33.592C76.2958 33.6629 76.3285 33.7534 76.3272 33.8467L76.3288 34.6597Z" fill="#71B32A"/>
</g>
<defs>
<clipPath id="clip0_1_51">
<rect width="79" height="79" fill="white"/>
</clipPath>
</defs>
</svg>
