<svg width="65" height="72" viewBox="0 0 65 72" fill="none" xmlns="http://www.w3.org/2000/svg">
<path d="M37.124 62.9556H29.4023C29.0004 62.9556 28.615 63.1063 28.3308 63.3746C28.0466 63.6429 27.8869 64.0069 27.8869 64.3863C27.8869 64.7658 28.0466 65.1297 28.3308 65.398C28.615 65.6663 29.0004 65.8171 29.4023 65.8171H37.124C37.5259 65.8171 37.9113 65.6663 38.1955 65.398C38.4797 65.1297 38.6393 64.7658 38.6393 64.3863C38.6393 64.0069 38.4797 63.6429 38.1955 63.3746C37.9113 63.1063 37.5259 62.9556 37.124 62.9556Z" fill="#66855F"/>
<path d="M63.4846 22.8919C60.4292 22.8919 57.7881 23.6993 55.8472 25.2264C55.6683 25.3674 55.4855 25.5235 55.3017 25.6939V3.71993C55.2987 2.73423 54.8826 1.78971 54.1444 1.09271C53.4061 0.39571 52.4058 0.00286873 51.3618 0H14.9931C13.9491 0.00286873 12.9488 0.39571 12.2105 1.09271C11.4723 1.78971 11.0562 2.73423 11.0532 3.71993V7.52571L10.8655 7.34844C9.67181 6.22145 8.05289 5.58832 6.36483 5.58832C4.67677 5.58832 3.05785 6.22145 1.86422 7.34844C0.670579 8.47542 0 10.0039 0 11.5977C0 13.1915 0.670579 14.7201 1.86422 15.8471L8.42178 22.0384C7.36042 22.3307 6.39794 22.8788 5.62908 23.6289C4.86022 24.379 4.31148 25.3052 4.03686 26.3164C3.76224 27.3275 3.77121 28.3887 4.06289 29.3956C4.35457 30.4024 4.91891 31.3202 5.70035 32.0587L9.43056 35.5806C8.24619 35.7166 7.12619 36.1644 6.19839 36.8726C5.2706 37.5808 4.57238 38.5211 4.18342 39.586C3.79447 40.651 3.73045 41.7977 3.99867 42.8954C4.2669 43.993 4.85655 44.9974 5.70035 45.7938L8.21797 48.1713C7.0336 48.3073 5.9136 48.755 4.9858 49.4633C4.05801 50.1715 3.35979 51.1118 2.97083 52.1767C2.58188 53.2417 2.51786 54.3884 2.78608 55.4861C3.05431 56.5837 3.64396 57.5881 4.48776 58.3845L11.0532 64.5837V67.8172C11.0544 68.8035 11.4698 69.749 12.2085 70.4464C12.9471 71.1438 13.9486 71.536 14.9931 71.5371H44.088C44.4899 71.5371 44.8754 71.3864 45.1596 71.1181C45.4437 70.8498 45.6034 70.4859 45.6034 70.1064V56.3713C45.6064 55.1724 45.9035 53.9904 46.4714 52.918C47.0393 51.8457 47.8625 50.9121 48.8766 50.1905L54.6956 46.0699C54.8829 45.9359 55.0349 45.7629 55.1401 45.5644C55.2452 45.3659 55.3005 45.1472 55.3017 44.9253V33.4794C55.3017 27.7812 58.9855 26.1919 61.9693 25.8392V70.1064C61.9693 70.4859 62.1289 70.8498 62.4131 71.1181C62.6973 71.3864 63.0827 71.5371 63.4846 71.5371C63.8865 71.5371 64.272 71.3864 64.5562 71.1181C64.8403 70.8498 65 70.4859 65 70.1064V24.3226C65 23.9432 64.8403 23.5793 64.5562 23.3109C64.272 23.0426 63.8865 22.8919 63.4846 22.8919ZM14.9931 2.86149H51.3618C51.6028 2.86171 51.834 2.95223 52.0044 3.11317C52.1749 3.27411 52.2707 3.49233 52.271 3.71993V8.00587H14.0839V3.71993C14.0842 3.49233 14.18 3.27411 14.3505 3.11317C14.521 2.95223 14.7521 2.86171 14.9931 2.86149ZM3.03013 11.5976C2.99983 8.82597 6.66866 7.39336 8.72243 9.37151L11.0532 11.5723V20.4765L4.00678 13.8236C3.69618 13.5319 3.44993 13.185 3.28229 12.8029C3.11465 12.4209 3.02894 12.0112 3.03013 11.5976ZM7.84307 25.584C9.08415 24.3628 11.3169 24.3628 12.5578 25.584L19.4156 32.0588C22.427 35.1124 17.9226 39.3546 14.7008 36.5103L7.84307 30.0354C7.21885 29.4446 6.86829 28.6442 6.86829 27.8097C6.86829 26.9752 7.21885 26.1748 7.84307 25.584ZM21.5586 30.0354L19.9115 28.4802C20.225 25.6356 21.5777 22.9829 23.7374 20.9776C25.8971 18.9723 28.7289 17.7396 31.7466 17.4912C34.7642 17.2428 37.7792 17.9943 40.2739 19.6165C42.7685 21.2387 44.587 23.6305 45.417 26.3809C46.2471 29.1314 46.0368 32.0689 44.8224 34.6889C43.608 37.3089 41.4652 39.4479 38.7621 40.7385C36.059 42.0291 32.9643 42.3908 30.0095 41.7614C27.0547 41.1319 24.4242 39.5507 22.5699 37.2893C23.2687 36.1432 23.5483 34.8118 23.3655 33.5006C23.1827 32.1895 22.5477 30.9718 21.5586 30.0354ZM7.84307 39.3191C9.08415 38.098 11.3169 38.098 12.5578 39.3191L19.4156 45.7939C22.427 48.8476 17.9226 53.0897 14.7008 50.2454L7.84307 43.7706C7.21885 43.1798 6.86829 42.3793 6.86829 41.5448C6.86829 40.7103 7.21885 39.9099 7.84307 39.3191ZM6.63078 51.9096C7.87186 50.6885 10.1046 50.6885 11.3455 51.9096L18.2033 58.3845C21.2148 61.4381 16.7103 65.6803 13.4885 62.8359L6.63078 56.3611C6.00656 55.7703 5.656 54.9699 5.656 54.1354C5.656 53.3009 6.00656 52.5004 6.63078 51.9096ZM14.0839 67.8172V66.3865C14.6568 66.5416 15.2499 66.6202 15.8458 66.6201C16.7274 66.6204 17.5994 66.4477 18.4065 66.1128C19.2135 65.7779 19.938 65.2883 20.5339 64.6749C21.1299 64.0616 21.5842 63.338 21.8681 62.55C22.152 61.762 22.2593 60.9269 22.1831 60.0976H42.5727V68.6757H14.9931C14.7521 68.6754 14.521 68.5849 14.3505 68.424C14.18 68.263 14.0842 68.0448 14.0839 67.8172ZM47.0581 47.9013C45.6685 48.8902 44.5404 50.1695 43.7622 51.639C42.9839 53.1086 42.5768 54.7283 42.5727 56.3713V57.2354H21.1108C20.8857 56.9219 20.6298 56.6291 20.3463 56.3611L17.8284 53.9838C19.0128 53.8477 20.1327 53.4 21.0605 52.6918C21.9883 51.9835 22.6866 51.0433 23.0755 49.9783C23.4645 48.9134 23.5285 47.7666 23.2603 46.669C22.992 45.5713 22.4024 44.567 21.5586 43.7706L17.8284 40.2487C18.7607 40.1439 19.6564 39.8436 20.4499 39.3698C22.7402 42.0059 25.9048 43.8363 29.4326 44.5651C32.9604 45.2939 36.6455 44.8787 39.8925 43.3866C43.1396 41.8944 45.7592 39.4124 47.3281 36.3414C48.8971 33.2703 49.3238 29.7896 48.5394 26.4614C47.755 23.1332 45.8053 20.1518 43.0051 17.9987C40.2049 15.8456 36.7178 14.6466 33.107 14.5952C29.4961 14.5439 25.9723 15.6432 23.1047 17.7157C20.2372 19.7882 18.1932 22.7128 17.303 26.0172C17.303 26.0172 14.2988 23.2066 14.0839 23.0493V10.8674H52.271V44.21L47.0581 47.9013Z" fill="#71B32A"/>
<path d="M31.5106 31.1904H34.0868C34.6561 31.2093 35.1955 31.4362 35.5911 31.8232C35.9868 32.2101 36.208 32.727 36.208 33.2649C36.208 33.8028 35.9868 34.3197 35.5911 34.7067C35.1955 35.0937 34.6561 35.3206 34.0868 35.3395H30.2667C29.7374 35.351 29.3575 34.8657 29.4351 34.3885C29.4423 34.009 29.2895 33.6424 29.0104 33.3693C28.7313 33.0962 28.3487 32.9389 27.9468 32.9321C27.5449 32.9254 27.1566 33.0696 26.8674 33.3331C26.5781 33.5966 26.4115 33.9578 26.4043 34.3373L26.4015 34.4855C26.3922 34.9703 26.4853 35.4519 26.6754 35.9023C26.8655 36.3527 27.1488 36.7629 27.5086 37.1088C27.8684 37.4547 28.2977 37.7294 28.7712 37.9169C29.2448 38.1045 29.7532 38.201 30.2667 38.201H31.3591V39.0594C31.3591 39.4389 31.5188 39.8028 31.8029 40.0711C32.0871 40.3395 32.4726 40.4902 32.8745 40.4902C33.2764 40.4902 33.6618 40.3395 33.946 40.0711C34.2302 39.8028 34.3898 39.4389 34.3898 39.0594V38.192C35.7339 38.0995 36.9883 37.5208 37.8915 36.5766C38.7947 35.6323 39.277 34.3953 39.238 33.1235C39.1989 31.8517 38.6414 30.6432 37.6817 29.7499C36.722 28.8567 35.4342 28.3476 34.0868 28.3289H31.5106C30.948 28.3289 30.4084 28.1178 30.0105 27.7422C29.6127 27.3666 29.3891 26.8571 29.3891 26.3258C29.3891 25.7946 29.6127 25.2851 30.0105 24.9095C30.4084 24.5338 30.948 24.3228 31.5106 24.3228H35.2704C35.8041 24.3649 36.0819 24.6388 36.1039 25.1446C36.0953 25.3323 36.126 25.5198 36.1942 25.6963C36.2623 25.8728 36.3667 26.035 36.5012 26.1734C36.7729 26.453 37.1512 26.6193 37.5527 26.6356C37.9542 26.6519 38.3462 26.517 38.6423 26.2604C38.9385 26.0039 39.1146 25.6468 39.1318 25.2677C39.1543 24.7757 39.071 24.2845 38.887 23.8237C38.7031 23.3629 38.4223 22.942 38.0615 22.5864C37.7007 22.2308 37.2675 21.9478 36.7878 21.7544C36.3081 21.5611 35.792 21.4614 35.2704 21.4613H34.3898V20.6029C34.3898 20.2234 34.2302 19.8595 33.946 19.5912C33.6618 19.3229 33.2764 19.1721 32.8745 19.1721C32.4726 19.1721 32.0871 19.3229 31.8029 19.5912C31.5188 19.8595 31.3591 20.2234 31.3591 20.6029V21.4649C30.0068 21.5028 28.7246 22.0415 27.7895 22.9645C26.8543 23.8876 26.3413 25.1209 26.3612 26.3981C26.3811 27.6753 26.9324 28.8938 27.8959 29.7905C28.8594 30.6872 30.1578 31.19 31.5106 31.1904Z" fill="#FF7F57"/>
</svg>
