<svg width="62" height="62" viewBox="0 0 62 62" fill="none" xmlns="http://www.w3.org/2000/svg">
<path d="M51.6015 26.8783C52.0164 28.226 53.273 29.2083 54.7549 29.2083C56.5739 29.2083 58.0538 27.7285 58.0538 25.9096C58.0538 24.0906 56.5739 22.6107 54.7549 22.6107C53.2731 22.6107 52.0164 23.5932 51.6015 24.9408H44.98V21.4008H50.5126C50.7662 21.4008 51.0096 21.3014 51.1907 21.124L53.1809 19.174C53.6491 19.4292 54.1854 19.5744 54.755 19.5744C56.574 19.5744 58.0538 18.0947 58.0538 16.2757C58.0538 14.4568 56.5739 12.9769 54.755 12.9769C52.9361 12.9769 51.4562 14.4568 51.4562 16.2757C51.4562 16.8213 51.5901 17.3358 51.8255 17.7895L50.1173 19.4632H44.98V17.5125C44.98 17.4654 44.9782 17.4186 44.9765 17.3719L48.8601 15.935C49.0757 15.8552 49.2562 15.7013 49.3687 15.5007L52.0616 10.7047C52.2869 10.7535 52.5207 10.7799 52.7605 10.7799C54.5795 10.7799 56.0592 9.3 56.0592 7.48105C56.0592 5.6621 54.5793 4.18221 52.7605 4.18221C50.9416 4.18221 49.4617 5.6621 49.4617 7.48105C49.4617 8.36152 49.8091 9.16195 50.3733 9.7541L47.8537 14.2415L44.4026 15.5183C43.7387 14.4673 42.5672 13.7673 41.2348 13.7673H40.8254V10.0309C40.8255 4.56669 36.3799 0.121094 30.9156 0.121094C25.4511 0.121094 21.0055 4.56669 21.0055 10.0309V13.7673H20.5961C19.2851 13.7673 18.1301 14.4449 17.4607 15.4677L14.1464 14.2415L11.6269 9.75422C12.1911 9.16207 12.5385 8.36164 12.5385 7.48117C12.5385 5.66222 11.0586 4.18234 9.23966 4.18234C7.42071 4.18234 5.94095 5.66222 5.94095 7.48117C5.94095 9.30012 7.42071 10.7799 9.23966 10.7799C9.47943 10.7799 9.71314 10.7535 9.93861 10.7047L12.6315 15.5007C12.7441 15.7013 12.9244 15.8552 13.1401 15.935L16.8566 17.31C16.8529 17.3771 16.8509 17.4445 16.8509 17.5125V19.4632H11.8829L10.1746 17.7895C10.41 17.3358 10.544 16.8213 10.544 16.2757C10.544 14.4568 9.06407 12.9769 7.24513 12.9769C5.42618 12.9769 3.94641 14.4568 3.94641 16.2757C3.94641 18.0947 5.4263 19.5744 7.24513 19.5744C7.81475 19.5744 8.35107 19.4292 8.81922 19.174L10.8095 21.124C10.9906 21.3014 11.234 21.4008 11.4875 21.4008H16.851V24.9408H10.3986C9.98378 23.5932 8.72719 22.6107 7.24513 22.6107C5.42618 22.6107 3.94641 24.0906 3.94641 25.9096C3.94641 27.7285 5.4263 29.2083 7.24513 29.2083C8.72707 29.2083 9.98366 28.226 10.3986 26.8783H16.851V30.4184H11.4874C11.2338 30.4184 10.9904 30.5178 10.8094 30.6952L8.8191 32.6451C8.35107 32.3898 7.81463 32.2446 7.245 32.2446C5.42605 32.2446 3.94629 33.7245 3.94629 35.5434C3.94629 37.3624 5.42618 38.8423 7.245 38.8423C9.06395 38.8423 10.5438 37.3624 10.5438 35.5434C10.5438 34.9979 10.4099 34.4834 10.1745 34.0296L11.8828 32.356H16.8508V34.3068C16.8508 34.4331 16.8573 34.558 16.8695 34.6811L13.1788 35.8706C12.9465 35.9456 12.7509 36.1054 12.6314 36.3184L9.93849 41.1145C9.71302 41.0657 9.4793 41.0393 9.23954 41.0393C7.42059 41.0393 5.94082 42.519 5.94082 44.338C5.94082 46.1569 7.42071 47.6368 9.23954 47.6368C11.0585 47.6368 12.5384 46.1569 12.5384 44.338C12.5384 43.4575 12.191 42.6571 11.6268 42.0649L14.1348 37.5982L17.5592 36.4945C18.24 37.4369 19.3472 38.0519 20.5961 38.0519H27.7561V42.935L25.5754 40.1524C24.1461 38.3285 22.2626 38.2413 21.1177 38.9318C19.9641 39.6274 19.2151 41.2577 20.1426 43.3315C21.7564 46.9399 23.2699 49.4341 24.4862 51.4382C26.0721 54.0515 27.1234 55.7843 27.4092 58.236V60.9102C27.4092 61.4451 27.8429 61.8789 28.3779 61.8789H43.7044C44.2394 61.8789 44.6731 61.4451 44.6731 60.9102V58.4776C46.8496 55.144 47.1806 50.1375 47.1808 47.4064L47.1809 44.4385C47.1809 42.699 45.7657 41.2838 44.0263 41.2838C43.5436 41.2838 43.0856 41.3927 42.6762 41.5875C42.2855 40.2887 41.0787 39.34 39.6544 39.34C39.1778 39.34 38.7255 39.4462 38.32 39.6363C38.1427 39.0059 37.7724 38.4566 37.2792 38.0518H41.2348C42.5031 38.0518 43.6254 37.4175 44.3032 36.4501L47.8653 37.598L50.3731 42.0648C49.809 42.657 49.4616 43.4574 49.4616 44.3379C49.4616 46.1568 50.9414 47.6367 52.7604 47.6367C54.5793 47.6367 56.0591 46.1568 56.0591 44.3379C56.0591 42.5189 54.5792 41.0392 52.7604 41.0392C52.5206 41.0392 52.2869 41.0656 52.0614 41.1144L49.3686 36.3182C49.249 36.1053 49.0533 35.9453 48.8211 35.8704L44.9652 34.6277C44.9743 34.5218 44.98 34.4148 44.98 34.3066V32.3558H50.1173L51.8255 34.0294C51.5901 34.4831 51.4562 34.9977 51.4562 35.5432C51.4562 37.3621 52.9361 38.842 54.755 38.842C56.574 38.842 58.0538 37.3621 58.0538 35.5432C58.0538 33.7242 56.5739 32.2444 54.755 32.2444C54.1854 32.2444 53.649 32.3896 53.1809 32.6448L51.1907 30.695C51.0096 30.5176 50.7662 30.4181 50.5126 30.4181H44.98V26.8781H51.6015V26.8783ZM54.7549 24.5482C55.5056 24.5482 56.1163 25.1589 56.1163 25.9096C56.1163 26.6601 55.5056 27.2708 54.7549 27.2708C54.0044 27.2708 53.3937 26.6601 53.3937 25.9096C53.3937 25.1589 54.0044 24.5482 54.7549 24.5482ZM54.755 14.9144C55.5056 14.9144 56.1163 15.5251 56.1163 16.2757C56.1163 17.0263 55.5056 17.6369 54.755 17.6369C54.0044 17.6369 53.3937 17.0263 53.3937 16.2757C53.3937 15.5251 54.0044 14.9144 54.755 14.9144ZM52.7605 6.11984C53.5111 6.11984 54.1217 6.73051 54.1217 7.48117C54.1217 8.23183 53.5111 8.84251 52.7605 8.84251C52.0098 8.84251 51.3992 8.23183 51.3992 7.48117C51.3992 6.73051 52.0098 6.11984 52.7605 6.11984ZM7.87844 7.48117C7.87844 6.73051 8.48912 6.11984 9.23966 6.11984C9.99032 6.11984 10.601 6.73051 10.601 7.48117C10.601 8.23183 9.99032 8.84239 9.23966 8.84239C8.48912 8.84239 7.87844 8.23183 7.87844 7.48117ZM7.24513 17.6369C6.49459 17.6369 5.88391 17.0263 5.88391 16.2757C5.88391 15.5251 6.49459 14.9144 7.24513 14.9144C7.99579 14.9144 8.60646 15.5251 8.60646 16.2757C8.60646 17.0263 7.99579 17.6369 7.24513 17.6369ZM7.24513 27.2708C6.49459 27.2708 5.88391 26.6601 5.88391 25.9096C5.88391 25.1589 6.49459 24.5482 7.24513 24.5482C7.99579 24.5482 8.60646 25.1589 8.60646 25.9096C8.60646 26.6601 7.99579 27.2708 7.24513 27.2708ZM7.24513 36.9048C6.49459 36.9048 5.88391 36.2941 5.88391 35.5434C5.88391 34.7928 6.49459 34.1821 7.24513 34.1821C7.99579 34.1821 8.60646 34.7928 8.60646 35.5434C8.60646 36.2941 7.99579 36.9048 7.24513 36.9048ZM9.23966 45.6992C8.48912 45.6992 7.87844 45.0885 7.87844 44.3379C7.87844 43.5873 8.48912 42.9767 9.23966 42.9767C9.99032 42.9767 10.601 43.5873 10.601 44.3379C10.601 45.0885 9.99032 45.6992 9.23966 45.6992ZM54.1217 44.338C54.1217 45.0887 53.5111 45.6993 52.7605 45.6993C52.0098 45.6993 51.3992 45.0887 51.3992 44.338C51.3992 43.5875 52.0098 42.9768 52.7605 42.9768C53.5111 42.9767 54.1217 43.5873 54.1217 44.338ZM54.755 34.1821C55.5056 34.1821 56.1163 34.7928 56.1163 35.5434C56.1163 36.2941 55.5056 36.9048 54.755 36.9048C54.0044 36.9048 53.3937 36.2941 53.3937 35.5434C53.3937 34.7928 54.0044 34.1821 54.755 34.1821ZM22.943 10.0309C22.943 5.63498 26.5195 2.05859 30.9156 2.05859C35.3116 2.05859 38.888 5.63498 38.888 10.0309V13.7673H36.5757V10.0309C36.5757 6.90997 34.0365 4.37076 30.9156 4.37076C27.7945 4.37076 25.2553 6.90985 25.2553 10.0309V13.7673H22.943V10.0309ZM34.6382 13.7674H27.1928V10.0309C27.1928 7.97826 28.8628 6.30826 30.9156 6.30826C32.9682 6.30826 34.6382 7.97826 34.6382 10.0309V13.7674ZM32.2452 26.0335C31.8396 25.8433 31.3875 25.7364 30.9107 25.7364C30.4362 25.7364 29.986 25.8424 29.5818 26.0309C28.9174 25.5874 28.5132 24.8441 28.5132 24.0343C28.5132 22.7098 29.5908 21.6322 30.9154 21.6322C32.2401 21.6322 33.3176 22.7098 33.3176 24.0343C33.3177 24.8457 32.9119 25.5903 32.2452 26.0335ZM29.3467 59.9414V59.1497H42.7356V59.9414H29.3467ZM39.6544 41.2776C40.3256 41.2776 40.8716 41.8236 40.8716 42.4947V45.5027C40.8716 46.0377 41.3054 46.4714 41.8404 46.4714C42.3754 46.4714 42.8091 46.0377 42.8091 45.5027V44.4385C42.8091 43.7674 43.3552 43.2213 44.0264 43.2213C44.6975 43.2213 45.2435 43.7673 45.2435 44.4384L45.2434 47.4061C45.2433 49.3871 45.0342 54.1726 43.179 57.2121H29.2118C28.763 54.7571 27.6405 52.9015 26.1424 50.4329C24.9542 48.4749 23.4756 46.0381 21.9112 42.5402C21.5206 41.6673 21.6019 40.9021 22.1181 40.5907C22.5707 40.3179 23.3438 40.4457 24.0504 41.3473L27.9623 46.3389C28.2171 46.6643 28.6503 46.7918 29.0409 46.6571C29.4316 46.5223 29.6936 46.1545 29.6936 45.7413V28.8912C29.6936 28.2201 30.2396 27.6739 30.9108 27.6739C31.5819 27.6739 32.128 28.2199 32.128 28.8912L32.1278 44.7191C32.1278 45.2541 32.5616 45.6878 33.0966 45.6878C33.6316 45.6878 34.0653 45.2541 34.0653 44.7191V40.4894C34.0653 39.8183 34.6113 39.2722 35.2826 39.2722C35.9538 39.2722 36.4998 39.8182 36.4998 40.4894V45.5027C36.4998 46.0377 36.9336 46.4714 37.4685 46.4714C38.0035 46.4714 38.4373 46.0377 38.4373 45.5027V42.4947C38.4372 41.8235 38.9832 41.2776 39.6544 41.2776ZM43.0425 34.3067C43.0425 35.3034 42.2317 36.1143 41.2348 36.1143H34.0652L34.0653 28.8912C34.0653 28.3443 33.9253 27.8296 33.6794 27.3808C34.6678 26.566 35.2551 25.3479 35.2551 24.0343C35.2551 21.6414 33.3084 19.6947 30.9154 19.6947C28.5225 19.6947 26.5757 21.6415 26.5757 24.0343C26.5757 25.3452 27.1606 26.5606 28.1451 27.3753C27.8973 27.8255 27.756 28.3421 27.756 28.8912V36.1143H20.596C19.5992 36.1143 18.7883 35.3034 18.7883 34.3067V17.5125C18.7883 16.5157 19.5991 15.7049 20.596 15.7049H41.2349C42.2317 15.7049 43.0426 16.5157 43.0426 17.5125V34.3067H43.0425Z" fill="#91AD37"/>
<path d="M34.0655 37.5517V28.8911C34.0655 28.8911 33.9713 27.915 33.6796 27.3807C33.3114 26.7061 32.9415 26.3588 32.2454 26.0334C31.7617 25.8073 31.4448 25.7363 30.9109 25.7363C30.3793 25.7363 30.064 25.8067 29.582 26.0308C28.8853 26.3549 28.5148 26.7015 28.1452 27.3752C27.8513 27.9111 27.7562 28.8911 27.7562 28.8911V36.1142L27.7563 42.9349L25.5756 40.1523C24.1462 38.3284 22.2627 38.2412 21.1179 38.9317C19.9643 39.6274 19.2153 41.2576 20.1428 43.3314C21.7566 46.9398 23.2701 49.434 24.4864 51.4381C26.0722 54.0514 27.1236 55.7842 27.4094 58.236V60.9101C27.4094 61.4451 27.8431 61.8788 28.3781 61.8788H43.7046C44.2396 61.8788 44.6733 61.4451 44.6733 60.9101V58.4775C46.8497 55.1439 47.1808 50.1374 47.1809 47.4063L47.1811 44.4384C47.1811 42.6989 45.7658 41.2837 44.0264 41.2837C43.5438 41.2837 43.0858 41.3927 42.6764 41.5874C42.2857 40.2887 41.0789 39.3399 39.6546 39.3399C39.178 39.3399 38.7257 39.4461 38.3201 39.6362C38.1429 39.0058 37.7793 38.5517 37.0002 37.9999C36.221 37.4481 35.0002 37.1968 34.0655 37.5517ZM29.3469 59.9413V59.1496H42.7358V59.9413H29.3469ZM39.6546 41.2775C40.3258 41.2775 40.8718 41.8235 40.8718 42.4946V45.5026C40.8718 46.0376 41.3056 46.4713 41.8406 46.4713C42.3756 46.4713 42.8093 46.0376 42.8093 45.5026V44.4384C42.8093 43.7673 43.3553 43.2212 44.0266 43.2212C44.6977 43.2212 45.2437 43.7672 45.2437 44.4383L45.2436 47.4061C45.2434 49.387 45.0344 54.1725 43.1791 57.212H29.212C28.7632 54.757 27.6406 52.9014 26.1426 50.4328C24.9544 48.4748 23.4757 46.0381 21.9113 42.5401C21.5208 41.6672 21.6021 40.902 22.1183 40.5907C22.5709 40.3178 23.344 40.4456 24.0506 41.3472L27.9625 46.3389C28.2173 46.6642 28.6504 46.7917 29.0411 46.657C29.4317 46.5222 29.6938 46.1544 29.6938 45.7413V28.8911C29.6938 28.22 30.2398 27.6738 30.911 27.6738C31.5821 27.6738 32.1281 28.2198 32.1281 28.8911L32.128 44.719C32.128 45.254 32.5618 45.6877 33.0968 45.6877C33.6318 45.6877 34.0655 45.254 34.0655 44.719V40.4893C34.0655 39.8182 34.6115 39.2721 35.2827 39.2721C35.954 39.2721 36.5 39.8181 36.5 40.4893V45.5026C36.5 46.0376 36.9337 46.4713 37.4687 46.4713C38.0037 46.4713 38.4375 46.0376 38.4375 45.5026V42.4946C38.4374 41.8234 38.9834 41.2775 39.6546 41.2775ZM34.0655 37.5517C34.091 33.9945 34.0655 28.8911 34.0655 28.8911V37.5517Z" fill="#FF7F57"/>
</svg>
