<svg width="62" height="62" viewBox="0 0 62 62" fill="none" xmlns="http://www.w3.org/2000/svg">
<g clip-path="url(#clip0_153_73)">
<path d="M50.375 22.2812C56.2505 22.2812 61.0312 17.5005 61.0312 11.625C61.0312 5.74953 56.2505 0.96875 50.375 0.96875C44.4995 0.96875 39.7188 5.74953 39.7188 11.625C39.7188 17.5005 44.4995 22.2812 50.375 22.2812ZM50.375 2.90625C55.1829 2.90625 59.0938 6.81709 59.0938 11.625C59.0938 16.4329 55.1829 20.3438 50.375 20.3438C45.5671 20.3438 41.6562 16.4329 41.6562 11.625C41.6562 6.81709 45.5671 2.90625 50.375 2.90625Z" fill="#91AD37"/>
<path d="M51.3438 14.5312H49.4062C48.8715 14.5312 48.4375 14.0972 48.4375 13.5625H46.5C46.5 15.1648 47.8039 16.4688 49.4062 16.4688V18.4062H51.3438V16.4688C52.9461 16.4688 54.25 15.1648 54.25 13.5625C54.25 11.9602 52.9461 10.6562 51.3438 10.6562H49.4062C48.8715 10.6562 48.4375 10.2222 48.4375 9.6875C48.4375 9.15275 48.8715 8.71875 49.4062 8.71875H51.3438C51.8785 8.71875 52.3125 9.15275 52.3125 9.6875H54.25C54.25 8.08519 52.9461 6.78125 51.3438 6.78125V4.84375H49.4062V6.78125C47.8039 6.78125 46.5 8.08519 46.5 9.6875C46.5 11.2898 47.8039 12.5938 49.4062 12.5938H51.3438C51.8785 12.5938 52.3125 13.0278 52.3125 13.5625C52.3125 14.0972 51.8785 14.5312 51.3438 14.5312Z" fill="#91AD37"/>
<path d="M56.1875 47.647V43.5938C56.1875 40.3882 53.5806 37.7812 50.375 37.7812C47.1694 37.7812 44.5625 40.3882 44.5625 43.5938V47.647C43.4378 48.0481 42.625 49.1137 42.625 50.375V58.125C42.625 59.7273 43.9289 61.0312 45.5312 61.0312H55.2188C56.8211 61.0312 58.125 59.7273 58.125 58.125V50.375C58.125 49.1137 57.3122 48.0481 56.1875 47.647ZM50.375 39.7188C52.5121 39.7188 54.25 41.4567 54.25 43.5938V47.4688H46.5V43.5938C46.5 41.4567 48.2379 39.7188 50.375 39.7188ZM56.1875 58.125C56.1875 58.6597 55.7535 59.0938 55.2188 59.0938H45.5312C44.9965 59.0938 44.5625 58.6597 44.5625 58.125V50.375C44.5625 49.8403 44.9965 49.4062 45.5312 49.4062H55.2188C55.7535 49.4062 56.1875 49.8403 56.1875 50.375V58.125Z" fill="#91AD37"/>
<path d="M50.375 50.375C48.7727 50.375 47.4688 51.6789 47.4688 53.2812C47.4688 54.5426 48.2815 55.6082 49.4062 56.0093V58.125H51.3438V56.0093C52.4685 55.6082 53.2812 54.5426 53.2812 53.2812C53.2812 51.6789 51.9773 50.375 50.375 50.375ZM50.375 54.25C49.8403 54.25 49.4062 53.816 49.4062 53.2812C49.4062 52.7465 49.8403 52.3125 50.375 52.3125C50.9097 52.3125 51.3438 52.7465 51.3438 53.2812C51.3438 53.816 50.9097 54.25 50.375 54.25Z" fill="#91AD37"/>
<path d="M24.2188 53.2812H18.4062V59.0938H16.4688V47.4688H10.6562V59.0938H8.71875V51.3438H2.90625V59.0938H0.96875V61.0312H26.1562V59.0938H24.2188V53.2812ZM20.3438 55.2188H22.2812V59.0938H20.3438V55.2188ZM12.5938 49.4062H14.5312V59.0938H12.5938V49.4062ZM4.84375 53.2812H6.78125V59.0938H4.84375V53.2812Z" fill="#91AD37"/>
<path d="M7.13097 20.3631L8.32059 21.4045C8.96869 21.9703 9.79697 22.2812 10.6562 22.2812C11.5155 22.2812 12.3438 21.9703 12.9929 21.4036L14.1806 20.3641C18.0972 16.9357 20.3438 11.9854 20.3438 6.78125V5.8125H19.375C18.3065 5.8125 17.4375 4.94353 17.4375 3.875C17.4375 3.74519 17.452 3.61828 17.4763 3.49525L17.6264 2.74641L16.9318 2.42575C16.8039 2.36569 13.7408 0.96875 10.6562 0.96875C7.57175 0.96875 4.50856 2.36569 4.37972 2.42575L3.68609 2.74641L3.83625 3.49525C3.86047 3.61828 3.875 3.74519 3.875 3.875C3.875 4.94353 3.00603 5.8125 1.9375 5.8125H0.96875V6.78125C0.96875 11.9854 3.21528 16.9357 7.13097 20.3631ZM5.8125 3.93022C6.6185 3.62022 8.11134 3.12422 9.6875 2.96341V6.78125H11.625V2.96341C13.1963 3.12519 14.693 3.62119 15.5 3.93119C15.5252 5.70109 16.7429 7.18716 18.3849 7.62213C18.1592 11.9583 16.1897 16.0318 12.9047 18.9061L11.717 19.9456C11.6899 19.9688 11.6541 19.9776 11.625 19.9989V8.71875H9.6875V19.9989C9.65941 19.9776 9.62356 19.9698 9.59644 19.9466L8.40681 18.9052C5.12178 16.0309 3.15328 11.9573 2.92756 7.62213C4.56959 7.18716 5.78828 5.70013 5.8125 3.93022Z" fill="#91AD37"/>
<path d="M30.0312 38.75C30.5663 38.75 31 38.3163 31 37.7812C31 37.2462 30.5663 36.8125 30.0312 36.8125C29.4962 36.8125 29.0625 37.2462 29.0625 37.7812C29.0625 38.3163 29.4962 38.75 30.0312 38.75Z" fill="#FF7F57"/>
<path d="M29.0625 25.1875H31V34.875H29.0625V25.1875Z" fill="#FF7F57"/>
<path d="M17.1013 25.3473C16.7507 26.0352 16.4523 26.7578 16.2111 27.5067L13.5625 28.3563V35.5822L16.2111 36.4308C16.4523 37.1806 16.7507 37.9043 17.1013 38.5902L15.8303 41.0595L20.9395 46.1677L23.4089 44.8977C24.0947 45.2484 24.8184 45.5467 25.5682 45.788L26.4188 48.4375H33.6447L34.4933 45.7889C35.2431 45.5477 35.9668 45.2493 36.6527 44.8987L39.122 46.1687L44.2312 41.0605L42.9602 38.5911C43.3109 37.9043 43.6092 37.1816 43.8505 36.4318L46.5 35.5812V28.3553L43.8514 27.5067C43.6102 26.7578 43.3118 26.0342 42.9612 25.3473L44.2322 22.878L39.123 17.7688L36.6536 19.0398C35.9658 18.6891 35.2431 18.3908 34.4943 18.1495L33.6437 15.5H26.4178L25.5692 18.1486C24.8203 18.3898 24.0967 18.6882 23.4098 19.0388L20.9405 17.7678L15.8313 22.877L17.1013 25.3473ZM17.9238 28.5384C18.1941 27.5813 18.57 26.6687 19.0408 25.8288L19.2946 25.3745L18.1999 23.249L21.3115 20.1374L23.437 21.2321L23.8913 20.9783C24.7312 20.5075 25.6438 20.1316 26.6009 19.8613L27.1017 19.7199L27.8312 17.4375H32.2303L32.9607 19.7199L33.4616 19.8613C34.4187 20.1316 35.3313 20.5075 36.1712 20.9783L36.6255 21.2321L38.751 20.1374L41.8626 23.249L40.7679 25.3745L41.0217 25.8288C41.4925 26.6687 41.8684 27.5813 42.1387 28.5384L42.2801 29.0392L44.5625 29.7687V34.1678L42.2801 34.8982L42.1387 35.3991C41.8674 36.3582 41.4916 37.2698 41.0227 38.1087L40.7679 38.5621L41.8626 40.6885L38.751 43.7991L36.6246 42.7054L36.1712 42.9602C35.3323 43.4291 34.4207 43.8049 33.4616 44.0762L32.9607 44.2176L32.2313 46.5H27.8322L27.1017 44.2176L26.6009 44.0762C25.6418 43.8049 24.7303 43.4291 23.8913 42.9602L23.4379 42.7054L21.3115 43.7991L18.1999 40.6885L19.2946 38.5621L19.0398 38.1087C18.5709 37.2698 18.1951 36.3582 17.9238 35.3991L17.7824 34.8982L15.5 34.1688V29.7697L17.7824 29.0392L17.9238 28.5384Z" fill="#FF7F57"/>
<path d="M19.375 38.5214C19.375 40.7844 21.2156 42.625 23.4786 42.625H36.5829C38.8469 42.625 40.6875 40.7844 40.6875 38.5214C40.6875 37.8878 40.5383 37.2523 40.2545 36.6856L39.8902 35.9571C40.4104 34.6793 40.6875 33.3424 40.6875 31.9688C40.6875 26.0933 35.9067 21.3125 30.0312 21.3125C24.1558 21.3125 19.375 26.0933 19.375 31.9688C19.375 33.3424 19.6521 34.6793 20.1723 35.9571L19.808 36.6856C19.5242 37.2523 19.375 37.8868 19.375 38.5214ZM36.5839 40.6875H23.4786C22.2842 40.6875 21.3125 39.7158 21.3125 38.5214C21.3125 38.1872 21.3919 37.852 21.5411 37.5526L28.0938 24.4474C28.4628 23.7092 29.2049 23.25 30.0312 23.25C30.8576 23.25 31.5997 23.7092 31.9688 24.4474L38.5214 37.5517C38.6706 37.851 38.75 38.1862 38.75 38.5204C38.75 39.7158 37.7783 40.6875 36.5839 40.6875ZM38.75 31.9688C38.75 32.456 38.6967 32.9356 38.6163 33.4102L34.0244 24.2265C36.827 25.6787 38.75 28.6004 38.75 31.9688ZM21.3125 31.9688C21.3125 28.6004 23.2355 25.6787 26.0381 24.2275L21.4462 33.4112C21.3658 32.9356 21.3125 32.456 21.3125 31.9688Z" fill="#FF7F57"/>
<path d="M49.4062 24.2188H51.3438V35.8438H49.4062V24.2188Z" fill="#91AD37"/>
<path d="M9.6875 24.2188H11.625V45.5312H9.6875V24.2188Z" fill="#91AD37"/>
<path d="M26.1562 54.25H40.6875V56.1875H26.1562V54.25Z" fill="#91AD37"/>
<path d="M21.3125 11.625H37.7812V13.5625H21.3125V11.625Z" fill="#91AD37"/>
</g>
<defs>
<clipPath id="clip0_153_73">
<rect width="62" height="62" fill="white"/>
</clipPath>
</defs>
</svg>
