<svg width="62" height="62" viewBox="0 0 62 62" fill="none" xmlns="http://www.w3.org/2000/svg">
<g clip-path="url(#clip0_153_89)">
<path d="M30 42H32C33.103 42 34 42.897 34 44H36C36 41.794 34.206 40 32 40V38H30V40C27.794 40 26 41.794 26 44C26 46.206 27.794 48 30 48H32C33.103 48 34 48.897 34 50C34 51.103 33.103 52 32 52H30C28.897 52 28 51.103 28 50V49H26V50C26 52.206 27.794 54 30 54V56H32V54C34.206 54 36 52.206 36 50C36 47.794 34.206 46 32 46H30C28.897 46 28 45.103 28 44C28 42.897 28.897 42 30 42Z" fill="#FF7F57"/>
<path d="M43 36.9997C43 36.2287 42.699 35.5317 42.22 34.9997C42.7 34.4677 43 33.7707 43 32.9997C43 32.2287 42.699 31.5317 42.22 30.9997C42.7 30.4677 43 29.7707 43 28.9997C43 28.2287 42.699 27.5317 42.22 26.9997C42.7 26.4677 43 25.7707 43 24.9997C43 23.3457 41.654 21.9997 40 21.9997C40 20.8967 39.103 19.9997 38 19.9997H37.954L39.977 14.6357L39.356 14.1887C37.372 12.7567 35.03 11.9997 32.583 11.9997H31.323L29.898 15.5607L28.618 12.9997H27.162C24.839 12.9997 22.785 14.4797 22.051 16.6847L21.921 17.0777L23.702 20.6397C23.506 20.7287 23.308 20.8157 23.121 20.9237L18.59 23.5127C18.07 22.6127 17.11 21.9997 16 21.9997H8.352C8.686 20.1007 9.254 18.2547 10.067 16.4797L11.294 17.7067C11.56 17.9727 11.952 18.0667 12.307 17.9517C12.663 17.8377 12.926 17.5337 12.988 17.1637L14.988 5.16366C15.041 4.84566 14.937 4.52066 14.709 4.29266C14.48 4.06366 14.154 3.96066 13.838 4.01366L1.838 6.01366C1.468 6.07566 1.164 6.33766 1.05 6.69466C0.936 7.05166 1.03 7.44266 1.295 7.70766L4.138 10.5517C1.428 15.2477 0 20.5717 0 25.9997C0 38.3437 7.275 49.4377 18.557 54.3877C20.884 58.9007 25.582 61.9997 31 61.9997C38.72 61.9997 45 55.7197 45 47.9997V47.3847C45 44.3547 44.012 41.4227 42.21 39.0117C42.696 38.4777 43 37.7757 43 36.9997ZM27.847 31.9997L27.308 28.7607C28.491 28.4487 29.577 27.8367 30.465 26.9487L31.414 25.9997H33.184C33.317 26.3737 33.519 26.7107 33.78 26.9997C33.3 27.5317 33 28.2287 33 28.9997C33 29.7707 33.301 30.4677 33.78 30.9997C33.519 31.2887 33.317 31.6257 33.184 31.9997H27.847ZM41 28.9997C41 29.5517 40.552 29.9997 40 29.9997H36C35.448 29.9997 35 29.5517 35 28.9997C35 28.4477 35.448 27.9997 36 27.9997H40C40.552 27.9997 41 28.4477 41 28.9997ZM36 31.9997H40C40.552 31.9997 41 32.4477 41 32.9997C41 33.5517 40.552 33.9997 40 33.9997H38H36C35.448 33.9997 35 33.5517 35 32.9997C35 32.4477 35.448 31.9997 36 31.9997ZM38 35.9997H40C40.552 35.9997 41 36.4477 41 36.9997C41 37.5517 40.552 37.9997 40 37.9997H38C37.448 37.9997 37 37.5517 37 36.9997C37 36.4477 37.448 35.9997 38 35.9997ZM39.444 23.9997H40C40.552 23.9997 41 24.4477 41 24.9997C41 25.5517 40.552 25.9997 40 25.9997H36C37.474 25.9997 38.75 25.1897 39.444 23.9997ZM32.677 13.9997C34.414 14.0167 36.084 14.4947 37.555 15.3907L35.817 19.9997H30.277L32.677 13.9997ZM24.094 16.9507C24.645 15.7697 25.833 14.9997 27.162 14.9997H27.382L29.882 19.9997H26.593C26.277 19.9997 25.962 20.0237 25.65 20.0657L24.094 16.9507ZM24.112 22.6587C24.867 22.2277 25.725 21.9997 26.594 21.9997H38C38 23.1027 37.103 23.9997 36 23.9997H30.586L29.051 25.5347C28.106 26.4787 26.851 26.9997 25.515 26.9997H23V28.9997H25.32L25.929 32.6567L22.287 36.2987L19 34.4197V25.5797L24.112 22.6587ZM17.309 44.4717C14.899 42.6867 12.901 40.4837 11.378 37.9997H16C17.11 37.9997 18.07 37.3867 18.589 36.4877L20.839 37.7737C19.046 39.6667 17.836 41.9697 17.309 44.4717ZM16 23.9997C16.552 23.9997 17 24.4477 17 24.9997V34.9997C17 35.5517 16.552 35.9997 16 35.9997H10.285C8.804 32.9337 8 29.5317 8 25.9997C8 25.3267 8.036 24.6607 8.093 23.9997H16ZM2 25.9997C2 20.6767 3.468 15.4597 6.246 10.9137C6.486 10.5187 6.427 10.0117 6.1 9.68466L4.081 7.66666L12.783 6.21666L11.333 14.9187L10.494 14.0797C10.27 13.8537 9.951 13.7547 9.639 13.7977C9.325 13.8457 9.052 14.0387 8.904 14.3187C7.004 17.9047 6 21.9437 6 25.9997C6 34.3537 10.118 42.0477 17.033 46.7147C17.022 46.9377 17 47.1597 17 47.3847V47.9997C17 49.2697 17.185 50.4957 17.504 51.6667C8.014 46.6807 2 36.8557 2 25.9997ZM43 47.9997C43 54.6167 37.617 59.9997 31 59.9997C24.383 59.9997 19 54.6167 19 47.9997V47.3847C19 44.1797 20.248 41.1657 22.515 38.8997L27.414 33.9997H33.184C33.512 34.9187 34.27 35.6267 35.22 35.8837C35.081 36.2297 35 36.6047 35 36.9997C35 38.6537 36.346 39.9997 38 39.9997H40C40.141 39.9997 40.275 39.9767 40.411 39.9577C42.078 42.0717 43 44.6817 43 47.3847V47.9997Z" fill="#91AD37"/>
<path d="M42.9998 37C42.9998 36.229 42.6988 35.532 42.2198 35C42.6998 34.468 42.9998 33.771 42.9998 33C42.9998 32.229 42.6988 31.532 42.2198 31C42.6998 30.468 42.9998 29.771 42.9998 29C42.9998 28.229 42.6988 27.532 42.2198 27C42.6998 26.468 42.9998 25.771 42.9998 25C42.9998 23.346 41.6538 22 39.9998 22C39.9998 20.897 39.1028 20 37.9998 20H37.9538L39.9768 14.636L39.3558 14.189C37.3718 12.757 35.0298 12 32.5828 12H31.3228L29.8978 15.561L28.6178 13H27.1618C24.8388 13 22.7848 14.48 22.0508 16.685L21.9208 17.078L23.7018 20.64C23.5058 20.729 23.3078 20.816 23.1208 20.924L18.5898 23.513C18.0698 22.613 17.1098 22 15.9998 22H8.35177L18.5569 54.388C20.8839 58.901 25.5818 62 30.9998 62C38.7198 62 44.9998 55.72 44.9998 48V47.385C44.9998 44.355 44.0118 41.423 42.2098 39.012C42.6958 38.478 42.9998 37.776 42.9998 37ZM27.8468 32L27.3078 28.761C28.4908 28.449 29.5768 27.837 30.4648 26.949L31.4138 26H33.1838C33.3168 26.374 33.5188 26.711 33.7798 27C33.2998 27.532 32.9998 28.229 32.9998 29C32.9998 29.771 33.3008 30.468 33.7798 31C33.5188 31.289 33.3168 31.626 33.1838 32H27.8468ZM40.9998 29C40.9998 29.552 40.5518 30 39.9998 30H35.9998C35.4478 30 34.9998 29.552 34.9998 29C34.9998 28.448 35.4478 28 35.9998 28H39.9998C40.5518 28 40.9998 28.448 40.9998 29ZM35.9998 32H39.9998C40.5518 32 40.9998 32.448 40.9998 33C40.9998 33.552 40.5518 34 39.9998 34H37.9998H35.9998C35.4478 34 34.9998 33.552 34.9998 33C34.9998 32.448 35.4478 32 35.9998 32ZM37.9998 36H39.9998C40.5518 36 40.9998 36.448 40.9998 37C40.9998 37.552 40.5518 38 39.9998 38H37.9998C37.4478 38 36.9998 37.552 36.9998 37C36.9998 36.448 37.4478 36 37.9998 36ZM39.4438 24H39.9998C40.5518 24 40.9998 24.448 40.9998 25C40.9998 25.552 40.5518 26 39.9998 26H35.9998C37.4738 26 38.7498 25.19 39.4438 24ZM32.6768 14C34.4138 14.017 36.0838 14.495 37.5548 15.391L35.8168 20H30.2768L32.6768 14ZM24.0938 16.951C24.6448 15.77 25.8328 15 27.1618 15H27.3818L29.8818 20H26.5928C26.2768 20 25.9618 20.024 25.6498 20.066L24.0938 16.951ZM24.1118 22.659C24.8668 22.228 25.7248 22 26.5938 22H37.9998C37.9998 23.103 37.1028 24 35.9998 24H30.5858L29.0508 25.535C28.1058 26.479 26.8508 27 25.5148 27H22.9998V29H25.3198L25.9288 32.657L22.2868 36.299L18.9998 34.42V25.58L24.1118 22.659ZM17.3088 44.472L11.0927 38H15.9998C17.1098 38 18.0698 37.387 18.5888 36.488L20.8388 37.774C19.0458 39.667 17.8358 41.97 17.3088 44.472ZM15.9998 24C16.5518 24 16.9998 24.448 16.9998 25V35C16.9998 35.552 16.5518 36 15.9998 36H10.2848L8.09277 24H15.9998ZM18.5569 54.388L8.35177 22L8.09277 24L10.2848 36L11.0927 38L17.3088 44.472L17.0328 46.715C17.0218 46.938 16.9998 47.16 16.9998 47.385V48C16.9998 49.27 17.1227 50.2726 17.5038 51.667C17.8041 52.7661 18.5569 54.388 18.5569 54.388ZM42.9998 48C42.9998 54.617 37.6168 60 30.9998 60C24.3828 60 18.9998 54.617 18.9998 48V47.385C18.9998 44.18 20.2478 41.166 22.5148 38.9L27.4138 34H33.1838C33.5118 34.919 34.2698 35.627 35.2198 35.884C35.0808 36.23 34.9998 36.605 34.9998 37C34.9998 38.654 36.3458 40 37.9998 40H39.9998C40.1408 40 40.2748 39.977 40.4108 39.958C42.0778 42.072 42.9998 44.682 42.9998 47.385V48Z" fill="#FF7F57"/>
<path d="M57.864 46.449C60.572 41.751 62 36.427 62 31C62 13.906 48.094 0 31 0H29V2H31C46.99 2 60 15.01 60 31C60 36.321 58.532 41.538 55.754 46.086C55.514 46.481 55.574 46.988 55.9 47.315L57.919 49.334L49.217 50.784L50.667 42.083L51.505 42.921C51.728 43.145 52.041 43.248 52.36 43.203C52.673 43.155 52.947 42.963 53.095 42.682C54.996 39.096 56 35.056 56 31C56 17.215 44.785 6 31 6V8C43.683 8 54 18.317 54 31C54 34.326 53.306 37.522 51.933 40.52L50.707 39.293C50.441 39.028 50.049 38.934 49.695 39.048C49.338 39.162 49.075 39.466 49.013 39.836L47.013 51.836C46.96 52.154 47.064 52.479 47.292 52.707C47.482 52.896 47.737 53 48 53C48.055 53 48.109 52.995 48.164 52.986L60.164 50.986C60.534 50.924 60.838 50.662 60.952 50.305C61.066 49.948 60.972 49.557 60.707 49.292L57.864 46.449Z" fill="#91AD37"/>
<path d="M27 6H29V8H27V6Z" fill="#91AD37"/>
<path d="M23 6H25V8H23V6Z" fill="#91AD37"/>
</g>
<defs>
<clipPath id="clip0_153_89">
<rect width="62" height="62" fill="white"/>
</clipPath>
</defs>
</svg>
