<svg width="62" height="62" viewBox="0 0 62 62" fill="none" xmlns="http://www.w3.org/2000/svg">
<path d="M43.9515 14.4626C43.9515 7.31591 38.1457 1.50195 31.0099 1.50195C23.8631 1.50195 18.0488 7.31591 18.0488 14.4626C18.0488 19.6099 21.1644 24.3067 25.8662 26.3485V35.6457C25.8662 36.9266 26.9041 37.9686 28.1982 37.9686C28.4574 37.9686 28.6685 38.1878 28.6685 38.4575V40.5036C28.6685 40.7731 28.4574 40.9924 28.1797 40.9924C26.9041 40.9924 25.8662 42.0345 25.8662 43.3149V45.1036C25.8662 46.3841 26.9041 47.426 28.1982 47.426C28.4574 47.426 28.6685 47.6412 28.6685 47.9058V49.961C28.6685 50.2306 28.4574 50.4499 28.1797 50.4499C26.9041 50.4499 25.8662 51.4878 25.8662 52.7634V55.3721C25.8662 55.6174 25.9639 55.8528 26.138 56.0256C27.1432 57.0254 27.6501 57.5328 30.3392 60.2273C30.6968 60.5858 31.2787 60.5878 31.6392 60.231C32.6669 59.2148 33.2825 58.6002 35.8629 56.0257C36.0371 55.8529 36.1348 55.6175 36.1348 55.3722V26.3488C40.836 24.313 43.9515 19.6162 43.9515 14.4626ZM34.8897 24.864C34.5296 24.999 34.291 25.3429 34.291 25.7272V54.9895C34.1975 55.0828 31.6565 57.6175 30.9945 58.2743C29.2716 56.5478 28.5018 55.7774 27.7097 54.9891V52.7634C27.7097 52.5041 27.9204 52.2935 28.1981 52.2935C29.4741 52.2935 30.512 51.247 30.512 49.9611V47.9059C30.512 46.625 29.4741 45.5825 28.1797 45.5825C27.9204 45.5825 27.7098 45.3678 27.7098 45.1036V43.3149C27.7098 43.0462 27.9164 42.836 28.1982 42.836C29.4743 42.836 30.5122 41.7895 30.5122 40.5036V38.4575C30.5122 37.1716 29.4743 36.1251 28.1798 36.1251C27.9165 36.1251 27.7099 35.9144 27.7099 35.6457V25.7272C27.7099 25.3433 27.4719 24.9995 27.1122 24.8644C22.794 23.2414 19.8926 19.0613 19.8926 14.4626C19.8926 8.33273 24.8797 3.34561 31.0101 3.34561C37.1297 3.34561 42.1082 8.33273 42.1082 14.4626C42.108 19.0671 39.2071 23.2471 34.8897 24.864Z" fill="#FF7F57"/>
<path d="M31.0007 6.83887C29.2728 6.83887 27.8667 8.249 27.8667 9.98234C27.8667 11.7102 29.2728 13.1164 31.0007 13.1164C32.7286 13.1164 34.1348 11.7102 34.1348 9.98234C34.1348 8.249 32.7286 6.83887 31.0007 6.83887ZM31.0007 11.2727C30.2891 11.2727 29.7102 10.6939 29.7102 9.98222C29.7102 9.26571 30.2891 8.68228 31.0007 8.68228C31.7123 8.68228 32.2911 9.26559 32.2911 9.98222C32.2911 10.6939 31.7123 11.2727 31.0007 11.2727Z" fill="#FF7F57"/>
<path d="M39.7626 33.8559H47.3936C47.9026 33.8559 48.3153 33.4432 48.3153 32.9341V26.7147C49.3658 26.3357 50.1229 25.3409 50.1229 24.1644C50.1229 22.6593 48.8981 21.4346 47.3931 21.4346C45.888 21.4346 44.6632 22.6593 44.6632 24.1644C44.6632 25.3412 45.4208 26.3362 46.4718 26.715V32.0124H39.7626C39.2535 32.0124 38.8408 32.425 38.8408 32.9341C38.8407 33.4431 39.2535 33.8559 39.7626 33.8559ZM47.3931 23.2781C47.8819 23.2781 48.2794 23.6755 48.2794 24.1644C48.2794 24.6483 47.8819 25.0421 47.3931 25.0421C46.9042 25.0421 46.5068 24.6483 46.5068 24.1644C46.5068 23.6755 46.9042 23.2781 47.3931 23.2781Z" fill="#91AD37"/>
<path d="M47.3936 45.3896H39.7626C39.2535 45.3896 38.8408 45.8023 38.8408 46.3114C38.8408 46.8205 39.2535 47.2332 39.7626 47.2332H46.4718V52.531C45.4208 52.911 44.6632 53.9093 44.6632 55.0896C44.6632 56.5902 45.888 57.811 47.3931 57.811C48.8981 57.811 50.1229 56.5903 50.1229 55.0896C50.1229 53.9097 49.3658 52.9116 48.3153 52.5313V46.3113C48.3153 45.8023 47.9026 45.3896 47.3936 45.3896ZM47.3931 55.9674C46.9042 55.9674 46.5068 55.5736 46.5068 55.0897C46.5068 54.6009 46.9042 54.2035 47.3931 54.2035C47.8819 54.2035 48.2794 54.6009 48.2794 55.0897C48.2794 55.5736 47.8819 55.9674 47.3931 55.9674Z" fill="#91AD37"/>
<path d="M57.7679 36.8965C56.5892 36.8965 55.592 37.6519 55.2108 38.7005H39.7626C39.2535 38.7005 38.8408 39.1132 38.8408 39.6223C38.8408 40.1314 39.2535 40.5441 39.7626 40.5441H55.2091C55.5888 41.5921 56.5872 42.3476 57.7679 42.3476C59.273 42.3476 60.4977 41.127 60.4977 39.6263C60.4977 38.1212 59.273 36.8965 57.7679 36.8965ZM57.7679 40.5041C57.279 40.5041 56.8816 40.1103 56.8816 39.6264C56.8816 39.1376 57.279 38.7401 57.7679 38.7401C58.2567 38.7401 58.6542 39.1376 58.6542 39.6264C58.6541 40.1103 58.2566 40.5041 57.7679 40.5041Z" fill="#91AD37"/>
<path d="M14.6063 33.8559H22.2373C22.7463 33.8559 23.159 33.4432 23.159 32.9341C23.159 32.425 22.7463 32.0124 22.2373 32.0124H15.5281V26.715C16.579 26.3362 17.3366 25.3412 17.3366 24.1644C17.3366 22.6593 16.1118 21.4346 14.6068 21.4346C13.1017 21.4346 11.877 22.6593 11.877 24.1644C11.877 25.3409 12.634 26.3357 13.6845 26.7147V32.9341C13.6845 33.4431 14.0972 33.8559 14.6063 33.8559ZM14.6068 23.2781C15.0956 23.2781 15.4931 23.6755 15.4931 24.1644C15.4931 24.6483 15.0956 25.0421 14.6068 25.0421C14.1179 25.0421 13.7205 24.6483 13.7205 24.1644C13.7205 23.6755 14.1179 23.2781 14.6068 23.2781Z" fill="#91AD37"/>
<path d="M22.2373 47.2332C22.7463 47.2332 23.159 46.8205 23.159 46.3114C23.159 45.8023 22.7463 45.3896 22.2373 45.3896H14.6063C14.0972 45.3896 13.6845 45.8023 13.6845 46.3114V52.5314C12.634 52.9116 11.877 53.9097 11.877 55.0897C11.877 56.5903 13.1017 57.8111 14.6068 57.8111C16.1118 57.8111 17.3366 56.5905 17.3366 55.0897C17.3366 53.9094 16.579 52.9111 15.5281 52.5312V47.2333H22.2373V47.2332ZM14.6068 55.9673C14.1179 55.9673 13.7205 55.5735 13.7205 55.0896C13.7205 54.6008 14.1179 54.2033 14.6068 54.2033C15.0956 54.2033 15.4931 54.6008 15.4931 55.0896C15.4931 55.5735 15.0956 55.9673 14.6068 55.9673Z" fill="#91AD37"/>
<path d="M4.23214 42.3476C5.4128 42.3476 6.41122 41.5923 6.79097 40.5441H22.2374C22.7465 40.5441 23.1592 40.1314 23.1592 39.6223C23.1592 39.1132 22.7465 38.7005 22.2374 38.7005H6.7894C6.40819 37.6519 5.41086 36.8965 4.23226 36.8965C2.72718 36.8965 1.50244 38.1212 1.50244 39.6263C1.50232 41.127 2.72706 42.3476 4.23214 42.3476ZM4.23214 38.7401C4.72099 38.7401 5.11842 39.1376 5.11842 39.6264C5.11842 40.1103 4.72099 40.5041 4.23214 40.5041C3.74328 40.5041 3.34585 40.1103 3.34585 39.6264C3.34597 39.1376 3.7434 38.7401 4.23214 38.7401Z" fill="#91AD37"/>
</svg>
