<svg width="70" height="69" viewBox="0 0 70 69" fill="none" xmlns="http://www.w3.org/2000/svg">
<path d="M41.3115 57.3772H52.7869V59.6723H41.3115V57.3772Z" fill="#71B32A"/>
<path d="M41.3115 52.7871H52.7869V55.0822H41.3115V52.7871Z" fill="#71B32A"/>
<path d="M60.8198 52.7871C60.1389 52.7871 59.4733 52.989 58.9071 53.3673C58.341 53.7456 57.8998 54.2832 57.6392 54.9123C57.3786 55.5414 57.3105 56.2336 57.4433 56.9014C57.5761 57.5692 57.904 58.1826 58.3855 58.664C58.8669 59.1455 59.4803 59.4734 60.1481 59.6062C60.8159 59.739 61.5081 59.6709 62.1372 59.4103C62.7663 59.1497 63.3039 58.7085 63.6822 58.1424C64.0605 57.5762 64.2624 56.9106 64.2624 56.2297C64.2624 55.3167 63.8997 54.4411 63.2541 53.7954C62.6084 53.1498 61.7328 52.7871 60.8198 52.7871ZM60.8198 57.3773C60.5928 57.3773 60.3709 57.31 60.1822 57.1839C59.9935 57.0578 59.8464 56.8786 59.7596 56.6689C59.6727 56.4592 59.65 56.2285 59.6943 56.0059C59.7386 55.7833 59.8478 55.5788 60.0083 55.4183C60.1688 55.2578 60.3733 55.1485 60.5959 55.1042C60.8185 55.06 61.0492 55.0827 61.2589 55.1695C61.4686 55.2564 61.6478 55.4035 61.7739 55.5922C61.9 55.7809 61.9673 56.0028 61.9673 56.2297C61.9673 56.5341 61.8464 56.826 61.6312 57.0412C61.416 57.2564 61.1241 57.3773 60.8198 57.3773Z" fill="#71B32A"/>
<path d="M33.2787 52.7871C32.5978 52.7871 31.9323 52.989 31.3661 53.3673C30.8 53.7456 30.3587 54.2832 30.0982 54.9123C29.8376 55.5414 29.7694 56.2336 29.9023 56.9014C30.0351 57.5692 30.363 58.1826 30.8444 58.664C31.3259 59.1455 31.9393 59.4734 32.6071 59.6062C33.2749 59.739 33.9671 59.6709 34.5962 59.4103C35.2252 59.1497 35.7629 58.7085 36.1412 58.1424C36.5195 57.5762 36.7214 56.9106 36.7214 56.2297C36.7214 55.3167 36.3587 54.4411 35.713 53.7954C35.0674 53.1498 34.1918 52.7871 33.2787 52.7871ZM33.2787 57.3773C33.0518 57.3773 32.8299 57.31 32.6412 57.1839C32.4525 57.0578 32.3054 56.8786 32.2185 56.6689C32.1317 56.4592 32.109 56.2285 32.1532 56.0059C32.1975 55.7833 32.3068 55.5788 32.4673 55.4183C32.6278 55.2578 32.8323 55.1485 33.0549 55.1042C33.2775 55.06 33.5082 55.0827 33.7179 55.1695C33.9276 55.2564 34.1068 55.4035 34.2329 55.5922C34.359 55.7809 34.4263 56.0028 34.4263 56.2297C34.4263 56.5341 34.3054 56.826 34.0902 57.0412C33.875 57.2564 33.5831 57.3773 33.2787 57.3773Z" fill="#71B32A"/>
<path d="M70 47.0491C69.9973 46.1369 69.6337 45.2628 68.9887 44.6178C68.3436 43.9728 67.4696 43.6092 66.5574 43.6064C65.896 43.6077 65.2496 43.8033 64.6983 44.1687L63.0688 39.8196L62.1508 36.1589C62.027 35.6627 61.7405 35.2222 61.3369 34.9081C60.9333 34.594 60.436 34.4243 59.9246 34.4261H53.9344V30.9835C53.9344 30.6791 53.8135 30.3873 53.5983 30.172C53.3831 29.9568 53.0912 29.8359 52.7868 29.8359H41.3114C41.0071 29.8359 40.7152 29.9568 40.5 30.172C40.2848 30.3873 40.1639 30.6791 40.1639 30.9835V34.4261H34.1737C33.6623 34.4243 33.165 34.594 32.7614 34.9081C32.3578 35.2222 32.0712 35.6627 31.9475 36.1589L31.0294 39.8196L29.3999 44.1687C28.8487 43.8033 28.2023 43.6077 27.5409 43.6064C26.7972 43.6095 26.0744 43.8533 25.4807 44.3014C24.8871 44.7495 24.4546 45.3778 24.2479 46.0922C24.0411 46.8067 24.0714 47.5689 24.334 48.2647C24.5967 48.9606 25.0776 49.5527 25.7048 49.9524C25.4064 50.4646 25.2481 51.0464 25.2458 51.6392V66.5573C25.2476 67.1654 25.49 67.7481 25.9201 68.1782C26.3501 68.6082 26.9328 68.8506 27.5409 68.8524H32.1311C32.7392 68.8506 33.3219 68.6082 33.752 68.1782C34.182 67.7481 34.4244 67.1654 34.4262 66.5573V64.2622H59.6721V66.5573C59.6739 67.1654 59.9163 67.7481 60.3463 68.1782C60.7763 68.6082 61.3591 68.8506 61.9672 68.8524H66.5574C67.1655 68.8506 67.7482 68.6082 68.1782 68.1782C68.6082 67.7481 68.8506 67.1654 68.8524 66.5573V51.6392C68.8502 51.0464 68.6919 50.4646 68.3934 49.9524C68.8854 49.6443 69.291 49.2163 69.572 48.7084C69.853 48.2005 70.0003 47.6295 70 47.0491ZM42.459 32.131H51.6393V34.4261H42.459V32.131ZM34.1737 36.7212H59.9246L60.4983 39.0163H33.5999L34.1737 36.7212ZM32.9229 41.3114H61.1754L63.7574 48.1966H43.4459C43.1953 47.2119 42.6238 46.3388 41.8216 45.7152C41.0195 45.0916 40.0324 44.7531 39.0163 44.7531C38.0003 44.7531 37.0132 45.0916 36.211 45.7152C35.4089 46.3388 34.8374 47.2119 34.5868 48.1966H30.3409L32.9229 41.3114ZM40.9901 48.1966H37.0426C37.2409 47.8481 37.528 47.5582 37.8747 47.3566C38.2214 47.155 38.6153 47.0488 39.0163 47.0488C39.4174 47.0488 39.8113 47.155 40.158 47.3566C40.5046 47.5582 40.7918 47.8481 40.9901 48.1966ZM26.3934 47.0491C26.3934 46.7447 26.5143 46.4528 26.7295 46.2376C26.9447 46.0224 27.2366 45.9015 27.5409 45.9015C27.7425 45.9031 27.94 45.9581 28.1134 46.0609C28.2868 46.1637 28.4298 46.3107 28.5278 46.4868L27.9196 48.1278C27.7984 48.1728 27.6702 48.1961 27.5409 48.1966C27.2366 48.1966 26.9447 48.0757 26.7295 47.8605C26.5143 47.6453 26.3934 47.3534 26.3934 47.0491ZM32.1311 66.5573H27.5409V64.0557C27.9089 64.1893 28.297 64.2591 28.6885 64.2622H32.1311V66.5573ZM66.5574 66.5573H61.9672V64.2622H65.4098C65.8013 64.2591 66.1894 64.1893 66.5574 64.0557V66.5573ZM66.5574 60.8196C66.5574 61.1239 66.4365 61.4158 66.2212 61.631C66.006 61.8462 65.7142 61.9671 65.4098 61.9671H28.6885C28.3841 61.9671 28.0922 61.8462 27.877 61.631C27.6618 61.4158 27.5409 61.1239 27.5409 60.8196V51.6392C27.5409 51.3349 27.6618 51.043 27.877 50.8278C28.0922 50.6126 28.3841 50.4917 28.6885 50.4917H65.4098C65.7142 50.4917 66.006 50.6126 66.2212 50.8278C66.4365 51.043 66.5574 51.3349 66.5574 51.6392V60.8196ZM66.5574 48.1966C66.4281 48.1961 66.2999 48.1728 66.1787 48.1278L65.5705 46.4868C65.6666 46.3091 65.8092 46.1608 65.983 46.0577C66.1568 45.9546 66.3553 45.9007 66.5574 45.9015C66.8617 45.9015 67.1536 46.0224 67.3688 46.2376C67.584 46.4528 67.7049 46.7447 67.7049 47.0491C67.7049 47.3534 67.584 47.6453 67.3688 47.8605C67.1536 48.0757 66.8617 48.1966 66.5574 48.1966Z" fill="#71B32A"/>
<path d="M2.29508 61.9673V6.88525C2.29508 5.66787 2.77869 4.50034 3.63951 3.63951C4.50034 2.77869 5.66787 2.29508 6.88525 2.29508H39.0164C40.2338 2.29508 41.4014 2.77869 42.2622 3.63951C43.123 4.50034 43.6066 5.66787 43.6066 6.88525V27.541H45.9017V6.88525C45.8999 5.05973 45.1739 3.3095 43.883 2.01866C42.5922 0.727817 40.842 0.00182279 39.0164 0H6.88525C5.05973 0.00182279 3.3095 0.727817 2.01866 2.01866C0.727817 3.3095 0.00182279 5.05973 0 6.88525V61.9673C0.00182279 63.7928 0.727817 65.5431 2.01866 66.8339C3.3095 68.1247 5.05973 68.8507 6.88525 68.8525H22.9508V66.5575H6.88525C5.66787 66.5575 4.50034 66.0739 3.63951 65.213C2.77869 64.3522 2.29508 63.1847 2.29508 61.9673Z" fill="#71B32A"/>
<path d="M39.0164 66.5574H36.7214V68.8525H39.0164C40.5068 68.8564 41.9576 68.3728 43.1476 67.4755L41.7705 65.6394C40.9775 66.2381 40.0101 66.5605 39.0164 66.5574Z" fill="#71B32A"/>
<path d="M17.2132 60.8198C17.2132 61.7329 17.5759 62.6085 18.2215 63.2541C18.8671 63.8997 19.7427 64.2625 20.6558 64.2625H22.9509V61.9674H20.6558C20.3514 61.9674 20.0595 61.8465 19.8443 61.6313C19.6291 61.4161 19.5082 61.1242 19.5082 60.8198C19.5082 60.5155 19.6291 60.2236 19.8443 60.0084C20.0595 59.7932 20.3514 59.6723 20.6558 59.6723H22.9509V57.3772H20.6558C19.7427 57.3772 18.8671 57.7399 18.2215 58.3855C17.5759 59.0311 17.2132 59.9068 17.2132 60.8198Z" fill="#71B32A"/>
<path d="M14.918 4.59009H17.2131V6.88517H14.918V4.59009Z" fill="#71B32A"/>
<path d="M19.5082 4.59009H26.3935V6.88517H19.5082V4.59009Z" fill="#71B32A"/>
<path d="M6.88525 25.2459C6.88525 31.3496 15.9692 41.6385 16.3548 42.0746C16.4625 42.1967 16.5949 42.2945 16.7433 42.3614C16.8917 42.4284 17.0526 42.4631 17.2154 42.4631C17.3782 42.4631 17.5392 42.4284 17.6876 42.3614C17.836 42.2945 17.9684 42.1967 18.0761 42.0746C18.4571 41.6385 27.541 31.3496 27.541 25.2459C27.541 22.5067 26.4529 19.8798 24.5161 17.9429C22.5792 16.0061 19.9523 14.918 17.2131 14.918C14.474 14.918 11.8471 16.0061 9.91022 17.9429C7.97337 19.8798 6.88525 22.5067 6.88525 25.2459ZM17.2131 17.2131C19.3428 17.2155 21.3846 18.0626 22.8905 19.5685C24.3964 21.0744 25.2435 23.1162 25.2459 25.2459C25.2459 29.1475 20.0579 36.1555 17.2131 39.5523C14.3684 36.1555 9.18034 29.1475 9.18034 25.2459C9.18277 23.1162 10.0299 21.0744 11.5358 19.5685C13.0417 18.0626 15.0835 17.2155 17.2131 17.2131Z" fill="#FF7F57"/>
<path d="M17.2131 27.5408C17.894 27.5408 18.5596 27.3389 19.1258 26.9606C19.6919 26.5823 20.1331 26.0446 20.3937 25.4156C20.6543 24.7865 20.7224 24.0943 20.5896 23.4265C20.4568 22.7587 20.1289 22.1453 19.6474 21.6638C19.166 21.1824 18.5526 20.8545 17.8848 20.7217C17.217 20.5888 16.5248 20.657 15.8957 20.9176C15.2666 21.1781 14.729 21.6194 14.3507 22.1855C13.9724 22.7517 13.7705 23.4173 13.7705 24.0981C13.7705 25.0112 14.1332 25.8868 14.7788 26.5325C15.4244 27.1781 16.3001 27.5408 17.2131 27.5408ZM17.2131 22.9506C17.4401 22.9506 17.662 23.0179 17.8507 23.144C18.0394 23.2701 18.1865 23.4493 18.2733 23.659C18.3602 23.8687 18.3829 24.0994 18.3386 24.322C18.2944 24.5446 18.1851 24.7491 18.0246 24.9096C17.8641 25.0701 17.6596 25.1794 17.437 25.2236C17.2144 25.2679 16.9837 25.2452 16.774 25.1583C16.5643 25.0715 16.3851 24.9244 16.259 24.7357C16.1329 24.547 16.0656 24.3251 16.0656 24.0981C16.0656 23.7938 16.1865 23.5019 16.4017 23.2867C16.6169 23.0715 16.9088 22.9506 17.2131 22.9506Z" fill="#FF7F57"/>
</svg>
