<svg width="45" height="45" viewBox="0 0 45 45" fill="none" xmlns="http://www.w3.org/2000/svg">
<path fill-rule="evenodd" clip-rule="evenodd" d="M39.9562 18.9375C40.1887 20.0888 40.3125 21.2794 40.3125 22.5C40.3125 32.3306 32.3306 40.3125 22.5 40.3125C12.6694 40.3125 4.6875 32.3306 4.6875 22.5C4.6875 12.6694 12.6694 4.6875 22.5 4.6875C23.7206 4.6875 24.9112 4.81125 26.0625 5.04375C26.5706 5.14688 27.0656 4.81875 27.1687 4.3125C27.2719 3.80625 26.9438 3.30938 26.4375 3.20625C25.1644 2.9475 23.8481 2.8125 22.5 2.8125C11.6344 2.8125 2.8125 11.6344 2.8125 22.5C2.8125 33.3656 11.6344 42.1875 22.5 42.1875C33.3656 42.1875 42.1875 33.3656 42.1875 22.5C42.1875 21.1519 42.0525 19.8356 41.7938 18.5625C41.6906 18.0562 41.1938 17.7281 40.6875 17.8313C40.1813 17.9344 39.8531 18.4294 39.9562 18.9375Z" fill="#66855F"/>
<path fill-rule="evenodd" clip-rule="evenodd" d="M35.6269 3.75L35.6231 13.125C35.6231 13.6425 36.0431 14.0625 36.5606 14.0625C37.0781 14.0625 37.4981 13.6425 37.4981 13.125L37.5019 3.75C37.5019 3.2325 37.0819 2.8125 36.5644 2.8125C36.0469 2.8125 35.6269 3.2325 35.6269 3.75Z" fill="#66855F"/>
<path fill-rule="evenodd" clip-rule="evenodd" d="M31.875 9.37311L41.25 9.37686C41.7675 9.37686 42.1875 8.95686 42.1875 8.43936C42.1875 7.92186 41.7675 7.50186 41.25 7.50186L31.875 7.49811C31.3575 7.49811 30.9375 7.91811 30.9375 8.43561C30.9375 8.95311 31.3575 9.37311 31.875 9.37311Z" fill="#66855F"/>
<path fill-rule="evenodd" clip-rule="evenodd" d="M28.5938 13.125V31.875C28.5938 32.3925 29.0156 32.8125 29.5312 32.8125C30.0488 32.8125 30.4688 32.3925 30.4688 31.875V13.125C30.4688 12.6075 30.0488 12.1875 29.5312 12.1875C29.0156 12.1875 28.5938 12.6075 28.5938 13.125Z" fill="#FF7F57"/>
<path fill-rule="evenodd" clip-rule="evenodd" d="M14.5313 17.8125C14.5313 15.7425 16.2113 14.0625 18.2813 14.0625C20.3494 14.0625 22.0313 15.7425 22.0313 17.8125C22.0313 19.0219 21.2194 20.6306 20.1506 22.3163C17.4413 26.5969 12.9225 31.2206 12.9225 31.2206C12.6582 31.4906 12.5831 31.8919 12.7294 32.2388C12.8756 32.5856 13.215 32.8125 13.5938 32.8125H22.9688C23.4844 32.8125 23.9063 32.3925 23.9063 31.875C23.9063 31.3575 23.4844 30.9375 22.9688 30.9375H15.7482C17.3569 29.1619 19.9331 26.1656 21.735 23.3194C23.0306 21.2738 23.9063 19.2806 23.9063 17.8125C23.9063 14.7075 21.3844 12.1875 18.2813 12.1875C15.1763 12.1875 12.6563 14.7075 12.6563 17.8125C12.6563 18.33 13.0763 18.75 13.5938 18.75C14.1094 18.75 14.5313 18.33 14.5313 17.8125Z" fill="#FF7F57"/>
</svg>
