<svg width="46" height="46" viewBox="0 0 46 46" fill="none" xmlns="http://www.w3.org/2000/svg">
<path d="M23.2788 16.5183C22.9303 16.4486 22.5121 16.6577 22.4424 17.0759C22.3727 17.4244 22.5818 17.8426 23 17.9123C24.8818 18.3305 26.2757 20.0729 26.3454 21.9547C26.4151 24.6032 26.206 27.1123 25.6485 29.5517C25.5788 29.9002 25.7879 30.3183 26.206 30.388H26.3454C26.6939 30.388 26.9727 30.1789 27.0424 29.8305C27.6 27.3214 27.8788 24.6729 27.8091 21.885C27.6697 19.3062 25.8576 17.0759 23.2788 16.5183Z" fill="#FF7F57"/>
<path d="M30.2486 21.8152C30.1789 19.6546 29.2728 17.6334 27.6698 16.1001C26.0667 14.6364 23.9758 13.8001 21.8152 13.8698C20.6304 13.9395 19.5152 14.2182 18.4698 14.7061C15.6122 16.1001 13.8001 19.097 13.9395 22.2334C14.0092 23.8364 13.8001 25.4395 13.4516 26.9031C13.3819 27.2516 13.591 27.6698 13.9395 27.7395H14.0789C14.3576 27.7395 14.7061 27.5304 14.7758 27.1819C15.194 25.5789 15.3334 23.9061 15.3334 22.1637C15.2637 19.5152 16.7273 17.0758 19.097 15.891C19.9334 15.4728 20.9092 15.2637 21.8849 15.194C23.6273 15.1243 25.4395 15.8213 26.694 17.0061C28.0183 18.2607 28.7849 19.9334 28.7849 21.7455V24.394C28.7849 24.8122 29.0637 25.091 29.4819 25.091C29.9001 25.091 30.1789 24.8122 30.1789 24.394C30.2486 23.6273 30.2486 22.7213 30.2486 21.8152Z" fill="#FF7F57"/>
<path d="M20.2121 18.191C20.5606 18.0516 20.7 17.6334 20.5606 17.285C20.4212 16.9365 20.003 16.7971 19.6545 16.9365C17.703 17.9122 16.4485 20.0031 16.5182 22.1637C16.5879 24.3244 16.3091 26.3456 15.7515 28.2274C15.6121 28.5759 15.8212 28.9941 16.2394 29.0637H16.4485C16.7273 29.0637 17.006 28.8547 17.1454 28.5759C17.7727 26.5547 18.0515 24.3244 17.9818 22.094C17.7727 20.491 18.6788 18.9577 20.2121 18.191Z" fill="#FF7F57"/>
<path d="M24.5334 24.9517C24.1152 24.9517 23.8364 25.1608 23.7667 25.5789C23.6273 27.0426 23.3485 28.4365 23 29.8304C22.9303 30.0395 22.9303 30.1789 23 30.388C23.1394 30.5971 23.3485 30.8062 23.6273 30.8062C23.7667 30.8062 23.8364 30.8062 23.9061 30.7365C24.1152 30.6668 24.1849 30.4577 24.2546 30.3183C24.6728 28.8547 24.9515 27.3214 25.0909 25.788C25.1606 25.3001 24.8818 24.9517 24.5334 24.9517Z" fill="#FF7F57"/>
<path d="M24.2546 19.7244C23.6273 19.1668 22.7909 18.8183 21.9546 18.888C20.2122 18.9577 18.8182 20.4213 18.8879 22.1637C18.9576 24.6728 18.6788 27.0425 17.9818 29.2728C17.8425 29.6213 18.0515 30.0395 18.4697 30.1789H18.6788C18.9576 30.1789 19.2364 29.9698 19.3758 29.691C20.0728 27.3213 20.4212 24.8122 20.3515 22.1637C20.3515 21.188 21.1182 20.3516 22.094 20.3516C22.5819 20.3516 23 20.491 23.3485 20.8395C23.697 21.188 23.9061 21.6062 23.9061 22.094V22.9304C23.9061 23.3486 24.1849 23.6274 24.6031 23.6274C25.0212 23.6274 25.3 23.2789 25.3 22.9304C25.3 22.6516 25.3 22.3728 25.3 22.0244C25.2303 21.0486 24.8818 20.2819 24.2546 19.7244Z" fill="#FF7F57"/>
<path d="M21.5365 28.1576C21.188 28.0879 20.7698 28.297 20.7001 28.6455C20.6304 28.994 20.491 29.4122 20.4213 29.7607C20.2819 30.1092 20.491 30.5273 20.9092 30.597H21.1183C21.3971 30.597 21.6758 30.3879 21.8152 30.1092C21.9546 29.7607 22.0243 29.3425 22.1637 28.9243C22.1637 28.6455 21.9546 28.2273 21.5365 28.1576Z" fill="#FF7F57"/>
<path d="M22.0939 21.3274C21.6758 21.3274 21.397 21.6759 21.397 22.0244C21.4667 23.5577 21.3273 25.0213 21.1879 26.4153C21.1182 26.7638 21.397 27.1819 21.7455 27.1819H21.8151C22.1636 27.1819 22.4424 26.9031 22.5121 26.5547C22.7212 25.0213 22.7909 23.488 22.7909 21.885C22.7909 21.6062 22.4424 21.3274 22.0939 21.3274Z" fill="#FF7F57"/>
<path d="M40.8425 25.0213C40.6334 25.0213 40.494 25.0213 40.2849 25.091C39.9364 24.394 39.5182 23.7667 39.0303 23.0697C41.8879 18.9576 42.8637 14.9152 41.1212 11.9182C40.2152 10.3152 38.5425 9.13035 36.3122 8.50308C34.5697 8.0152 32.6182 7.94551 30.4576 8.1546C30.1788 7.59702 29.9 7.10914 29.6212 6.62126C30.1788 5.99399 30.5273 5.15763 30.5273 4.32126C30.5273 2.36975 28.994 0.836415 27.0425 0.836415C26.2061 0.836415 25.4394 1.1152 24.8819 1.60308C23.9061 0.975809 22.8606 0.697021 21.8152 0.697021C18.3303 0.697021 15.2637 3.4849 13.1728 8.0849C8.22428 7.59702 4.25155 8.85157 2.50913 11.8485C0.766701 14.8455 1.67276 18.8879 4.53034 23.0001C1.67276 27.1122 0.766701 31.1546 2.50913 34.1516C3.0667 35.0576 3.83337 35.8243 4.73943 36.4516C4.73943 36.6607 4.66973 36.8001 4.66973 37.0091C4.66973 38.9607 6.20306 40.494 8.15458 40.494C9.68791 40.494 11.0122 39.4485 11.5 37.9849C12.0576 37.9849 12.6152 37.9849 13.1728 37.9152C15.2637 42.4455 18.3303 45.3031 21.8152 45.3031C25.3 45.3031 28.3667 42.5152 30.4576 37.9152C31.0849 37.9849 31.7122 37.9849 32.3394 37.9849C33.7334 37.9849 35.0576 37.8455 36.2425 37.497C38.4728 36.8698 40.1455 35.7546 41.0516 34.0819C41.4697 33.3849 41.7485 32.5485 41.8182 31.7122C43.2122 31.294 44.2576 29.9697 44.2576 28.4364C44.3273 26.5546 42.794 25.0213 40.8425 25.0213ZM35.9637 9.82733C37.8455 10.3152 39.1697 11.291 39.9364 12.5455C41.3303 14.9849 40.5637 18.3304 38.194 21.8849C36.7303 20.0728 34.9879 18.2607 32.897 16.6576C32.4788 14.0788 31.8515 11.6394 31.0152 9.47884C32.8273 9.33945 34.5 9.40914 35.9637 9.82733ZM33.1758 18.6091C34.7788 20.0031 36.2425 21.4667 37.3576 23.0001C36.2425 24.4637 34.7788 25.9273 33.1758 27.3213C33.3152 25.9273 33.3849 24.4637 33.3849 22.9304C33.3849 21.5364 33.3152 20.0728 33.1758 18.6091ZM31.9909 23.0001C31.9909 24.9516 31.8516 26.8334 31.6425 28.6455C30.1788 29.7607 28.6455 30.8061 26.9728 31.7819C25.3 32.7576 23.6273 33.594 21.8849 34.291C20.2122 33.594 18.4697 32.7576 16.797 31.7819C15.1243 30.8061 13.5212 29.7607 12.1273 28.6455C11.8485 26.8334 11.7788 24.9516 11.7788 23.0001C11.7788 21.0485 11.9182 19.1667 12.1273 17.3546C13.5909 16.2394 15.1243 15.194 16.797 14.2182C18.4697 13.2425 20.2122 12.4061 21.8849 11.7091C23.5576 12.4061 25.2303 13.2425 26.9728 14.2182C28.6455 15.194 30.2485 16.2394 31.6425 17.3546C31.8516 19.1667 31.9909 21.0485 31.9909 23.0001ZM29.5515 9.61823C30.2485 11.3607 30.8061 13.3122 31.2243 15.4031C30.0394 14.5667 28.8546 13.8001 27.5303 13.0334C26.2758 12.2667 24.9515 11.6394 23.697 11.0819C25.7879 10.3152 27.7394 9.82732 29.5515 9.61823ZM21.8152 2.09096C22.5122 2.09096 23.2788 2.23035 23.9758 2.57884C23.697 3.06672 23.5576 3.62429 23.5576 4.18187C23.5576 6.13339 25.0909 7.66672 27.0425 7.66672C27.5303 7.66672 28.0182 7.52733 28.5061 7.31823C28.6455 7.59702 28.8546 7.94551 28.994 8.22429C26.694 8.57278 24.3243 9.20005 21.8849 10.1758C19.3758 9.20005 16.9364 8.50308 14.7061 8.1546C16.5182 4.46066 19.0273 2.09096 21.8152 2.09096ZM14.0788 9.54854C15.8909 9.82732 17.9122 10.3152 19.9334 11.0122C18.6091 11.5697 17.2849 12.2667 16.0303 13.0334C14.7061 13.8001 13.5212 14.5667 12.3364 15.4031C12.7546 13.2425 13.3819 11.291 14.0788 9.54854ZM3.69397 12.5455C5.08791 10.1061 8.36367 9.13036 12.6152 9.40914C11.7788 11.5001 11.1515 13.9394 10.7334 16.5879C8.64246 18.2607 6.83034 20.0031 5.4364 21.8152C3.0667 18.3304 2.30003 14.9849 3.69397 12.5455ZM10.5243 27.391C8.85155 25.997 7.45761 24.4637 6.34246 23.0001C7.45761 21.5364 8.92125 20.0728 10.5243 18.6091C10.3849 20.0031 10.3152 21.4667 10.3152 23.0001C10.3152 24.5334 10.3849 25.9273 10.5243 27.391ZM11.6394 36.591C11.4303 34.8485 9.9667 33.5243 8.22428 33.5243C6.96973 33.5243 5.92428 34.1516 5.297 35.1273C4.66973 34.7091 4.11216 34.1516 3.76367 33.4546C2.36973 31.0152 3.1364 27.6698 5.5061 24.1849C6.90003 25.997 8.71216 27.7394 10.8031 29.4122C11.2212 32.0607 11.8485 34.4304 12.6849 36.591C12.2667 36.591 11.9879 36.591 11.6394 36.591ZM12.4061 30.6667C13.5909 31.5031 14.7758 32.2698 16.1 33.0364C17.4243 33.8031 18.6788 34.4304 20.0031 34.9879C17.9819 35.6849 15.9606 36.1728 14.0788 36.4516C13.3819 34.7091 12.7546 32.7576 12.4061 30.6667ZM21.8152 43.9091C19.0273 43.9091 16.4485 41.5394 14.6364 37.7758C16.9364 37.4273 19.3758 36.8001 21.8152 35.8243C24.2546 36.8001 26.694 37.4273 28.994 37.7758C27.1819 41.5394 24.6031 43.9091 21.8152 43.9091ZM29.6212 36.3819C27.7394 36.1031 25.7879 35.6152 23.7667 34.9182C25.0909 34.3607 26.3455 33.6637 27.6697 32.9667C28.994 32.2001 30.1788 31.4334 31.3637 30.597C30.8758 32.7576 30.3182 34.7091 29.6212 36.3819ZM39.9364 33.4546C39.1697 34.7788 37.8455 35.6849 35.9637 36.1728C34.5697 36.5213 32.897 36.6607 31.0849 36.5213C31.9212 34.4304 32.5485 31.991 32.9667 29.3425C35.0576 27.6698 36.8 25.9273 38.2637 24.1152C38.5425 24.5334 38.8212 25.0213 39.1 25.4394C38.1243 26.0667 37.497 27.1122 37.497 28.3667C37.497 30.1788 38.8909 31.6425 40.6334 31.7819C40.4243 32.4788 40.2152 32.9667 39.9364 33.4546Z" fill="#91AD37"/>
</svg>
