<svg width="46" height="46" viewBox="0 0 46 46" fill="none" xmlns="http://www.w3.org/2000/svg">
<path d="M23.2788 16.5182C22.9303 16.4485 22.5121 16.6575 22.4424 17.0757C22.3727 17.4242 22.5818 17.8424 23 17.9121C24.8818 18.3303 26.2758 20.0727 26.3455 21.9545C26.4152 24.603 26.2061 27.1121 25.6485 29.5515C25.5788 29.9 25.7879 30.3182 26.2061 30.3878H26.3455C26.694 30.3878 26.9727 30.1788 27.0424 29.8303C27.6 27.3212 27.8788 24.6727 27.8091 21.8848C27.6697 19.306 25.8576 17.0757 23.2788 16.5182Z" fill="#FF7F57"/>
<path d="M30.2485 21.8152C30.1788 19.6545 29.2727 17.6333 27.6697 16.1C26.0667 14.6364 23.9758 13.8 21.8152 13.8697C20.6303 13.9394 19.5152 14.2182 18.4697 14.7061C15.6121 16.1 13.8 19.097 13.9394 22.2333C14.0091 23.8364 13.8 25.4394 13.4515 26.903C13.3818 27.2515 13.5909 27.6697 13.9394 27.7394H14.0788C14.3576 27.7394 14.7061 27.5303 14.7758 27.1818C15.194 25.5788 15.3333 23.9061 15.3333 22.1636C15.2636 19.5152 16.7273 17.0758 19.097 15.8909C19.9333 15.4727 20.9091 15.2636 21.8849 15.1939C23.6273 15.1242 25.4394 15.8212 26.6939 17.0061C28.0182 18.2606 28.7849 19.9333 28.7849 21.7455V24.3939C28.7849 24.8121 29.0636 25.0909 29.4818 25.0909C29.9 25.0909 30.1788 24.8121 30.1788 24.3939C30.2485 23.6273 30.2485 22.7212 30.2485 21.8152Z" fill="#FF7F57"/>
<path d="M20.2121 18.1909C20.5606 18.0515 20.7 17.6333 20.5606 17.2848C20.4212 16.9364 20.003 16.797 19.6546 16.9364C17.703 17.9121 16.4485 20.003 16.5182 22.1636C16.5879 24.3242 16.3091 26.3454 15.7515 28.2273C15.6121 28.5757 15.8212 28.9939 16.2394 29.0636H16.4485C16.7273 29.0636 17.0061 28.8545 17.1455 28.5757C17.7727 26.5545 18.0515 24.3242 17.9818 22.0939C17.7727 20.4909 18.6788 18.9576 20.2121 18.1909Z" fill="#FF7F57"/>
<path d="M24.5333 24.9515C24.1151 24.9515 23.8364 25.1606 23.7667 25.5788C23.6273 27.0424 23.3485 28.4364 23 29.8303C22.9303 30.0394 22.9303 30.1788 23 30.3879C23.1394 30.597 23.3485 30.8061 23.6273 30.8061C23.7667 30.8061 23.8364 30.8061 23.9061 30.7364C24.1151 30.6667 24.1848 30.4576 24.2545 30.3182C24.6727 28.8546 24.9515 27.3212 25.0909 25.7879C25.1606 25.3 24.8818 24.9515 24.5333 24.9515Z" fill="#FF7F57"/>
<path d="M24.2545 19.7242C23.6273 19.1667 22.7909 18.8182 21.9545 18.8879C20.2121 18.9576 18.8182 20.4212 18.8879 22.1636C18.9576 24.6727 18.6788 27.0424 17.9818 29.2727C17.8424 29.6212 18.0515 30.0394 18.4697 30.1788H18.6788C18.9576 30.1788 19.2364 29.9697 19.3758 29.6909C20.0727 27.3212 20.4212 24.8121 20.3515 22.1636C20.3515 21.1879 21.1182 20.3515 22.0939 20.3515C22.5818 20.3515 23 20.4909 23.3485 20.8394C23.697 21.1879 23.9061 21.606 23.9061 22.0939V22.9303C23.9061 23.3485 24.1848 23.6273 24.603 23.6273C25.0212 23.6273 25.3 23.2788 25.3 22.9303C25.3 22.6515 25.3 22.3727 25.3 22.0242C25.2303 21.0485 24.8818 20.2818 24.2545 19.7242Z" fill="#FF7F57"/>
<path d="M21.5364 28.1576C21.1879 28.0879 20.7697 28.297 20.7 28.6455C20.6303 28.9939 20.4909 29.4121 20.4212 29.7606C20.2818 30.1091 20.4909 30.5273 20.9091 30.597H21.1182C21.397 30.597 21.6758 30.3879 21.8151 30.1091C21.9545 29.7606 22.0242 29.3424 22.1636 28.9242C22.1636 28.6455 21.9545 28.2273 21.5364 28.1576Z" fill="#FF7F57"/>
<path d="M22.0939 21.3273C21.6758 21.3273 21.397 21.6758 21.397 22.0242C21.4667 23.5576 21.3273 25.0212 21.1879 26.4152C21.1182 26.7636 21.397 27.1818 21.7455 27.1818H21.8151C22.1636 27.1818 22.4424 26.903 22.5121 26.5545C22.7212 25.0212 22.7909 23.4879 22.7909 21.8848C22.7909 21.6061 22.4424 21.3273 22.0939 21.3273Z" fill="#FF7F57"/>
<path d="M40.8424 25.0212C40.6333 25.0212 40.4939 25.0212 40.2849 25.0909C39.9364 24.3939 39.5182 23.7667 39.0303 23.0697C41.8879 18.9576 42.8636 14.9151 41.1212 11.9182C40.2152 10.3151 38.5424 9.13029 36.3121 8.50302C34.5697 8.01514 32.6182 7.94545 30.4576 8.15454C30.1788 7.59696 29.9 7.10908 29.6212 6.6212C30.1788 5.99393 30.5273 5.15757 30.5273 4.3212C30.5273 2.36969 28.9939 0.836354 27.0424 0.836354C26.2061 0.836354 25.4394 1.11514 24.8818 1.60302C23.9061 0.975748 22.8606 0.69696 21.8152 0.69696C18.3303 0.69696 15.2636 3.48484 13.1727 8.08484C8.22425 7.59696 4.25152 8.85151 2.50909 11.8485C0.766671 14.8454 1.67273 18.8879 4.53031 23C1.67273 27.1121 0.766671 31.1545 2.50909 34.1515C3.06667 35.0576 3.83334 35.8242 4.7394 36.4515C4.7394 36.6606 4.6697 36.8 4.6697 37.0091C4.6697 38.9606 6.20303 40.4939 8.15455 40.4939C9.68788 40.4939 11.0121 39.4485 11.5 37.9848C12.0576 37.9848 12.6152 37.9848 13.1727 37.9151C15.2636 42.4454 18.3303 45.303 21.8152 45.303C25.3 45.303 28.3667 42.5151 30.4576 37.9151C31.0849 37.9848 31.7121 37.9848 32.3394 37.9848C33.7333 37.9848 35.0576 37.8454 36.2424 37.497C38.4727 36.8697 40.1455 35.7545 41.0515 34.0818C41.4697 33.3848 41.7485 32.5485 41.8182 31.7121C43.2121 31.2939 44.2576 29.9697 44.2576 28.4364C44.3273 26.5545 42.7939 25.0212 40.8424 25.0212ZM35.9636 9.82726C37.8455 10.3151 39.1697 11.2909 39.9364 12.5454C41.3303 14.9848 40.5636 18.3303 38.1939 21.8848C36.7303 20.0727 34.9879 18.2606 32.897 16.6576C32.4788 14.0788 31.8515 11.6394 31.0152 9.47878C32.8273 9.33939 34.5 9.40908 35.9636 9.82726ZM33.1758 18.6091C34.7788 20.003 36.2424 21.4667 37.3576 23C36.2424 24.4636 34.7788 25.9273 33.1758 27.3212C33.3152 25.9273 33.3849 24.4636 33.3849 22.9303C33.3849 21.5364 33.3152 20.0727 33.1758 18.6091ZM31.9909 23C31.9909 24.9515 31.8515 26.8333 31.6424 28.6454C30.1788 29.7606 28.6455 30.8061 26.9727 31.7818C25.3 32.7576 23.6273 33.5939 21.8849 34.2909C20.2121 33.5939 18.4697 32.7576 16.797 31.7818C15.1242 30.8061 13.5212 29.7606 12.1273 28.6454C11.8485 26.8333 11.7788 24.9515 11.7788 23C11.7788 21.0485 11.9182 19.1667 12.1273 17.3545C13.5909 16.2394 15.1242 15.1939 16.797 14.2182C18.4697 13.2424 20.2121 12.4061 21.8849 11.7091C23.5576 12.4061 25.2303 13.2424 26.9727 14.2182C28.6455 15.1939 30.2485 16.2394 31.6424 17.3545C31.8515 19.1667 31.9909 21.0485 31.9909 23ZM29.5515 9.61817C30.2485 11.3606 30.8061 13.3121 31.2242 15.403C30.0394 14.5667 28.8545 13.8 27.5303 13.0333C26.2758 12.2667 24.9515 11.6394 23.697 11.0818C25.7879 10.3151 27.7394 9.82726 29.5515 9.61817ZM21.8152 2.0909C22.5121 2.0909 23.2788 2.23029 23.9758 2.57878C23.697 3.06666 23.5576 3.62423 23.5576 4.18181C23.5576 6.13332 25.0909 7.66666 27.0424 7.66666C27.5303 7.66666 28.0182 7.52726 28.5061 7.31817C28.6455 7.59696 28.8545 7.94545 28.9939 8.22423C26.6939 8.57272 24.3242 9.19999 21.8849 10.1757C19.3758 9.19999 16.9364 8.50302 14.7061 8.15454C16.5182 4.4606 19.0273 2.0909 21.8152 2.0909ZM14.0788 9.54848C15.8909 9.82726 17.9121 10.3151 19.9333 11.0121C18.6091 11.5697 17.2849 12.2667 16.0303 13.0333C14.7061 13.8 13.5212 14.5667 12.3364 15.403C12.7545 13.2424 13.3818 11.2909 14.0788 9.54848ZM3.69394 12.5454C5.08788 10.1061 8.36364 9.13029 12.6152 9.40908C11.7788 11.5 11.1515 13.9394 10.7333 16.5879C8.64243 18.2606 6.83031 20.003 5.43637 21.8151C3.06667 18.3303 2.3 14.9848 3.69394 12.5454ZM10.5242 27.3909C8.85152 25.997 7.45758 24.4636 6.34243 23C7.45758 21.5364 8.92122 20.0727 10.5242 18.6091C10.3849 20.003 10.3152 21.4667 10.3152 23C10.3152 24.5333 10.3849 25.9273 10.5242 27.3909ZM11.6394 36.5909C11.4303 34.8485 9.96667 33.5242 8.22425 33.5242C6.9697 33.5242 5.92425 34.1515 5.29697 35.1273C4.6697 34.7091 4.11213 34.1515 3.76364 33.4545C2.3697 31.0151 3.13637 27.6697 5.50606 24.1848C6.9 25.997 8.71213 27.7394 10.803 29.4121C11.2212 32.0606 11.8485 34.4303 12.6849 36.5909C12.2667 36.5909 11.9879 36.5909 11.6394 36.5909ZM12.4061 30.6667C13.5909 31.503 14.7758 32.2697 16.1 33.0364C17.4242 33.803 18.6788 34.4303 20.003 34.9879C17.9818 35.6848 15.9606 36.1727 14.0788 36.4515C13.3818 34.7091 12.7545 32.7576 12.4061 30.6667ZM21.8152 43.9091C19.0273 43.9091 16.4485 41.5394 14.6364 37.7758C16.9364 37.4273 19.3758 36.8 21.8152 35.8242C24.2545 36.8 26.6939 37.4273 28.9939 37.7758C27.1818 41.5394 24.603 43.9091 21.8152 43.9091ZM29.6212 36.3818C27.7394 36.103 25.7879 35.6151 23.7667 34.9182C25.0909 34.3606 26.3455 33.6636 27.6697 32.9667C28.9939 32.2 30.1788 31.4333 31.3636 30.597C30.8758 32.7576 30.3182 34.7091 29.6212 36.3818ZM39.9364 33.4545C39.1697 34.7788 37.8455 35.6848 35.9636 36.1727C34.5697 36.5212 32.897 36.6606 31.0849 36.5212C31.9212 34.4303 32.5485 31.9909 32.9667 29.3424C35.0576 27.6697 36.8 25.9273 38.2636 24.1151C38.5424 24.5333 38.8212 25.0212 39.1 25.4394C38.1242 26.0667 37.497 27.1121 37.497 28.3667C37.497 30.1788 38.8909 31.6424 40.6333 31.7818C40.4242 32.4788 40.2152 32.9667 39.9364 33.4545Z" fill="#66855F"/>
</svg>
