<svg width="45" height="45" viewBox="0 0 45 45" fill="none" xmlns="http://www.w3.org/2000/svg">
<g clip-path="url(#clip0_36_1966)">
<path d="M7.5 29.25H4.5C3.67157 29.25 3 29.9216 3 30.75V32.25C3 33.0784 3.67157 33.75 4.5 33.75H7.5C8.32843 33.75 9 33.0784 9 32.25V30.75C9 29.9216 8.32843 29.25 7.5 29.25ZM4.5 32.25V30.75H7.5V32.25H4.5Z" fill="#91AD37"/>
<path d="M23.25 29.25H12.75C11.9216 29.25 11.25 29.9216 11.25 30.75V32.25C11.25 33.0784 11.9216 33.75 12.75 33.75H23.25C24.0784 33.75 24.75 33.0784 24.75 32.25V30.75C24.75 29.9216 24.0784 29.25 23.25 29.25ZM18.75 30.75H20.25V32.25H18.75V30.75ZM17.25 32.25H15.75V30.75H17.25V32.25ZM12.75 30.75H14.25V32.25H12.75V30.75ZM21.75 32.25V30.75H23.25V32.25H21.75Z" fill="#91AD37"/>
<path d="M27 30.75V32.25C27 33.0784 27.6716 33.75 28.5 33.75H31.5C32.3284 33.75 33 33.0784 33 32.25V30.75C33 29.9216 32.3284 29.25 31.5 29.25H28.5C27.6716 29.25 27 29.9216 27 30.75ZM31.5 32.25H28.5V30.75H31.5V32.25Z" fill="#91AD37"/>
<path d="M41.25 0H17.25C15.18 0.00247959 13.5025 1.67996 13.5 3.75V15.75H11.0603C9.51154 15.7558 8.12366 16.7075 7.56001 18.15L5.88826 22.5H3.75001C2.50993 22.5062 1.50617 23.5099 1.50001 24.75C1.50276 25.5808 1.96449 26.3421 2.70001 26.7285L1.40626 27.7635C0.514908 28.4735 -0.00305005 29.5519 1.35139e-05 30.6915V37.5C0.00512463 38.8638 0.9295 40.0526 2.25001 40.3935V42.75C2.25001 43.9926 3.25737 45 4.50001 45H7.50001C8.74265 45 9.75001 43.9926 9.75001 42.75V40.5H26.25V42.75C26.25 43.9926 27.2574 45 28.5 45H31.5C32.7427 45 33.75 43.9926 33.75 42.75V40.3935C35.0705 40.0526 35.9949 38.8638 36 37.5V30.6915C36.0015 29.553 35.4835 28.476 34.593 27.7665L33.3 26.7285C34.0355 26.3421 34.4973 25.5808 34.5 24.75C34.4939 23.5099 33.4901 22.5062 32.25 22.5H30.111L29.5343 21H41.25C43.3201 20.9975 44.9975 19.32 45 17.25V3.75C44.9975 1.67996 43.3201 0.00247959 41.25 0ZM8.96026 18.6922C9.29778 17.826 10.1305 17.254 11.0603 17.25H24.9398C25.8695 17.254 26.7023 17.826 27.0398 18.6922L29.658 25.5H6.34201L8.96026 18.6922ZM3.22951 24.216C3.36631 24.076 3.55432 23.998 3.75001 24H5.31151L4.73476 25.5H3.75001C3.3358 25.5 3.00001 25.1642 3.00001 24.75C2.99936 24.5479 3.08244 24.3546 3.22951 24.216ZM1.50001 37.5V36.75H12V39H3.00001C2.17159 39 1.50001 38.3284 1.50001 37.5ZM8.25001 42.75C8.25001 43.1642 7.91423 43.5 7.50001 43.5H4.50001C4.0858 43.5 3.75001 43.1642 3.75001 42.75V40.5H8.25001V42.75ZM13.5 39V36.75H22.5V39H13.5ZM32.25 42.75C32.25 43.1642 31.9142 43.5 31.5 43.5H28.5C28.0858 43.5 27.75 43.1642 27.75 42.75V40.5H32.25V42.75ZM34.5 37.5C34.5 38.3284 33.8284 39 33 39H24V36.75H34.5V37.5ZM34.5 30.6915L34.5 35.25H1.50001L1.50001 30.6915C1.49863 30.0078 1.80964 29.3609 2.34451 28.935L4.55776 27.1643C4.69042 27.0582 4.85516 27.0003 5.02501 27H30.975C31.1454 26.9999 31.3107 27.0578 31.4438 27.1643L33.657 28.935C34.1916 29.361 34.5021 30.008 34.5 30.6915ZM32.25 24C32.4521 23.9993 32.6454 24.0824 32.784 24.2295C32.924 24.3663 33.002 24.5543 33 24.75C33 25.1642 32.6642 25.5 32.25 25.5H31.2653L30.6885 24L32.25 24ZM43.5 17.25C43.5 18.4926 42.4927 19.5 41.25 19.5H28.9575L28.4393 18.15C27.8761 16.7075 26.4883 15.7557 24.9398 15.75H15V3.75C15 2.50736 16.0074 1.5 17.25 1.5H41.25C42.4927 1.5 43.5 2.50736 43.5 3.75V17.25Z" fill="#91AD37"/>
<path d="M38.4652 14.9843H37.5172C37.1948 14.687 37.0799 14.2267 37.2247 13.8128C38.2293 13.3649 39.047 12.5817 39.5377 11.5973C40.4851 11.4882 41.2059 10.6953 41.2244 9.74177C41.218 9.05156 40.8308 8.42137 40.2179 8.10377C40.5592 6.70877 40.5179 4.78727 38.8312 3.84377C37.8014 3.26852 36.3127 3.32777 34.7369 3.39377C33.0637 3.46052 31.1639 3.53702 30.6869 2.64377C30.5315 2.35352 30.2049 2.19859 29.8818 2.2618C29.5587 2.32502 29.3146 2.59159 29.2799 2.91902C29.2642 3.06302 28.9874 5.86352 30.4799 7.39952V8.01002C29.7609 8.28458 29.2827 8.97066 29.2739 9.74027C29.2925 10.694 30.0137 11.487 30.9614 11.5958C31.4512 12.5808 32.2688 13.3645 33.2737 13.812C33.4182 14.2257 33.3033 14.6857 32.9812 14.9828H32.0347C31.6205 14.9828 31.2847 15.3186 31.2847 15.7328C31.2847 16.147 31.6205 16.4828 32.0347 16.4828H32.6054C33 17.605 34.06 18.356 35.2496 18.356C36.4392 18.356 37.4992 17.605 37.8937 16.4828H38.4652C39.4528 16.447 40.3193 17.1356 40.5074 18.1058C40.5667 18.5158 40.9471 18.8003 41.3572 18.741C41.7673 18.6818 42.0517 18.3013 41.9924 17.8913C41.6943 16.1851 40.1969 14.951 38.4652 14.9843ZM32.1652 10.5923C32.0324 10.286 31.7272 10.0908 31.3934 10.0988C31.3398 10.0986 31.2862 10.1041 31.2337 10.1153C31.0837 10.1422 30.9321 10.0772 30.8482 9.94997C30.7644 9.82275 30.7644 9.65779 30.8482 9.53057C30.9321 9.40335 31.0837 9.33833 31.2337 9.36527C31.6479 9.36527 31.9837 9.02948 31.9837 8.61527V8.24027C32.3632 8.26672 32.7024 8.00486 32.7729 7.63103C32.8433 7.2572 32.6228 6.88981 32.2597 6.77627C31.3102 6.48077 30.9487 5.46677 30.8197 4.57427C32.1149 4.92675 33.4647 5.03334 34.7992 4.88852C36.0967 4.83527 37.4414 4.78202 38.0992 5.15027C39.5047 5.93627 38.5814 8.31377 38.5732 8.33627C38.4803 8.56729 38.5082 8.82934 38.6475 9.03569C38.7868 9.24205 39.0195 9.36581 39.2684 9.36602C39.4972 9.34592 39.7 9.51266 39.7244 9.74102C39.7244 9.94652 39.5129 10.1265 39.1994 10.1078C38.8323 10.0326 38.4657 10.2383 38.3384 10.5908C37.8584 11.8802 36.6274 12.7355 35.2514 12.7355C33.8755 12.7355 32.6445 11.8802 32.1644 10.5908L32.1652 10.5923ZM35.2499 16.857C34.7146 16.873 34.2291 16.5446 34.0447 16.0418C34.5478 15.5649 34.8292 14.8997 34.8209 14.2065C34.9634 14.2193 35.1052 14.2365 35.2499 14.2365C35.3947 14.2365 35.5364 14.2193 35.6789 14.2065C35.6704 14.8998 35.9518 15.5651 36.4552 16.0418C36.2706 16.5444 35.7852 16.8728 35.2499 16.857Z" fill="#FF7F57"/>
<path d="M18 4.5H17.25C16.8358 4.5 16.5 4.83579 16.5 5.25C16.5 5.66421 16.8358 6 17.25 6H18C18.4142 6 18.75 5.66421 18.75 5.25C18.75 4.83579 18.4142 4.5 18 4.5Z" fill="#FF7F57"/>
<path d="M27 4.5H21C20.5858 4.5 20.25 4.83579 20.25 5.25C20.25 5.66421 20.5858 6 21 6H27C27.4142 6 27.75 5.66421 27.75 5.25C27.75 4.83579 27.4142 4.5 27 4.5Z" fill="#FF7F57"/>
<path d="M18 7.5H17.25C16.8358 7.5 16.5 7.83579 16.5 8.25C16.5 8.66421 16.8358 9 17.25 9H18C18.4142 9 18.75 8.66421 18.75 8.25C18.75 7.83579 18.4142 7.5 18 7.5Z" fill="#FF7F57"/>
<path d="M27 7.5H21C20.5858 7.5 20.25 7.83579 20.25 8.25C20.25 8.66421 20.5858 9 21 9H27C27.4142 9 27.75 8.66421 27.75 8.25C27.75 7.83579 27.4142 7.5 27 7.5Z" fill="#FF7F57"/>
<path d="M18 10.5H17.25C16.8358 10.5 16.5 10.8358 16.5 11.25C16.5 11.6642 16.8358 12 17.25 12H18C18.4142 12 18.75 11.6642 18.75 11.25C18.75 10.8358 18.4142 10.5 18 10.5Z" fill="#FF7F57"/>
<path d="M27 10.5H21C20.5858 10.5 20.25 10.8358 20.25 11.25C20.25 11.6642 20.5858 12 21 12H27C27.4142 12 27.75 11.6642 27.75 11.25C27.75 10.8358 27.4142 10.5 27 10.5Z" fill="#FF7F57"/>
</g>
<defs>
<clipPath id="clip0_36_1966">
<rect width="45" height="45" fill="white"/>
</clipPath>
</defs>
</svg>
