<svg width="45" height="45" viewBox="0 0 45 45" fill="none" xmlns="http://www.w3.org/2000/svg">
<g clip-path="url(#clip0_36_1982)">
<mask id="mask0_36_1982" style="mask-type:luminance" maskUnits="userSpaceOnUse" x="0" y="0" width="45" height="45">
<path d="M0 3.8147e-06H45V45H0V3.8147e-06Z" fill="white"/>
</mask>
<g mask="url(#mask0_36_1982)">
<path d="M41.7386 15.2038C41.8079 13.6646 41.8357 12.1088 41.8357 10.5469C36.4963 10.5469 32.1678 6.21835 32.1678 0.878906H12.8319C12.8319 6.21835 8.50351 10.5469 3.16406 10.5469C3.16406 12.1088 3.19166 13.6647 3.26083 15.2038M5.92216 29.7962C8.5195 36.4358 13.4256 41.6897 22.4999 44.1211C31.5744 41.6896 36.4809 36.4358 39.0783 29.7962" stroke="#91AD37" stroke-width="1.7" stroke-miterlimit="22.926" stroke-linecap="round" stroke-linejoin="round"/>
<path d="M0.878784 15.4688H44.1211M44.1211 29.5312H0.878784" stroke="#91AD37" stroke-width="1.7" stroke-miterlimit="22.926" stroke-linecap="round" stroke-linejoin="round"/>
<path d="M12.4856 18.9845V21.6211C12.4856 22.5879 13.2766 23.3789 14.2434 23.3789C15.2102 23.3789 16.0012 22.5879 16.0012 21.6211V18.9845" stroke="#FF7F57" stroke-width="1.7" stroke-miterlimit="22.926" stroke-linecap="round" stroke-linejoin="round"/>
<path d="M14.2434 23.3788V26.0156" stroke="#FF7F57" stroke-width="1.7" stroke-miterlimit="22.926" stroke-linecap="round" stroke-linejoin="round"/>
<path d="M22.1537 26.0156H19.0775V18.9844H22.1537" stroke="#FF7F57" stroke-width="1.7" stroke-miterlimit="22.926" stroke-linecap="round" stroke-linejoin="round"/>
<path d="M19.3851 22.5H20.9232" stroke="#FF7F57" stroke-width="1.7" stroke-miterlimit="22.926" stroke-linecap="round" stroke-linejoin="round"/>
<path d="M25.0542 26.0156V20.7422C25.0542 19.7754 25.8451 18.9844 26.812 18.9844C27.7788 18.9844 28.5698 19.7754 28.5698 20.7422V26.0156" stroke="#FF7F57" stroke-width="1.7" stroke-miterlimit="22.926" stroke-linecap="round" stroke-linejoin="round"/>
<path d="M25.4276 23.3789H28.1963" stroke="#FF7F57" stroke-width="1.7" stroke-miterlimit="22.926" stroke-linecap="round" stroke-linejoin="round"/>
<path d="M31.6461 26.0156V22.5" stroke="#FF7F57" stroke-width="1.7" stroke-miterlimit="22.926" stroke-linecap="round" stroke-linejoin="round"/>
<path d="M31.6461 18.9844H33.4039C34.3708 18.9844 35.1618 19.7754 35.1618 20.7422C35.1618 21.709 34.3708 22.5 33.4039 22.5H31.6461V18.9844Z" stroke="#FF7F57" stroke-width="1.7" stroke-miterlimit="22.926" stroke-linecap="round" stroke-linejoin="round"/>
<path d="M33.4039 22.5L35.1618 26.0156" stroke="#FF7F57" stroke-width="1.7" stroke-miterlimit="22.926" stroke-linecap="round" stroke-linejoin="round"/>
<path d="M41.0926 19.3088L40.6253 19.1152C39.7476 18.7518 38.7322 19.1723 38.3688 20.0499C38.0052 20.9275 38.4258 21.9429 39.3034 22.3064L39.7707 22.5001L40.238 22.6936C41.1156 23.0571 41.5362 24.0725 41.1726 24.9501C40.8092 25.8278 39.7938 26.2483 38.916 25.8848L38.4488 25.6913" stroke="#FF7F57" stroke-width="1.7" stroke-miterlimit="22.926" stroke-linecap="round" stroke-linejoin="round"/>
<path d="M3.69629 26.0156H5.4541C6.4209 26.0156 7.21191 25.2246 7.21191 24.2578C7.21191 23.291 6.4209 22.5 5.4541 22.5C6.4209 22.5 7.21191 21.709 7.21191 20.7422C7.21191 19.7754 6.4209 18.9844 5.4541 18.9844H3.69629" stroke="#FF7F57" stroke-width="1.7" stroke-miterlimit="22.926" stroke-linecap="round" stroke-linejoin="round"/>
</g>
</g>
<defs>
<clipPath id="clip0_36_1982">
<rect width="45" height="45" fill="white"/>
</clipPath>
</defs>
</svg>
