<svg width="45" height="45" viewBox="0 0 45 45" fill="none" xmlns="http://www.w3.org/2000/svg">
<g clip-path="url(#clip0_36_2021)">
<path d="M6.27962 25.0504C6.26433 25.0504 6.24886 25.0495 6.23322 25.0476C6.02817 25.0223 5.88242 24.8353 5.90777 24.6303L6.15819 22.6056C6.29157 21.5272 7.21153 20.7139 8.2983 20.7139H11.1908C12.2774 20.7139 13.1974 21.5272 13.3309 22.6056L13.5813 24.6303C13.6067 24.8353 13.461 25.0223 13.2559 25.0476C13.0508 25.0728 12.8639 24.9273 12.8385 24.7222L12.5881 22.6975C12.5011 21.9933 11.9004 21.4625 11.1909 21.4625H8.29847C7.58897 21.4625 6.98835 21.9935 6.90121 22.6975L6.65079 24.7222C6.62715 24.9117 6.46585 25.0504 6.27962 25.0504Z" fill="#91AD37" stroke="#91AD37" stroke-width="0.5"/>
<path d="M9.74436 20.1831C8.29889 20.1831 7.12292 19.007 7.12292 17.5616C7.12292 16.1162 8.29898 14.9402 9.74436 14.9402C11.1897 14.9402 12.3658 16.1162 12.3658 17.5616C12.3658 19.007 11.19 20.1831 9.74436 20.1831ZM9.74436 15.6886C8.71157 15.6886 7.87135 16.5288 7.87135 17.5616C7.87135 18.5944 8.71157 19.4346 9.74436 19.4346C10.7772 19.4346 11.6174 18.5944 11.6174 17.5616C11.6175 16.5289 10.7772 15.6886 9.74436 15.6886Z" fill="#91AD37" stroke="#91AD37" stroke-width="0.5"/>
<path d="M14.2814 25.0505H5.20739C4.23303 25.0505 3.44043 24.2579 3.44043 23.2836V14.2096C3.44043 13.2352 4.23303 12.4426 5.20739 12.4426H14.2814C15.2557 12.4426 16.0483 13.2352 16.0483 14.2096V23.2836C16.0484 24.2579 15.2557 25.0505 14.2814 25.0505ZM5.20739 13.1912C4.64579 13.1912 4.18886 13.6482 4.18886 14.2098V23.2837C4.18886 23.8453 4.64579 24.3023 5.20739 24.3023H14.2814C14.843 24.3023 15.2999 23.8453 15.2999 23.2837V14.2097C15.2999 13.6481 14.843 13.1911 14.2814 13.1911L5.20739 13.1912Z" fill="#91AD37" stroke="#91AD37" stroke-width="0.5"/>
<path d="M31.8361 16.0743C31.6294 16.0743 31.4619 15.9068 31.4619 15.7001V10.6755C31.4619 10.3316 31.1821 10.0519 30.8381 10.0519H3.28236C2.69867 10.0519 2.14094 9.83572 1.71185 9.44325C1.27168 9.04063 1.01971 8.49871 1.00227 7.91751C0.981986 7.31595 1.20138 6.74524 1.62007 6.31237C2.03867 5.8795 2.60062 5.64111 3.20252 5.64111H5.78967C5.99635 5.64111 6.16385 5.80861 6.16385 6.01529C6.16385 6.22196 5.99635 6.38946 5.78967 6.38946H3.20252C2.80532 6.38946 2.43442 6.54681 2.15813 6.83264C1.88167 7.11855 1.73695 7.4953 1.75027 7.89379C1.77364 8.67161 2.46088 9.30334 3.28245 9.30334H30.8383C31.595 9.30334 32.2105 9.91882 32.2105 10.6755V15.7001C32.2103 15.9067 32.0428 16.0743 31.8361 16.0743Z" fill="#91AD37" stroke="#91AD37" stroke-width="0.5"/>
<path d="M19.3467 44.2809H2.37216C1.61548 44.2809 1 43.6654 1 42.9087V8.00796C1 7.80128 1.16749 7.63379 1.37417 7.63379C1.58085 7.63379 1.74834 7.80128 1.74834 8.00796V42.9086C1.74834 43.2526 2.02816 43.5324 2.37199 43.5324H19.3465C19.5532 43.5324 19.7207 43.6999 19.7207 43.9065C19.7209 44.1134 19.5534 44.2809 19.3467 44.2809Z" fill="#91AD37" stroke="#91AD37" stroke-width="0.5"/>
<path d="M35.716 23.8056C35.5093 23.8056 35.3418 23.6381 35.3418 23.4313V8.51445C35.3418 8.31525 35.2662 8.12576 35.1285 7.97975L35.099 7.95216C35.0969 7.95019 35.095 7.94838 35.0929 7.94632C34.9521 7.80899 34.7624 7.73345 34.5584 7.73345H29.9154C29.7088 7.73345 29.5413 7.56596 29.5413 7.35928C29.5413 7.1526 29.7088 6.98511 29.9154 6.98511H34.5584C34.9572 6.98511 35.3314 7.13507 35.6124 7.40758L35.6469 7.43998C35.6518 7.44453 35.6564 7.44908 35.661 7.45372C35.9378 7.74067 36.0901 8.11742 36.0901 8.51437V23.4312C36.0903 23.638 35.9227 23.8056 35.716 23.8056Z" fill="#91AD37" stroke="#91AD37" stroke-width="0.5"/>
<path d="M5.79007 10.0513C5.58339 10.0513 5.41589 9.88379 5.41589 9.67711V1.95305C5.41589 1.42745 5.84232 1 6.36645 1H28.5657C29.0619 1 29.5318 1.21312 29.8575 1.58549L29.8731 1.60105C29.8818 1.60973 29.8901 1.61901 29.898 1.62863C30.1542 1.94145 30.2896 2.32017 30.2896 2.72399V7.35946C30.2896 7.56614 30.1222 7.73363 29.9154 7.73363C29.7087 7.73363 29.5412 7.56614 29.5412 7.35946V2.72399C29.5412 2.50081 29.4682 2.29112 29.3299 2.11633L29.3191 2.1055C29.3124 2.09888 29.3059 2.09201 29.2998 2.08487C29.1162 1.87123 28.8486 1.74869 28.5656 1.74869H6.36645C6.25507 1.74869 6.16432 1.84047 6.16432 1.95322V9.67728C6.16432 9.88379 5.99683 10.0513 5.79007 10.0513Z" fill="#91AD37" stroke="#91AD37" stroke-width="0.5"/>
<path d="M35.3922 8.08792C35.2957 8.08792 35.1994 8.05088 35.1261 7.9768L29.3181 2.1034C29.1728 1.95645 29.1741 1.71952 29.3211 1.5742C29.4681 1.42888 29.705 1.43017 29.8503 1.57721L35.6583 7.45061C35.8036 7.59756 35.8023 7.83449 35.6553 7.97981C35.5824 8.05191 35.4873 8.08792 35.3922 8.08792Z" fill="#91AD37" stroke="#91AD37" stroke-width="0.5"/>
<path d="M22.7156 45H22.6409C22.6398 45 22.6386 45 22.6376 45C21.4939 44.9899 20.3853 44.757 19.3425 44.3076C18.335 43.8735 17.4307 43.2566 16.655 42.474C15.8789 41.6912 15.2698 40.7813 14.8446 39.7697C14.4042 38.7222 14.1809 37.6105 14.1809 36.4652C14.1809 35.1179 14.4856 33.8288 15.0868 32.634C15.6436 31.5273 16.4509 30.538 17.4257 29.7669L19.2224 24.8116C19.2761 24.6635 19.4167 24.5649 19.5743 24.5649H25.8312C25.9887 24.5649 26.1293 24.6636 26.183 24.8116L27.97 29.7402C28.9543 30.5104 29.7701 31.5016 30.3334 32.6132C30.9417 33.8138 31.2502 35.1097 31.2502 36.4652C31.2502 37.6168 31.0245 38.7344 30.5792 39.7868C30.1491 40.8031 29.5337 41.7157 28.7499 42.4995C27.9661 43.2833 27.0534 43.8988 26.0372 44.3288C24.9847 44.7743 23.8672 45 22.7156 45ZM22.6427 44.2516H22.7155C27.0089 44.2516 30.5017 40.7587 30.5017 36.4654C30.5017 34.0138 29.3816 31.7549 27.4285 30.268C27.3714 30.2244 27.3279 30.1653 27.3034 30.0978L25.5687 25.3135H19.8365L18.0926 30.1233C18.0683 30.1902 18.0256 30.2488 17.969 30.2922C16.0372 31.7796 14.9292 34.0294 14.9292 36.4652C14.9294 40.7205 18.3895 44.2131 22.6427 44.2516ZM22.7156 42.1973C19.5549 42.1973 16.9836 39.626 16.9836 36.4653C16.9836 33.3046 19.5549 30.7333 22.7156 30.7333C25.8763 30.7333 28.4477 33.3046 28.4477 36.4653C28.4477 39.626 25.8763 42.1973 22.7156 42.1973ZM22.7156 31.4818C19.9677 31.4818 17.7321 33.7174 17.7321 36.4653C17.7321 39.2132 19.9677 41.4488 22.7156 41.4488C25.4636 41.4488 27.6991 39.2132 27.6991 36.4653C27.6991 33.7174 25.4636 31.4818 22.7156 31.4818Z" fill="#FF7F57" stroke="#FF7F57" stroke-width="0.5"/>
<path d="M22.7156 42.1975C19.5549 42.1975 16.9835 39.6261 16.9835 36.4654C16.9835 33.3047 19.5549 30.7334 22.7156 30.7334C25.8762 30.7334 28.4476 33.3047 28.4476 36.4654C28.4476 39.6261 25.8762 42.1975 22.7156 42.1975ZM22.7156 31.4819C19.9676 31.4819 17.732 33.7175 17.732 36.4654C17.732 39.2134 19.9676 41.4489 22.7156 41.4489C25.4635 41.4489 27.6991 39.2134 27.6991 36.4654C27.6991 33.7175 25.4635 31.4819 22.7156 31.4819Z" fill="#FF7F57" stroke="#FF7F57" stroke-width="0.5"/>
<path d="M22.6548 45.0001C22.4497 45.0001 22.2824 44.8347 22.2806 44.6292C22.2788 44.4225 22.4447 44.2535 22.6515 44.2517C23.2274 44.2465 23.696 43.7857 23.696 43.2245C23.696 42.6581 23.2227 42.1974 22.6409 42.1974C22.4342 42.1974 22.2666 42.0299 22.2666 41.8231C22.2666 41.6165 22.4341 41.449 22.6409 41.449C23.6353 41.449 24.4445 42.2455 24.4445 43.2245C24.4445 43.6968 24.258 44.1414 23.9194 44.4767C23.5826 44.81 23.1349 44.9958 22.6583 45.0001C22.6571 45.0001 22.656 45.0001 22.6548 45.0001Z" fill="#FF7F57" stroke="#FF7F57" stroke-width="0.5"/>
<path d="M26.5798 32.7413C26.1366 32.7413 25.7266 32.5762 25.4143 32.2694C25.267 32.1246 25.2647 31.8877 25.4097 31.7402C25.5546 31.5927 25.7915 31.5906 25.9389 31.7355C26.1216 31.9151 26.3481 31.9918 26.5765 31.9918C26.882 31.9918 27.1909 31.8544 27.4037 31.6415C27.5971 31.4482 27.702 31.1894 27.6991 30.9129C27.6962 30.6337 27.5843 30.3697 27.3838 30.1691C27.2377 30.023 27.2377 29.786 27.3838 29.6399C27.5299 29.4938 27.7669 29.4937 27.913 29.6399C28.2527 29.9796 28.4426 30.429 28.4474 30.9052C28.4523 31.3845 28.2696 31.834 27.9327 32.1708C27.599 32.5046 27.1625 32.7056 26.7034 32.7371C26.6621 32.7398 26.6208 32.7413 26.5798 32.7413Z" fill="#FF7F57" stroke="#FF7F57" stroke-width="0.5"/>
<path d="M22.7156 28.5887C22.0241 28.5887 21.4614 28.026 21.4614 27.3345C21.4614 26.643 22.0241 26.0803 22.7156 26.0803C23.4071 26.0803 23.9698 26.643 23.9698 27.3345C23.9698 28.026 23.4071 28.5887 22.7156 28.5887ZM22.7156 26.8288C22.4367 26.8288 22.2099 27.0556 22.2099 27.3344C22.2099 27.6133 22.4368 27.8401 22.7156 27.8401C22.9944 27.8401 23.2213 27.6132 23.2213 27.3344C23.2213 27.0556 22.9945 26.8288 22.7156 26.8288Z" fill="#FF7F57" stroke="#FF7F57" stroke-width="0.5"/>
<path d="M35.035 44.9995H34.9601C34.9589 44.9995 34.9578 44.9995 34.9566 44.9995C33.715 44.988 32.5194 44.7156 31.4035 44.1898C30.3242 43.6814 29.3785 42.9652 28.5926 42.0616C28.4569 41.9056 28.4734 41.6692 28.6294 41.5337C28.7854 41.398 29.0218 41.4145 29.1573 41.5705C30.6206 43.253 32.7361 44.2301 34.9615 44.2511H35.0347C39.3281 44.2511 42.8211 40.7581 42.8211 36.4647C42.8211 34.0795 41.7505 31.8601 39.8837 30.3757C39.8793 30.3721 39.8748 30.3685 39.8707 30.3647C39.8593 30.3556 39.8479 30.3465 39.8367 30.3374C39.807 30.3136 39.7791 30.2913 39.7525 30.2717C39.6929 30.2278 39.6479 30.1673 39.6226 30.0979L37.8882 25.3124H32.1558L30.4116 30.1228C30.3875 30.1893 30.345 30.2477 30.2889 30.2911C29.8779 30.6095 29.4969 30.9687 29.1568 31.3589C29.021 31.5147 28.7846 31.5308 28.6288 31.395C28.473 31.2592 28.4568 31.0228 28.5927 30.867C28.9408 30.4677 29.3279 30.098 29.7445 29.767L31.5417 24.8106C31.5954 24.6625 31.736 24.564 31.8936 24.564H38.1508C38.3083 24.564 38.4489 24.6626 38.5026 24.8106L40.2894 29.741C40.2946 29.7451 40.2998 29.7493 40.3049 29.7535C40.3146 29.7613 40.3243 29.769 40.3342 29.7768C40.3458 29.7852 40.3568 29.7941 40.3673 29.8037C41.3409 30.5823 42.1456 31.5824 42.6952 32.6973C43.2754 33.8742 43.5696 35.1416 43.5696 36.4643C43.5696 37.6161 43.3439 38.7336 42.8985 39.7862C42.4685 40.8025 41.8531 41.7152 41.0693 42.499C40.2854 43.2829 39.3728 43.8984 38.3564 44.3283C37.3043 44.7736 36.1866 44.9995 35.035 44.9995ZM40.1136 30.4544H40.1145C40.1142 30.4544 40.1139 30.4544 40.1136 30.4544ZM40.1125 30.4544H40.1135C40.1131 30.4544 40.1129 30.4544 40.1125 30.4544ZM40.0502 30.4488C40.0705 30.4523 40.0913 30.4543 40.1124 30.4544C40.0915 30.4542 40.0707 30.4524 40.0502 30.4488ZM39.7427 30.0861C39.7429 30.1044 39.7445 30.1224 39.7471 30.14C39.7445 30.1223 39.7429 30.1043 39.7427 30.0861ZM39.7427 30.0854V30.0861C39.7427 30.0858 39.7427 30.0855 39.7427 30.0854ZM39.7427 30.0848V30.0853C39.7427 30.0851 39.7427 30.0848 39.7427 30.0848ZM39.7427 30.0841V30.0846C39.7427 30.0845 39.7427 30.0842 39.7427 30.0841ZM39.7427 30.0835V30.084C39.7427 30.0838 39.7427 30.0836 39.7427 30.0835ZM39.7427 30.0827V30.0834C39.7427 30.083 39.7427 30.0828 39.7427 30.0827ZM35.035 42.1977C34.0198 42.1977 33.0217 41.9273 32.1483 41.4158C31.3015 40.9198 30.5906 40.2103 30.092 39.3639C29.9872 39.1859 30.0466 38.9565 30.2246 38.8515C30.4028 38.7467 30.6321 38.806 30.7371 38.9841C31.6326 40.5047 33.2796 41.4494 35.0351 41.4494C37.7836 41.4494 40.0198 39.2133 40.0198 36.4647C40.0198 33.7174 37.7836 31.4824 35.0351 31.4824C33.2772 31.4824 31.6303 32.4269 30.7373 33.9473C30.6327 34.1255 30.4032 34.1851 30.2251 34.0804C30.0469 33.9757 29.9873 33.7464 30.092 33.5682C30.5891 32.7219 31.2998 32.0123 32.1476 31.516C33.0213 31.0045 34.0198 30.734 35.0353 30.734C38.1966 30.734 40.7684 33.3048 40.7684 36.4648C40.7681 39.6258 38.1962 42.1977 35.035 42.1977Z" fill="#FF7F57"/>
<path d="M39.7427 30.086C39.7429 30.1044 39.7445 30.1224 39.7471 30.14C39.7445 30.1223 39.7429 30.1043 39.7427 30.086ZM39.7427 30.086V30.0854C39.7427 30.0855 39.7427 30.0858 39.7427 30.086ZM35.035 44.9995H34.9601C34.9589 44.9995 34.9578 44.9995 34.9566 44.9995C33.715 44.988 32.5194 44.7156 31.4035 44.1898C30.3242 43.6814 29.3785 42.9652 28.5926 42.0616C28.4569 41.9056 28.4734 41.6692 28.6294 41.5337C28.7854 41.398 29.0218 41.4145 29.1573 41.5705C30.6206 43.253 32.7361 44.2301 34.9615 44.2511H35.0347C39.3281 44.2511 42.8211 40.7581 42.8211 36.4647C42.8211 34.0795 41.7505 31.8601 39.8837 30.3757C39.8793 30.3721 39.8748 30.3685 39.8707 30.3647C39.8593 30.3556 39.8479 30.3465 39.8367 30.3374C39.807 30.3136 39.7791 30.2913 39.7525 30.2717C39.6929 30.2278 39.6479 30.1673 39.6226 30.0979L37.8882 25.3124H32.1558L30.4116 30.1228C30.3875 30.1893 30.345 30.2477 30.2889 30.2911C29.8779 30.6095 29.4969 30.9687 29.1568 31.3589C29.021 31.5147 28.7846 31.5308 28.6288 31.395C28.473 31.2592 28.4568 31.0228 28.5927 30.867C28.9408 30.4677 29.3279 30.098 29.7445 29.767L31.5417 24.8106C31.5954 24.6625 31.736 24.564 31.8936 24.564H38.1507C38.3083 24.564 38.4489 24.6626 38.5026 24.8106L40.2894 29.741C40.2946 29.7451 40.2998 29.7493 40.3049 29.7535C40.3146 29.7613 40.3243 29.769 40.3342 29.7768C40.3458 29.7852 40.3568 29.7941 40.3673 29.8037C41.3409 30.5823 42.1456 31.5824 42.6952 32.6973C43.2754 33.8742 43.5696 35.1416 43.5696 36.4643C43.5696 37.6161 43.3439 38.7336 42.8985 39.7862C42.4685 40.8025 41.8531 41.7152 41.0693 42.499C40.2854 43.2829 39.3728 43.8984 38.3564 44.3283C37.3043 44.7736 36.1866 44.9995 35.035 44.9995ZM40.1136 30.4544H40.1145C40.1142 30.4544 40.1139 30.4544 40.1136 30.4544ZM40.1125 30.4544H40.1135C40.1131 30.4544 40.1129 30.4544 40.1125 30.4544ZM40.0502 30.4488C40.0705 30.4523 40.0913 30.4543 40.1124 30.4544C40.0915 30.4542 40.0707 30.4524 40.0502 30.4488ZM39.7427 30.0848V30.0853C39.7427 30.0851 39.7427 30.0848 39.7427 30.0848ZM39.7427 30.0841V30.0846C39.7427 30.0845 39.7427 30.0842 39.7427 30.0841ZM39.7427 30.0835V30.084C39.7427 30.0838 39.7427 30.0836 39.7427 30.0835ZM39.7427 30.0827V30.0834C39.7427 30.083 39.7427 30.0828 39.7427 30.0827ZM35.035 42.1977C34.0198 42.1977 33.0217 41.9273 32.1483 41.4158C31.3015 40.9198 30.5906 40.2103 30.092 39.3639C29.9872 39.1859 30.0466 38.9565 30.2246 38.8515C30.4028 38.7467 30.6321 38.806 30.7371 38.9841C31.6326 40.5047 33.2796 41.4494 35.0351 41.4494C37.7836 41.4494 40.0198 39.2133 40.0198 36.4647C40.0198 33.7174 37.7836 31.4824 35.0351 31.4824C33.2772 31.4824 31.6303 32.4269 30.7373 33.9473C30.6327 34.1255 30.4032 34.1851 30.2251 34.0804C30.0469 33.9757 29.9873 33.7464 30.092 33.5682C30.5891 32.7219 31.2998 32.0123 32.1476 31.516C33.0213 31.0045 34.0198 30.734 35.0353 30.734C38.1966 30.734 40.7684 33.3048 40.7684 36.4648C40.7681 39.6258 38.1962 42.1977 35.035 42.1977Z" stroke="#FF7F57" stroke-width="0.5"/>
<path d="M34.9746 45.0001C34.7696 45.0001 34.6023 44.8347 34.6005 44.6292C34.5987 44.4225 34.7646 44.2535 34.9714 44.2517C35.5472 44.2465 36.0159 43.7857 36.0159 43.2245C36.0159 42.6581 35.5425 42.1974 34.9607 42.1974C34.754 42.1974 34.5865 42.0299 34.5865 41.8231C34.5865 41.6165 34.754 41.449 34.9607 41.449C35.9552 41.449 36.7644 42.2455 36.7644 43.2245C36.7644 43.6968 36.5779 44.1414 36.2392 44.4767C35.9025 44.81 35.4548 44.9958 34.9782 45.0001C34.9769 45.0001 34.9757 45.0001 34.9746 45.0001Z" fill="#FF7F57" stroke="#FF7F57" stroke-width="0.5"/>
<path d="M38.8994 32.7412C38.4564 32.7412 38.0463 32.5762 37.734 32.2694C37.5867 32.1246 37.5844 31.8877 37.7294 31.7402C37.8743 31.5928 38.1111 31.5906 38.2586 31.7356C38.6858 32.1551 39.3516 32.0134 39.7234 31.6415C39.9168 31.4481 40.0217 31.1894 40.0188 30.9128C40.0159 30.6337 39.904 30.3696 39.7035 30.169C39.5574 30.023 39.5574 29.7859 39.7035 29.6398C39.8496 29.4938 40.0866 29.4938 40.2327 29.6398C40.5724 29.9796 40.7623 30.429 40.7671 30.9052C40.772 31.3845 40.5893 31.834 40.2524 32.1708C39.9187 32.5046 39.4822 32.7056 39.0231 32.737C38.9819 32.7398 38.9405 32.7412 38.8994 32.7412Z" fill="#FF7F57" stroke="#FF7F57" stroke-width="0.5"/>
<path d="M35.0355 28.5882C34.344 28.5882 33.7814 28.0255 33.7814 27.334C33.7814 26.6425 34.344 26.0798 35.0355 26.0798C35.7271 26.0798 36.2897 26.6425 36.2897 27.334C36.2897 28.0255 35.7271 28.5882 35.0355 28.5882ZM35.0355 26.8283C34.7567 26.8283 34.5299 27.0551 34.5299 27.3339C34.5299 27.6128 34.7568 27.8396 35.0355 27.8396C35.3143 27.8396 35.5412 27.6127 35.5412 27.3339C35.5412 27.0551 35.3143 26.8283 35.0355 26.8283Z" fill="#FF7F57" stroke="#FF7F57" stroke-width="0.5"/>
<path d="M35.7159 25.3125C35.5093 25.3125 35.3418 25.1451 35.3418 24.9383V21.8895C35.3418 18.3031 32.424 15.3854 28.8377 15.3854C25.2526 15.3854 22.3361 18.3031 22.3361 21.8895V24.9383C22.3361 25.145 22.1686 25.3125 21.9619 25.3125C21.7552 25.3125 21.5876 25.1451 21.5876 24.9383V21.8895C21.5876 17.8904 24.8401 14.637 28.8378 14.637C32.8369 14.637 36.0903 17.8905 36.0903 21.8895V24.9383C36.0903 25.145 35.9227 25.3125 35.7159 25.3125Z" fill="#FF7F57" stroke="#FF7F57" stroke-width="0.5"/>
<path d="M34.2066 25.3125C33.9999 25.3125 33.8324 25.145 33.8324 24.9382V21.8894C33.8324 19.1353 31.5919 16.8948 28.8378 16.8948C26.085 16.8948 23.8455 19.1354 23.8455 21.8894V24.9382C23.8455 25.1449 23.678 25.3125 23.4713 25.3125C23.2646 25.3125 23.097 25.145 23.097 24.9382V21.8894C23.097 18.7226 25.6723 16.1462 28.8378 16.1462C32.0046 16.1462 34.581 18.7226 34.581 21.8894V24.9382C34.5809 25.1449 34.4132 25.3125 34.2066 25.3125Z" fill="#FF7F57" stroke="#FF7F57" stroke-width="0.5"/>
</g>
<defs>
<clipPath id="clip0_36_2021">
<rect width="45" height="45" fill="white"/>
</clipPath>
</defs>
</svg>
