<svg width="62" height="62" viewBox="0 0 62 62" fill="none" xmlns="http://www.w3.org/2000/svg">
<path d="M52.3283 59.1476H9.92029C9.54829 59.1476 9.30029 58.8996 9.30029 58.5276V3.47156C9.30029 3.09956 9.54829 2.85156 9.92029 2.85156H52.3283C52.7003 2.85156 52.9483 3.09956 52.9483 3.47156V15.8716C52.9483 16.2436 52.7003 16.4916 52.3283 16.4916C51.9563 16.4916 51.7083 16.2436 51.7083 15.8716V4.09156H10.5403V57.7836H51.7083V46.6236C51.7083 46.2516 51.9563 46.0036 52.3283 46.0036C52.7003 46.0036 52.9483 46.2516 52.9483 46.6236V58.4036C52.9483 58.7756 52.7003 59.1476 52.3283 59.1476Z" fill="#91AD37"/>
<path d="M9.92001 55.0554H5.82801C5.45601 55.0554 5.20801 54.8074 5.20801 54.4354V7.56336C5.20801 7.19136 5.45601 6.94336 5.82801 6.94336H9.92001C10.292 6.94336 10.54 7.19136 10.54 7.56336V54.5594C10.54 54.8074 10.292 55.0554 9.92001 55.0554ZM6.44801 53.8154H9.17601V8.18336H6.44801V53.8154Z" fill="#91AD37"/>
<path d="M5.82823 51.708H1.86023C1.48823 51.708 1.24023 51.46 1.24023 51.088V10.912C1.24023 10.54 1.48823 10.292 1.86023 10.292H5.82823C6.20023 10.292 6.44823 10.54 6.44823 10.912V51.088C6.44823 51.46 6.20023 51.708 5.82823 51.708ZM2.48023 50.468H5.20823V11.532H2.48023V50.468Z" fill="#91AD37"/>
<path d="M21.2041 54.1876H16.6161C16.2441 54.1876 15.9961 53.9396 15.9961 53.5676V45.1356C15.9961 44.7636 16.2441 44.5156 16.6161 44.5156H21.2041C21.5761 44.5156 21.8241 44.7636 21.8241 45.1356V53.5676C21.8241 53.8156 21.5761 54.1876 21.2041 54.1876ZM17.2361 52.9476H20.5841V45.7556H17.2361V52.9476Z" fill="#91AD37"/>
<path d="M29.3882 54.188H24.8002C24.4282 54.188 24.1802 53.94 24.1802 53.568V42.036C24.1802 41.664 24.4282 41.416 24.8002 41.416H29.3882C29.7602 41.416 30.0082 41.664 30.0082 42.036V53.568C30.0082 53.816 29.6362 54.188 29.3882 54.188ZM25.2962 52.948H28.6442V42.656H25.2962V52.948Z" fill="#91AD37"/>
<path d="M37.4482 54.1879H32.8602C32.4882 54.1879 32.2402 53.9399 32.2402 53.5679V46.7479C32.2402 46.3759 32.4882 46.1279 32.8602 46.1279H37.4482C37.8202 46.1279 38.0682 46.3759 38.0682 46.7479V53.5679C38.0682 53.9399 37.8202 54.1879 37.4482 54.1879ZM33.4802 52.9479H36.8282V47.3679H33.4802V52.9479Z" fill="#91AD37"/>
<path d="M45.6323 54.1875H41.0443C40.6723 54.1875 40.4243 53.9395 40.4243 53.5675V39.1835C40.4243 38.8115 40.6723 38.5635 41.0443 38.5635H45.6323C46.0043 38.5635 46.2523 38.8115 46.2523 39.1835V53.5675C46.2523 53.9395 46.0043 54.1875 45.6323 54.1875ZM41.6643 52.9475H45.0123V39.8035H41.6643V52.9475Z" fill="#91AD37"/>
<path d="M33.4803 18.5999C33.2323 18.5999 33.1083 18.4759 32.9843 18.3519C32.7363 18.1039 32.8603 17.7319 33.1083 17.4839L40.0523 12.7719C40.3003 12.5239 40.6723 12.6479 40.9203 12.8959C41.1683 13.1439 41.0443 13.5159 40.7963 13.7639L33.8523 18.4759C33.7283 18.5999 33.6043 18.5999 33.4803 18.5999Z" fill="#91AD37"/>
<path d="M20.3363 16.7399C20.0883 16.7399 19.9643 16.6159 19.8403 16.4919C19.5923 16.2439 19.7163 15.8719 19.9643 15.6239L24.0563 12.8959C24.3043 12.6479 24.6763 12.7719 24.9243 13.0199C25.1723 13.2679 25.0483 13.6399 24.8003 13.8879L20.7083 16.6159C20.5843 16.7399 20.4603 16.7399 20.3363 16.7399Z" fill="#91AD37"/>
<path d="M30.0082 18.228C29.7602 18.228 29.6362 18.104 29.5122 17.98L27.0322 14.26C26.7842 14.012 26.9082 13.64 27.1562 13.392C27.4042 13.144 27.7762 13.268 28.0242 13.516L30.5042 17.236C30.7522 17.484 30.6282 17.856 30.3802 18.104C30.2562 18.228 30.1322 18.228 30.0082 18.228Z" fill="#91AD37"/>
<path d="M26.2883 15.0033C26.1643 15.0033 25.9163 15.0033 25.7923 15.0033C25.0483 14.8793 24.4283 14.3833 24.0563 13.7633C23.6843 13.1433 23.4363 12.3993 23.6843 11.6553C23.8083 10.9113 24.3043 10.2913 24.9243 9.91935C26.1643 9.05135 28.0243 9.42335 28.7683 10.6633C29.1403 11.2833 29.3883 12.0273 29.1403 12.7713C29.0163 13.5153 28.5203 14.1353 27.9003 14.5073C27.2803 14.7553 26.7843 15.0033 26.2883 15.0033ZM25.2963 10.7873C24.9243 11.0353 24.6763 11.4073 24.6763 11.7793C24.5523 12.1513 24.6763 12.6473 24.9243 13.0193C25.1723 13.3913 25.5443 13.6393 25.9163 13.6393C26.2883 13.7633 26.7843 13.6393 27.1563 13.3913C27.5283 13.1433 27.7763 12.7713 27.7763 12.3993C27.9003 12.0273 27.7763 11.5313 27.5283 11.1593C27.0323 10.5393 26.0403 10.2913 25.2963 10.7873Z" fill="#91AD37"/>
<path d="M31.6203 21.9477C31.4963 21.9477 31.2483 21.9477 31.1243 21.9477C30.3803 21.8237 29.7603 21.3277 29.3883 20.7077C29.0163 20.0877 28.7683 19.3437 29.0163 18.5997C29.1403 17.8557 29.6363 17.2357 30.2563 16.8637C31.4963 15.9957 33.3563 16.3677 34.1003 17.6077C34.9683 18.8477 34.5963 20.7077 33.3563 21.4517C32.7363 21.8237 32.2403 21.9477 31.6203 21.9477ZM31.6203 17.4837C31.3723 17.4837 31.0003 17.6077 30.7523 17.7317C30.3803 17.9797 30.1323 18.3517 30.1323 18.7237C30.0083 19.0957 30.1323 19.5917 30.3803 19.9637C30.6283 20.3357 31.0003 20.5837 31.3723 20.5837C31.7443 20.7077 32.2403 20.5837 32.6123 20.3357C33.3563 19.8397 33.4803 18.8477 32.9843 18.1037C32.6123 17.7317 32.1163 17.4837 31.6203 17.4837Z" fill="#91AD37"/>
<path d="M42.2844 14.8793C42.1604 14.8793 41.9124 14.8793 41.7884 14.8793C41.0444 14.7553 40.4244 14.2593 40.0524 13.6393C39.6804 13.0193 39.4324 12.2753 39.6804 11.5313C39.8044 10.7873 40.3004 10.1673 40.9204 9.79532C42.1604 8.92732 44.0204 9.29932 44.7644 10.5393C45.6324 11.7793 45.2604 13.6393 44.0204 14.3833C43.4004 14.7553 42.9044 14.8793 42.2844 14.8793ZM42.2844 10.4153C42.0364 10.4153 41.6644 10.5393 41.4164 10.6633C41.0444 10.9113 40.7964 11.2833 40.7964 11.6553C40.6724 12.0273 40.7964 12.5233 41.0444 12.8953C41.2924 13.2673 41.6644 13.5153 42.0364 13.5153C42.4084 13.6393 42.9044 13.5153 43.2764 13.2673C44.0204 12.7713 44.1444 11.7793 43.6484 11.0353C43.2764 10.6633 42.7804 10.4153 42.2844 10.4153Z" fill="#91AD37"/>
<path d="M18.4763 19.84C18.3523 19.84 18.1043 19.84 17.9803 19.84C17.2363 19.716 16.6163 19.22 16.2443 18.6C15.8723 17.98 15.6243 17.236 15.8723 16.492C15.9963 15.748 16.4923 15.128 17.1123 14.756C17.7323 14.384 18.4763 14.136 19.2203 14.384C19.9643 14.508 20.5843 15.004 20.9563 15.624C21.8243 16.864 21.4523 18.724 20.2123 19.468C19.5923 19.716 18.9723 19.84 18.4763 19.84ZM18.4763 15.5C18.2283 15.5 17.8563 15.624 17.6083 15.748C17.2363 15.996 16.9883 16.368 16.9883 16.74C16.8643 17.112 16.9883 17.608 17.2363 17.98C17.7323 18.724 18.7243 18.848 19.4683 18.352C20.2123 17.856 20.3363 16.864 19.8403 16.12C19.5923 15.748 19.2203 15.5 18.8483 15.5C18.6003 15.5 18.6003 15.5 18.4763 15.5Z" fill="#91AD37"/>
<path d="M31.7442 26.6599H24.6762C24.3042 26.6599 24.0562 26.4119 24.0562 26.0399C24.0562 25.6679 24.3042 25.4199 24.6762 25.4199H31.7442C32.1162 25.4199 32.3642 25.6679 32.3642 26.0399C32.3642 26.4119 31.9922 26.6599 31.7442 26.6599Z" fill="#91AD37"/>
<path d="M21.576 26.6599H16.368C15.996 26.6599 15.748 26.4119 15.748 26.0399C15.748 25.6679 15.996 25.4199 16.368 25.4199H21.576C21.948 25.4199 22.196 25.6679 22.196 26.0399C22.196 26.4119 21.948 26.6599 21.576 26.6599Z" fill="#91AD37"/>
<path d="M36.0841 29.5115H29.5121C29.1401 29.5115 28.8921 29.2635 28.8921 28.8915C28.8921 28.5195 29.1401 28.2715 29.5121 28.2715H36.0841C36.4561 28.2715 36.7041 28.5195 36.7041 28.8915C36.7041 29.2635 36.4561 29.5115 36.0841 29.5115Z" fill="#91AD37"/>
<path d="M26.412 29.5115H16.244C15.872 29.5115 15.624 29.2635 15.624 28.8915C15.624 28.5195 15.872 28.2715 16.244 28.2715H26.412C26.784 28.2715 27.032 28.5195 27.032 28.8915C27.032 29.2635 26.784 29.5115 26.412 29.5115Z" fill="#91AD37"/>
<path d="M31.2482 32.364H25.1722C24.8002 32.364 24.5522 32.116 24.5522 31.744C24.5522 31.372 24.8002 31.124 25.1722 31.124H31.2482C31.6202 31.124 31.8682 31.372 31.8682 31.744C31.8682 32.116 31.4962 32.364 31.2482 32.364Z" fill="#91AD37"/>
<path d="M22.072 32.364H16.368C15.996 32.364 15.748 32.116 15.748 31.744C15.748 31.372 15.996 31.124 16.368 31.124H22.072C22.444 31.124 22.692 31.372 22.692 31.744C22.692 32.116 22.32 32.364 22.072 32.364Z" fill="#91AD37"/>
<path d="M36.0842 35.2156H30.0082C29.6362 35.2156 29.3882 34.9676 29.3882 34.5956C29.3882 34.2236 29.6362 33.9756 30.0082 33.9756H36.0842C36.4562 33.9756 36.7042 34.2236 36.7042 34.5956C36.7042 34.9676 36.4562 35.2156 36.0842 35.2156Z" fill="#91AD37"/>
<path d="M26.908 35.2156H16.368C15.996 35.2156 15.748 34.9676 15.748 34.5956C15.748 34.2236 15.996 33.9756 16.368 33.9756H26.908C27.28 33.9756 27.528 34.2236 27.528 34.5956C27.528 34.9676 27.28 35.2156 26.908 35.2156Z" fill="#91AD37"/>
<path d="M23.064 38.0671H16.368C15.996 38.0671 15.748 37.8191 15.748 37.4471C15.748 37.0751 15.996 36.8271 16.368 36.8271H23.064C23.436 36.8271 23.684 37.0751 23.684 37.4471C23.684 37.8191 23.436 38.0671 23.064 38.0671Z" fill="#91AD37"/>
<path d="M51.9562 40.1751C51.7082 40.1751 51.4602 40.0511 51.3362 39.8031L50.2202 36.8271C50.0962 36.7031 50.2202 36.4551 50.2202 36.3311C50.3442 36.2071 50.4681 36.0831 50.5921 36.0831C51.3361 35.9591 52.0801 35.7111 52.8241 35.3391C52.9481 35.2151 53.1962 35.2151 53.3202 35.3391C53.4442 35.4631 53.5681 35.5871 53.6921 35.7111L54.8082 38.6871V39.1831C54.6842 39.3071 54.5602 39.4311 54.4362 39.5551L52.0802 40.4231C52.0802 40.1751 52.0802 40.1751 51.9562 40.1751ZM51.7082 36.9511L52.3282 38.6871L53.4441 38.3151L52.8241 36.5791C52.4521 36.7031 52.0802 36.8271 51.7082 36.9511Z" fill="#FF7F57"/>
<path d="M56.6684 52.8239C56.0484 52.8239 55.4284 52.6999 54.8084 52.3279C53.8164 51.8319 53.0724 50.8399 52.7004 49.7239L49.9724 40.1759C49.8484 39.8039 50.0964 39.5559 50.3444 39.4319L55.5524 37.5719C55.8004 37.4479 56.1724 37.5719 56.2964 37.9439L60.3884 46.9959C60.8844 47.9879 60.8844 49.2279 60.3884 50.3439C59.8924 51.4599 59.0244 52.2039 58.0324 52.5759C57.6604 52.6999 57.1644 52.8239 56.6684 52.8239ZM53.8164 49.4759C54.0644 50.2199 54.5604 50.8399 55.3044 51.2119C56.0484 51.5839 56.7924 51.5839 57.6604 51.3359C58.4044 51.0879 59.0244 50.4679 59.2724 49.7239C59.6444 48.9799 59.5204 48.1119 59.2724 47.3679L55.4284 38.8119L51.3364 40.2999L53.8164 49.4759Z" fill="#FF7F57"/>
<path d="M48.9803 37.3239C47.9883 37.3239 46.9963 37.1999 46.1283 36.9519C43.2763 36.2079 40.9203 34.3479 39.4323 31.7439C37.9443 29.1399 37.5723 26.1639 38.3163 23.3119C39.0603 20.4599 40.9203 18.1039 43.5243 16.6159C46.1283 15.1279 49.1043 14.7559 51.9563 15.4999C54.8083 16.2439 57.1643 18.1039 58.6523 20.7079C60.1403 23.3119 60.5123 26.2879 59.7683 29.1399C59.0243 31.9919 57.1643 34.3479 54.5603 35.8359C52.7003 36.8279 50.8403 37.3239 48.9803 37.3239ZM48.8563 16.3679C47.1203 16.3679 45.5083 16.8639 43.8963 17.7319C41.6643 19.0959 39.9283 21.2039 39.3083 23.6839C38.6883 26.1639 38.9363 28.8919 40.3003 31.1239C41.6643 33.3559 43.7723 35.0919 46.2523 35.7119C48.7323 36.4559 51.4603 36.0839 53.6923 34.7199C55.9243 33.3559 57.6603 31.2479 58.2803 28.7679C58.9003 26.2879 58.6523 23.5599 57.2883 21.3279C55.9243 19.0959 53.8163 17.3599 51.3363 16.7399C50.5923 16.4919 49.7243 16.3679 48.8563 16.3679Z" fill="#FF7F57"/>
<path d="M48.8563 34.224C48.3603 34.224 47.8643 34.224 47.3683 34.1C43.0283 33.232 40.3003 29.14 41.0443 24.8C41.9123 20.46 46.0043 17.608 50.3443 18.476C52.4523 18.848 54.1883 20.088 55.4283 21.824C56.6683 23.56 57.0403 25.668 56.6683 27.776C56.2963 29.884 55.0563 31.62 53.3203 32.86C52.0803 33.728 50.4683 34.224 48.8563 34.224ZM42.2843 24.924C41.5403 28.52 44.0203 32.116 47.6163 32.736C49.3523 33.108 51.2123 32.736 52.5763 31.744C54.0643 30.752 55.0563 29.264 55.4283 27.404C55.8003 25.668 55.4283 23.808 54.4363 22.32C53.4443 20.832 51.9563 19.84 50.0963 19.468C46.5003 18.972 43.0283 21.328 42.2843 24.924Z" fill="#FF7F57"/>
</svg>
