<svg width="62" height="62" viewBox="0 0 62 62" fill="none" xmlns="http://www.w3.org/2000/svg">
<g clip-path="url(#clip0_153_62)">
<path d="M34.0998 33.0646C34.0998 32.4939 33.6372 32.0312 33.0664 32.0312H28.9328C28.362 32.0312 27.8994 32.4939 27.8994 33.0646C27.8994 33.6354 28.362 34.098 28.9328 34.098H33.0664C33.6372 34.0981 34.0998 33.6354 34.0998 33.0646Z" fill="#91AD37"/>
<path d="M26.8664 22.7305H24.7995C24.2287 22.7305 23.7661 23.1932 23.7661 23.7638C23.7661 24.3346 24.2289 24.7972 24.7995 24.7972C24.7995 25.368 25.2622 25.8306 25.8329 25.8306C26.4036 25.8306 26.8663 25.3679 26.8663 24.7972C27.437 24.7972 27.8996 24.3345 27.8996 23.7638C27.8998 23.1931 27.4371 22.7305 26.8664 22.7305Z" fill="#91AD37"/>
<path d="M37.2004 22.7305H35.1335C34.5627 22.7305 34.1001 23.1932 34.1001 23.7638C34.1001 24.3346 34.5627 24.7972 35.1335 24.7972C35.1335 25.368 35.5962 25.8306 36.1669 25.8306C36.7376 25.8306 37.2002 25.3679 37.2002 24.7972C37.771 24.7972 38.2336 24.3345 38.2336 23.7638C38.2339 23.1931 37.7711 22.7305 37.2004 22.7305Z" fill="#91AD37"/>
<path d="M29.9665 29.9642H32.0334C32.6041 29.9642 33.0667 29.5015 33.0667 28.9308C33.0667 28.3601 32.604 27.8975 32.0334 27.8975H29.9665C29.3957 27.8975 28.9331 28.3602 28.9331 28.9308C28.9331 29.5016 29.3957 29.9642 29.9665 29.9642Z" fill="#91AD37"/>
<path d="M27.8994 21.6966C28.4702 21.6966 28.9328 21.234 28.9328 20.6633C28.9328 20.0925 28.4701 19.6299 27.8994 19.6299H23.7658C23.195 19.6299 22.7324 20.0926 22.7324 20.6633C22.7324 21.2339 23.1952 21.6966 23.7658 21.6966H27.8994Z" fill="#91AD37"/>
<path d="M34.1003 21.6966H38.2339C38.8047 21.6966 39.2673 21.234 39.2673 20.6633C39.2673 20.0925 38.8047 19.6299 38.2339 19.6299H34.1003C33.5295 19.6299 33.0669 20.0926 33.0669 20.6633C33.0669 21.2339 33.5295 21.6966 34.1003 21.6966Z" fill="#91AD37"/>
<path d="M11.3648 62H50.6348C52.9178 62 54.7685 60.1493 54.7685 57.8664V54.7661C54.7669 53.4526 53.9394 52.2822 52.7016 51.8426V48.3145C52.7073 47.2955 52.3249 46.3127 51.632 45.5655C51.4203 43.0845 49.6408 41.019 47.2183 40.4428L42.17 39.181C41.2532 38.423 40.2627 37.7587 39.2134 37.198L41.6316 35.0866C42.7576 34.1023 43.4028 32.679 43.4008 31.1835V29.8606C46.1909 29.2977 47.9965 26.5797 47.4336 23.7896C47.0866 22.0695 45.8883 20.6443 44.2534 20.0069C45.1775 17.9533 45.594 15.7076 45.4677 13.4592C45.4677 8.21767 40.3689 5.64034 37.8948 4.69984C38.0429 4.58988 38.2018 4.4953 38.3692 4.41767C39.1466 4.06574 39.4913 3.15032 39.1394 2.37307C38.9787 2.01824 38.69 1.73716 38.3309 1.58614C27.419 -3.09101 22.0029 3.91461 20.9756 5.45541C18.9199 6.45646 17.3779 8.27338 16.7242 10.4644C15.6908 14.011 17.122 17.905 18.0562 19.8944C15.3429 20.7559 13.8415 23.6539 14.7031 26.3673C15.2701 28.1532 16.7617 29.4908 18.5987 29.8606V31.1835C18.598 32.6776 19.243 34.0992 20.3679 35.0825L22.7851 37.198C21.7357 37.76 20.7452 38.4257 19.8284 39.1853L14.7812 40.4429C12.3576 41.0195 10.5778 43.0864 10.3674 45.5687C9.67532 46.315 9.29287 47.2966 9.29784 48.3145V51.8426C8.06016 52.2822 7.23265 53.4526 7.23096 54.7661V57.8664C7.2312 60.1493 9.08191 62 11.3648 62ZM27.8995 45.2245C26.4907 45.0198 25.1325 44.5537 23.895 43.8501C24.9686 42.9757 26.195 42.3078 27.512 41.8803C27.5945 41.8548 27.6843 41.8718 27.7518 41.9257C27.8416 41.9885 27.8964 42.0901 27.8995 42.1996V45.2245ZM22.3708 45.3278C24.0438 46.39 25.9324 47.0661 27.8995 47.3067V48.5655C26.7734 49.412 26.0406 50.6807 25.8699 52.0791L20.6656 55.0925V54.7659C20.6637 53.8935 20.2919 53.0627 19.6425 52.4799C19.6999 49.8527 20.6638 47.326 22.3708 45.3278ZM20.6656 58.8998V57.3166C20.9232 57.2709 21.1715 57.183 21.4004 57.0562L27.3839 53.5942C27.7032 53.4094 27.8998 53.0683 27.8995 52.6993C27.9013 51.5935 28.4921 50.5724 29.4496 50.0196C29.7697 49.8348 29.9668 49.4932 29.9664 49.1237V42.1998C29.9642 41.4292 29.594 40.7061 28.9702 40.2539C28.3698 39.8091 27.5911 39.6824 26.8807 39.914C21.7051 41.6061 18.0503 46.2387 17.6088 51.666C17.5933 51.666 17.5799 51.666 17.5655 51.666H15.5359C15.609 50.5096 15.8143 49.3654 16.1477 48.2557C18.5997 40.0532 27.2368 35.3916 35.4393 37.8436C40.4444 39.3398 44.3592 43.2562 45.8533 48.2619C46.1867 49.3694 46.3916 50.5116 46.464 51.666H44.4344C44.42 51.666 44.4076 51.666 44.3931 51.666C43.9896 46.2614 40.3663 41.6335 35.2164 39.945C34.4762 39.6955 33.6612 39.8166 33.0255 40.2705C32.398 40.7164 32.0277 41.4405 32.0334 42.2102V49.1238C32.033 49.4934 32.2301 49.835 32.5502 50.0197C33.5077 50.5726 34.0985 51.5936 34.1003 52.6994C34.1003 53.0686 34.2972 53.4098 34.617 53.5943L40.6108 57.0563C40.8362 57.181 41.0807 57.2675 41.3342 57.3126V58.8999C41.3376 59.2528 41.4019 59.6024 41.5243 59.9333H40.5384C40.3381 59.476 39.998 59.0939 39.567 58.842L33.5732 55.38C33.2498 55.1933 32.8507 55.1957 32.5294 55.3862C31.5817 55.9278 30.4182 55.9278 29.4705 55.3862C29.1492 55.1957 28.7502 55.1933 28.4267 55.38L22.4142 58.8471C21.9918 59.1024 21.6584 59.4817 21.4593 59.9333H20.4755C20.5978 59.6022 20.6622 59.2526 20.6656 58.8998ZM34.1 47.3069C36.0748 47.0658 37.9703 46.3853 39.6474 45.3154C41.355 47.3164 42.3137 49.849 42.3591 52.4791C41.7088 53.0617 41.3362 53.893 41.3339 54.766V55.0874L36.1296 52.0791C35.9595 50.6805 35.2266 49.4117 34.1 48.5655V47.3069ZM34.1 45.2245V42.21C34.098 42.1079 34.1473 42.0116 34.2313 41.9537C34.3284 41.8867 34.452 41.8706 34.563 41.9104C35.854 42.3362 37.0578 42.9907 38.1169 43.8428C36.8765 44.551 35.5138 45.0197 34.1 45.2245ZM37.3233 59.9332H24.667L28.9753 57.453C30.2688 58.0017 31.7297 58.0017 33.0232 57.453L37.3233 59.9332ZM52.7016 54.766V57.8663C52.7016 59.0078 51.7762 59.9332 50.6347 59.9332H44.4342C43.8634 59.9332 43.4008 59.4704 43.4008 58.8998V54.7661C43.4008 54.1954 43.8636 53.7328 44.4342 53.7328H47.5345C48.1052 53.7328 48.5678 53.2701 48.5678 52.6994C48.5714 50.9969 48.3238 49.3031 47.8331 47.6728C47.799 47.5571 47.7535 47.4465 47.7164 47.3318C47.9082 46.9746 48.2296 46.7043 48.6143 46.5764C49.0714 46.42 49.5764 46.5043 49.9578 46.8007C50.4074 47.172 50.6577 47.7319 50.6346 48.3146V52.6994C50.6346 53.2701 51.0973 53.7328 51.668 53.7328C52.2386 53.7328 52.7016 54.1953 52.7016 54.766ZM49.2356 44.4608C48.8069 44.4329 48.3766 44.4844 47.9666 44.6127C47.575 44.7501 47.2095 44.9527 46.8856 45.212C46.3424 44.0705 45.6769 42.9916 44.9003 41.9939L46.7171 42.4476C47.8129 42.7134 48.735 43.4504 49.2356 44.4608ZM18.7114 11.0368C19.2401 9.30579 20.5002 7.89299 22.1599 7.17085C22.3459 7.07736 22.4999 6.93058 22.6022 6.74916C22.7738 6.43914 26.802 -0.545773 36.5761 3.10745C36.2577 3.35498 35.9744 3.64454 35.7339 3.96825C35.4299 4.36257 35.3337 4.87884 35.4755 5.35611C35.623 5.84234 35.9964 6.22733 36.4779 6.38949C38.1024 6.91859 43.4008 8.98547 43.4008 13.4592C43.4418 14.9801 43.2576 16.4989 42.8542 17.9659C42.4281 16.9749 41.6948 16.1472 40.7626 15.6045C40.5808 15.5114 40.3752 15.4753 40.1724 15.5012C34.6426 16.1915 33.0883 15.4579 30.514 14.2415C29.1031 13.5487 27.6484 12.9486 26.1593 12.4454C24.6386 11.8146 22.9024 11.9921 21.541 12.9177C20.3017 13.9409 19.4445 15.3528 19.1083 16.9243C18.4035 15.0427 18.2656 12.9959 18.7114 11.0368ZM21.7279 33.5251C21.0523 32.9345 20.665 32.0807 20.6656 31.1833V28.9306C20.6656 28.3598 20.2029 27.8972 19.6322 27.8972C17.9304 27.9115 16.5391 26.5434 16.5248 24.8415C16.5137 23.5184 17.3485 22.336 18.5989 21.9034V23.7635C18.5989 24.3343 19.0616 24.7969 19.6322 24.7969C20.2029 24.7969 20.6656 24.3342 20.6656 23.7635V20.6633C20.6656 19.3933 21.0397 15.83 22.749 14.5982C23.5776 14.0749 24.6141 14.0041 25.5061 14.4101C26.9164 14.8889 28.2941 15.4588 29.6306 16.1163C32.2865 17.3708 34.219 18.2865 40.0506 17.6044C40.936 18.3652 41.4116 19.4985 41.3341 20.6634V23.7637C41.3341 24.3344 41.7967 24.797 42.3674 24.797C42.9382 24.797 43.4008 24.3343 43.4008 23.7637V21.9035C45.0092 22.46 45.862 24.215 45.3055 25.8234C44.873 27.0738 43.6905 27.9084 42.3674 27.8974C41.7967 27.8974 41.3341 28.3602 41.3341 28.9308V31.1837C41.3347 32.0811 40.9474 32.9349 40.2717 33.5255L37.1353 36.2681C33.1846 34.7565 28.8151 34.7565 24.8644 36.2681L21.7279 33.5251ZM15.2826 42.4477L17.0983 41.994C16.3215 42.9911 15.6562 44.0702 15.1141 45.2121C14.7904 44.9525 14.4249 44.7498 14.0331 44.6128C13.6231 44.4844 13.1928 44.433 12.7641 44.4609C13.2646 43.4504 14.1867 42.7134 15.2826 42.4477ZM9.29796 54.766C9.29796 54.1953 9.76058 53.7326 10.3313 53.7326C10.9021 53.7326 11.3647 53.27 11.3647 52.6993V48.3145C11.3415 47.7322 11.5909 47.1724 12.0395 46.8005C12.4211 46.5046 12.9259 46.4203 13.3829 46.5762C13.7678 46.7041 14.0891 46.9744 14.2809 47.3317C14.2447 47.4443 14.1993 47.5519 14.1662 47.6655C13.675 49.2982 13.4275 50.9944 13.4315 52.6993C13.4315 53.27 13.8942 53.7326 14.4649 53.7326H17.5651C18.1359 53.7326 18.5985 54.1953 18.5985 54.766V58.8997C18.5985 59.4704 18.1359 59.933 17.5651 59.933H11.3646C10.2231 59.933 9.29772 59.0077 9.29772 57.8662V54.766H9.29796Z" fill="#91AD37"/>
<path d="M30.9997 53.7328C31.5704 53.7328 32.0331 53.2701 32.0331 52.6994C32.0331 52.1287 31.5704 51.666 30.9997 51.666C30.429 51.666 29.9663 52.1287 29.9663 52.6994C29.9663 53.2701 30.429 53.7328 30.9997 53.7328Z" fill="#FF7F57"/>
<path d="M24.667 59.933L40.5384 59.9331L41.3339 58.7423L41.3341 57.3124L41.3339 55.0873L42.1863 53.5942L42.3591 52.4789L44.3931 51.6658L45.5 52L46.464 51.6658H48.4774L46.8856 45.2118L44.9003 41.9937L42.17 39.1809C41.2531 38.4229 40.2626 37.7585 39.2134 37.1978C39.2134 37.1978 37.9468 36.6311 37.1352 36.2679L24.8644 36.2671L22.785 37.1978C21.7357 37.7598 20.7451 38.4255 19.8284 39.1851C18.9116 39.9447 17.8315 41.0559 17.0982 41.9939C17.0982 41.9939 15.8889 43.9552 15.1141 45.212C14.7241 46.0113 14.5397 46.4806 14.2809 47.3315C13.7833 48.9675 13.6597 51.6658 13.6597 51.6658H15.5359L16.5 52.0789L17.6088 51.6658L19.6425 52.4798L19.5 54L20.6656 55.0923V57.3164L21.4593 59.9331L24.667 59.933ZM27.8995 47.3066L22.3707 45.3276C23.2662 44.2715 26.1949 42.3076 27.5119 41.8801C27.5944 41.8546 27.6843 41.8717 27.7517 41.9256C27.8416 41.9883 27.8963 42.0899 27.8995 42.1994V47.3066ZM22.3707 45.3276L27.8995 47.3066V48.5653C26.7733 49.4118 26.0405 50.6805 25.8699 52.0789L20.6656 55.0923L19.5 54L19.6425 52.4798C19.6999 49.8525 20.6638 47.3256 22.3707 45.3276ZM20.6656 57.3164C20.9232 57.2708 21.1714 57.1828 21.4003 57.056L27.3838 53.594C27.7032 53.4092 27.8997 53.0681 27.8995 52.6991C27.9013 51.5933 28.492 50.5723 29.4496 50.0194C29.7697 49.8346 29.9667 49.493 29.9664 49.1235V42.1996C29.9642 41.429 29.594 40.7059 28.9702 40.2537C28.3697 39.8089 27.591 39.6822 26.8806 39.9138C21.705 41.606 18.0502 46.2385 17.6088 51.6658L16.5 52.0789L15.5359 51.6658C15.609 50.5094 15.8143 49.3652 16.1477 48.2555C18.5997 40.053 27.2368 35.3914 35.4393 37.8434C40.4444 39.3396 44.3592 43.256 45.8533 48.2617C46.1867 49.3692 46.3916 50.5115 46.464 51.6658L45.5 52L44.3931 51.6658C43.9896 46.2612 40.3663 41.6333 35.2163 39.9448C34.4762 39.6953 33.6611 39.8164 33.0254 40.2703C32.398 40.7162 32.0277 41.4403 32.0334 42.21V49.1236C32.033 49.4932 32.23 49.8348 32.5501 50.0195C33.5077 50.5724 34.0984 51.5934 34.1002 52.6992C34.1002 53.0684 34.2972 53.4096 34.617 53.5942L40.6108 57.0562C40.8362 57.1808 41.0807 57.2674 41.3341 57.3124L41.3339 58.7423L40.5384 59.9331C40.3381 59.4758 39.998 59.0937 39.567 58.8418L33.5732 55.3798C33.2497 55.1931 32.8507 55.1955 32.5294 55.386C31.5817 55.9276 30.4182 55.9276 29.4704 55.386C29.1492 55.1955 28.7501 55.1931 28.4266 55.3798L22.4142 58.8469C21.9918 59.1022 21.6584 59.4815 21.4593 59.9331L20.6656 57.3164ZM34.1 47.3067L39.6474 45.3153C41.355 47.3162 42.3136 49.8488 42.3591 52.4789L42.1863 53.5942L41.3339 55.0873L36.1296 52.0789C35.9594 50.6803 35.2265 49.4115 34.1 48.5653C34.1 48.5653 34.1 47.7982 34.1 47.3067ZM34.1 47.3067C34.1 45.3162 34.1 42.2098 34.1 42.2098C34.0979 42.1077 34.1472 42.0114 34.2313 41.9535C34.3284 41.8866 34.4519 41.8704 34.563 41.9102C35.854 42.336 38.7622 44.2836 39.6474 45.3153L34.1 47.3067ZM37.3233 59.933H24.667L28.9753 57.4528C30.2688 58.0015 31.7296 58.0015 33.0231 57.4528L37.3233 59.933ZM46.8856 45.2118L48.4774 51.6658C48.4774 51.6658 48.3238 49.303 47.8331 47.6727C47.7989 47.5569 47.7163 47.3316 47.7163 47.3316L46.8856 45.2118ZM46.8856 45.2118C46.3424 44.0703 45.6768 42.9914 44.9003 41.9937L46.8856 45.2118ZM37.1352 36.2679L24.8644 36.2671C28.815 34.7555 33.1846 34.7563 37.1352 36.2679ZM17.0982 41.9939C16.3215 42.9909 15.656 44.0701 15.1141 45.212C15.8889 43.9552 17.0982 41.9939 17.0982 41.9939Z" fill="#FF7F57"/>
</g>
<defs>
<clipPath id="clip0_153_62">
<rect width="62" height="62" fill="white"/>
</clipPath>
</defs>
</svg>
