<svg width="66" height="65" viewBox="0 0 66 65" fill="none" xmlns="http://www.w3.org/2000/svg">
<path d="M51.9114 26.6398C52.6223 25.4363 54.7653 21.257 52.084 18.5808C50.4133 16.905 47.9657 14.8789 47.5137 14.5183C47.9384 12.1618 48.0545 9.75994 47.859 7.37341C47.8314 7.12385 47.7124 6.89336 47.5248 6.72644C47.3372 6.55951 47.0945 6.46798 46.8434 6.4695H29.0243C28.7627 6.46924 28.511 6.56994 28.3218 6.75063C28.1326 6.93133 28.0204 7.17806 28.0087 7.43942C28.0087 7.53591 27.9782 8.29255 28.0087 9.47067C26.0536 10.1562 20.7774 11.9133 18.3602 12.7258L17.4665 13.0254C15.2244 13.7263 12.9351 14.266 10.6161 14.6402C10.4773 14.6659 10.3447 14.7176 10.2251 14.7925C10.1032 14.8687 7.26452 16.7527 7.09186 22.7804C7.08933 22.8159 7.08933 22.8516 7.09186 22.8871C7.69616 30.9765 12.2665 33.1195 12.4747 33.2058C12.6054 33.2654 12.7474 33.2966 12.8911 33.2972C13.0382 33.2966 13.1834 33.2641 13.3166 33.2018C13.4499 33.1396 13.5681 33.0491 13.663 32.9367C14.313 32.1648 16.9536 31.1949 17.568 31.1492L18.0758 31.3218C19.0116 31.6855 19.9891 31.9311 20.9856 32.0531C19.1476 36.6519 18.2181 41.5632 18.2485 46.5156C18.2485 54.5898 25.6067 59.414 37.9364 59.414C50.2661 59.414 57.6243 54.5898 57.6243 46.5156C57.6243 38.9695 55.4813 31.8601 51.9114 26.6398ZM50.652 20.0129C51.9622 21.3281 51.1903 23.5675 50.5657 24.8422C49.1663 23.1113 47.4919 21.6221 45.6094 20.4343C46.195 19.2573 46.6644 18.026 47.011 16.7578C47.9657 17.5398 49.5145 18.8804 50.652 20.0129ZM17.7051 29.123C16.8368 29.0925 14.2368 29.9609 12.7743 31.0222C11.7333 30.2605 9.51413 28.0414 9.1028 22.7855C9.21959 18.6875 10.743 17.0168 11.1798 16.6054C13.5219 16.22 15.8333 15.6668 18.0962 14.95L18.9899 14.6554C22.6715 13.4215 26.2161 12.2332 28.1305 11.5679C28.3087 14.3509 28.8534 17.0982 29.7505 19.7386C29.6449 19.7021 29.5415 19.6597 29.4407 19.6117C27.8411 18.8297 26.1297 18.1898 26.0587 18.1644C25.9336 18.1177 25.8006 18.0961 25.6672 18.1009C25.5338 18.1056 25.4027 18.1365 25.2813 18.1919C25.1598 18.2474 25.0505 18.3261 24.9596 18.4238C24.8686 18.5214 24.7977 18.6361 24.751 18.7611C24.7044 18.8861 24.6828 19.0191 24.6875 19.1525C24.6922 19.2859 24.7232 19.4171 24.7786 19.5385C24.834 19.6599 24.9128 19.7692 25.0104 19.8602C25.1081 19.9512 25.2227 20.022 25.3477 20.0687C25.3477 20.0687 27.0387 20.6984 28.5469 21.4347C29.8215 22.0644 31.7512 22.1711 33.7926 22.2879C35.6868 22.3945 37.6419 22.5062 38.8098 23.0343C40.2977 23.7047 41.5266 24.9336 41.8567 26.0812C41.9382 26.3002 41.9682 26.535 41.9444 26.7675C41.9207 27 41.8437 27.2239 41.7196 27.4218C41.3235 28.0465 40.9883 28.0668 38.7489 27.5945C37.0293 27.1989 35.2798 26.9475 33.5184 26.8429C30.1907 26.6961 26.9009 27.5985 24.1137 29.4226C22.118 30.6515 19.9954 29.8898 18.7309 29.4226C18.4046 29.2754 18.0594 29.1746 17.7051 29.123ZM37.9364 57.3828C26.8813 57.3828 20.2797 53.3203 20.2797 46.5156C20.2339 41.6125 21.1895 36.7517 23.088 32.2308C23.1257 32.1398 23.1513 32.0442 23.1641 31.9465C23.8828 31.7914 24.5697 31.5149 25.1954 31.1289C27.6342 29.524 30.515 28.7247 33.4321 28.8437C35.0889 28.9467 36.7346 29.1845 38.3528 29.5547C40.5262 30.0168 42.2426 30.3773 43.4309 28.4933C43.7056 28.0541 43.8798 27.5596 43.9413 27.0452C44.0027 26.5308 43.9498 26.0091 43.7864 25.5175C43.2786 23.7961 41.6383 22.0949 39.6172 21.1808C38.0938 20.5004 35.9559 20.3785 33.879 20.2617C33.2544 20.2261 32.6298 20.1906 32.0356 20.1347C32.0206 20.06 31.9985 19.9869 31.9696 19.9164C30.2583 15.8234 30.0399 10.6183 30.0399 8.49059H45.8938C45.9751 10.5828 45.8938 15.9199 43.3547 20.3175C43.2914 20.4349 43.2518 20.5636 43.2382 20.6963C43.2245 20.829 43.2372 20.963 43.2754 21.0908C43.3136 21.2186 43.3766 21.3376 43.4608 21.4411C43.545 21.5445 43.6487 21.6304 43.7661 21.6937C50.8602 25.5277 55.593 35.4961 55.593 46.5156C55.593 53.3203 48.9915 57.3828 37.9364 57.3828Z" fill="#91AD37"/>
<path d="M37.9922 41.4832C36.0169 40.752 35.1536 40.3203 35.1891 39.2641C35.1984 38.9359 35.2982 38.6166 35.4774 38.3415C35.6566 38.0664 35.9083 37.8462 36.2047 37.7051C36.8372 37.4204 37.5317 37.3014 38.2228 37.3591C38.914 37.4169 39.5791 37.6495 40.1555 38.0352C40.3831 38.1492 40.6452 38.1737 40.8899 38.1037C41.1346 38.0337 41.3442 37.8744 41.477 37.6572C41.6098 37.4401 41.6563 37.181 41.6072 36.9312C41.5581 36.6815 41.4169 36.4593 41.2118 36.3086C40.4382 35.8288 39.5737 35.5141 38.6727 35.3844V33.5156C38.6727 33.2463 38.5657 32.9879 38.3752 32.7975C38.1848 32.607 37.9264 32.5 37.6571 32.5C37.3877 32.5 37.1294 32.607 36.9389 32.7975C36.7485 32.9879 36.6415 33.2463 36.6415 33.5156V35.4199C36.1538 35.5207 35.6834 35.6918 35.245 35.9277C34.6342 36.2362 34.1179 36.7038 33.7506 37.2811C33.3833 37.8585 33.1785 38.5242 33.1579 39.2082C33.0766 41.8387 35.4075 42.702 37.2864 43.3977C39.3836 44.1797 40.2926 44.652 40.1657 45.9367C40.1424 46.334 40.0029 46.7157 39.7646 47.0343C39.5262 47.353 39.1995 47.5947 38.8251 47.7293C37.4794 48.3031 35.5598 48.0188 34.7626 47.3738C34.5504 47.2068 34.2807 47.1309 34.0126 47.1628C33.7445 47.1947 33.5001 47.3318 33.3331 47.5439C33.1661 47.7561 33.0902 48.0258 33.1221 48.2939C33.154 48.562 33.2911 48.8064 33.5032 48.9734C34.4282 49.6135 35.5173 49.9747 36.6415 50.0145V51.7969C36.6415 52.0662 36.7485 52.3246 36.9389 52.515C37.1294 52.7055 37.3877 52.8125 37.6571 52.8125C37.9264 52.8125 38.1848 52.7055 38.3752 52.515C38.5657 52.3246 38.6727 52.0662 38.6727 51.7969V49.8621C38.9974 49.7924 39.3152 49.6938 39.6223 49.5676C40.3325 49.2897 40.9501 48.8175 41.4046 48.205C41.859 47.5926 42.1318 46.8646 42.1919 46.1043C42.4762 43.1641 39.8864 42.1891 37.9922 41.4832Z" fill="#FF7F57"/>
</svg>
