<svg width="62" height="61" viewBox="0 0 62 61" fill="none" xmlns="http://www.w3.org/2000/svg">
<path d="M60.4173 13.2945L30.9641 0.0913948C30.8336 0.0311815 30.6915 0 30.5477 0C30.404 0 30.2619 0.0311815 30.1313 0.0913948L0.678198 13.2945C0.500007 13.3746 0.348699 13.5044 0.242417 13.6683C0.136134 13.8323 0.0793871 14.0234 0.0789795 14.2187V59.9219C0.0789795 60.1912 0.185982 60.4496 0.376449 60.64C0.566916 60.8305 0.825244 60.9375 1.0946 60.9375H5.1571C5.42647 60.9375 5.68479 60.8305 5.87526 60.64C6.06573 60.4496 6.17273 60.1912 6.17273 59.9219V30.4687H54.9227V59.9219C54.9227 60.1912 55.0297 60.4496 55.2202 60.64C55.4107 60.8305 55.669 60.9375 55.9384 60.9375H60.0009C60.2702 60.9375 60.5285 60.8305 60.719 60.64C60.9095 60.4496 61.0165 60.1912 61.0165 59.9219V14.2187C61.0161 14.0234 60.9593 13.8323 60.853 13.6683C60.7468 13.5044 60.5955 13.3746 60.4173 13.2945ZM4.14148 58.9062H2.11023V18.2812H4.14148V58.9062ZM54.9227 28.4375H6.17273V26.4062H54.9227V28.4375ZM54.9227 24.375H6.17273V22.3437H54.9227V24.375ZM54.9227 20.3125H6.17273V18.2812H54.9227V20.3125ZM58.9852 58.9062H56.954V18.2812H58.9852V58.9062ZM58.9852 16.25H2.11023V14.8789L30.5477 2.1328L58.9852 14.8789V16.25Z" fill="#91AD37"/>
<path d="M38.6727 47.7344H22.4227C22.2684 47.7344 22.116 47.7696 21.9773 47.8373C21.8385 47.905 21.7171 48.0035 21.6221 48.1252C21.5271 48.2469 21.4611 48.3886 21.4292 48.5397C21.3972 48.6907 21.4001 48.847 21.4376 48.9968L21.8763 50.7508C22.0949 51.6303 22.6017 52.4112 23.316 52.969C24.0302 53.5268 24.9107 53.8292 25.817 53.8281H35.2785C36.1848 53.8292 37.0652 53.5268 37.7795 52.969C38.4937 52.4112 39.0006 51.6303 39.2191 50.7508L39.6579 48.9968C39.6954 48.847 39.6983 48.6907 39.6663 48.5397C39.6343 48.3886 39.5684 48.2469 39.4734 48.1252C39.3784 48.0035 39.2569 47.905 39.1182 47.8373C38.9795 47.7696 38.8271 47.7344 38.6727 47.7344ZM37.2509 50.2582C37.1409 50.698 36.8871 51.0884 36.5296 51.3672C36.1722 51.646 35.7318 51.7973 35.2785 51.7969H25.817C25.364 51.7968 24.9241 51.6453 24.5671 51.3665C24.2101 51.0878 23.9565 50.6976 23.8466 50.2582L23.7237 49.7656H37.3717L37.2509 50.2582Z" fill="#FF7F57"/>
<path d="M51.8759 40.1172C51.8759 39.4438 51.6083 38.798 51.1322 38.3218C50.656 37.8456 50.0102 37.5781 49.3368 37.5781H47.8844C47.3817 37.5773 46.8866 37.7012 46.4435 37.9387C46.0003 38.1762 45.6231 38.5199 45.3454 38.9391L45.193 39.1625L44.8782 37.8828C44.4933 36.3452 43.6056 34.9804 42.3561 34.0051C41.1067 33.0299 39.5671 32.5001 37.9821 32.5H23.1134C21.5283 32.5001 19.9888 33.0299 18.7394 34.0051C17.4899 34.9804 16.6022 36.3452 16.2173 37.8828L15.9024 39.1625L15.7501 38.9391C15.4724 38.5199 15.0951 38.1762 14.652 37.9387C14.2089 37.7012 13.7138 37.5773 13.211 37.5781H11.7587C11.0853 37.5781 10.4394 37.8456 9.96328 38.3218C9.48711 38.798 9.2196 39.4438 9.2196 40.1172C9.2196 40.7906 9.48711 41.4364 9.96328 41.9126C10.4394 42.3887 11.0853 42.6562 11.7587 42.6562H12.2969C11.6217 43.5287 11.2539 44.5999 11.2509 45.7031V53.8281C11.2541 54.4564 11.4508 55.0684 11.8143 55.5809C12.1777 56.0933 12.6903 56.4814 13.2821 56.6922V57.8906C13.2845 58.698 13.6063 59.4715 14.1772 60.0424C14.7481 60.6133 15.5216 60.9351 16.329 60.9375H20.3915C21.1988 60.9351 21.9724 60.6133 22.5433 60.0424C23.1142 59.4715 23.4359 58.698 23.4384 57.8906V56.875H37.6571V57.8906C37.6595 58.698 37.9813 59.4715 38.5522 60.0424C39.1231 60.6133 39.8966 60.9351 40.704 60.9375H44.7665C45.5738 60.9351 46.3474 60.6133 46.9183 60.0424C47.4892 59.4715 47.8109 58.698 47.8134 57.8906V56.6922C48.4052 56.4814 48.9177 56.0933 49.2812 55.5809C49.6446 55.0684 49.8414 54.4564 49.8446 53.8281V45.7031C49.8415 44.5999 49.4737 43.5287 48.7985 42.6562H49.3368C50.0102 42.6562 50.656 42.3887 51.1322 41.9126C51.6083 41.4364 51.8759 40.7906 51.8759 40.1172ZM18.1876 38.3805C18.4617 37.2814 19.0954 36.3055 19.988 35.6081C20.8805 34.9106 21.9806 34.5316 23.1134 34.5312H37.9821C39.1148 34.5316 40.215 34.9106 41.1075 35.6081C42 36.3055 42.6338 37.2814 42.9079 38.3805L43.6391 41.3055C42.7059 42.1722 41.4799 42.6546 40.2063 42.6562H20.8891C19.6155 42.6546 18.3895 42.1722 17.4563 41.3055L18.1876 38.3805ZM11.7587 40.625C11.624 40.625 11.4948 40.5715 11.3996 40.4763C11.3044 40.381 11.2509 40.2519 11.2509 40.1172C11.2509 39.9825 11.3044 39.8533 11.3996 39.7581C11.4948 39.6629 11.624 39.6094 11.7587 39.6094H13.211C13.3783 39.6102 13.5428 39.6524 13.6898 39.7321C13.8369 39.8119 13.962 39.9267 14.054 40.0664L14.4298 40.625H11.7587ZM13.2821 48.1305L17.3446 49.4813V49.7656C17.3446 50.035 17.2376 50.2933 17.0471 50.4838C16.8567 50.6742 16.5983 50.7812 16.329 50.7812H13.2821V48.1305ZM21.4071 57.8906C21.4071 58.16 21.3001 58.4183 21.1096 58.6088C20.9192 58.7992 20.6608 58.9062 20.3915 58.9062H16.329C16.0596 58.9062 15.8013 58.7992 15.6108 58.6088C15.4204 58.4183 15.3134 58.16 15.3134 57.8906V56.875H21.4071V57.8906ZM45.7821 57.8906C45.7821 58.16 45.6751 58.4183 45.4846 58.6088C45.2942 58.7992 45.0358 58.9062 44.7665 58.9062H40.704C40.4346 58.9062 40.1763 58.7992 39.9858 58.6088C39.7954 58.4183 39.6884 58.16 39.6884 57.8906V56.875H45.7821V57.8906ZM47.8134 50.7812H44.7665C44.4971 50.7812 44.2388 50.6742 44.0483 50.4838C43.8579 50.2933 43.7509 50.035 43.7509 49.7656V49.4813L47.8134 48.1305V50.7812ZM47.8134 45.9875L42.4102 47.7852C42.2097 47.8551 42.0356 47.9854 41.912 48.1581C41.7884 48.3308 41.7212 48.5376 41.7196 48.75V49.7656C41.722 50.573 42.0438 51.3465 42.6147 51.9174C43.1856 52.4883 43.9591 52.8101 44.7665 52.8125H47.8134V53.8281C47.8134 54.0975 47.7064 54.3558 47.5159 54.5463C47.3254 54.7367 47.0671 54.8438 46.7977 54.8438H14.2977C14.0284 54.8438 13.77 54.7367 13.5796 54.5463C13.3891 54.3558 13.2821 54.0975 13.2821 53.8281V52.8125H16.329C17.1363 52.8101 17.9099 52.4883 18.4808 51.9174C19.0517 51.3465 19.3734 50.573 19.3759 49.7656V48.75C19.3743 48.5376 19.3071 48.3308 19.1835 48.1581C19.0598 47.9854 18.8858 47.8551 18.6852 47.7852L13.2821 45.9875V45.7031C13.2831 44.9622 13.5553 44.2472 14.0474 43.6934C14.5396 43.1395 15.2175 42.785 15.9532 42.6969C17.277 43.9771 19.0475 44.6912 20.8891 44.6875H40.2063C42.0479 44.6912 43.8185 43.9771 45.1423 42.6969C45.8779 42.785 46.5559 43.1395 47.048 43.6934C47.5401 44.2472 47.8124 44.9622 47.8134 45.7031V45.9875ZM46.6657 40.625L47.0415 40.0664C47.1335 39.9267 47.2586 39.8119 47.4056 39.7321C47.5527 39.6524 47.7172 39.6102 47.8844 39.6094H49.3368C49.4715 39.6094 49.6006 39.6629 49.6959 39.7581C49.7911 39.8533 49.8446 39.9825 49.8446 40.1172C49.8446 40.2519 49.7911 40.381 49.6959 40.4763C49.6006 40.5715 49.4715 40.625 49.3368 40.625H46.6657Z" fill="#FF7F57"/>
</svg>
